<svg id="Layer_1" xmlns="http://www.w3.org/2000/svg" viewBox="0 0 174 135.5"><style>.st0{fill:#bb374f}.st1{fill:#396586}.st1,.st2{display:none}.st3,.st4{display:inline;fill:#bb374f}.st4{fill:#92d4d8}</style><path class="st0" d="M129.4 85.4L89.2 0h-4.5L24 129.3H0v6.2h174v-6.2h-24l-20.6-43.9zm-99.9 43.9L87 6.9l57.5 122.4h-115z"/><path class="st1" d="M185.9-3.8h-.1c-1-24.1-10.7-46.1-26-62.7l.1-.1c1.6-1.6 1.6-4.2 0-5.8-1.6-1.6-4.2-1.6-5.8 0l-.1.1c-16.7-15.4-38.7-25.1-62.9-26.1v-.1c0-2.3-1.8-4.1-4.1-4.1s-4.1 1.8-4.1 4.1v.1c-24.2 1-46.1 10.7-62.8 26l-.1-.2c-1.6-1.6-4.2-1.6-5.8 0-1.6 1.6-1.6 4.2 0 5.8l.1.1C-1.1-50-10.8-28-11.8-3.8h-.1C-14.2-3.8-16-2-16 .3s1.8 4.1 4.1 4.1h.1c1 24.1 10.6 46 25.9 62.6l-.1.1c-1.6 1.6-1.6 4.2 0 5.8.8.8 1.9 1.2 2.9 1.2s2.1-.4 2.9-1.2l.1-.1C36.6 88.3 58.6 98 82.9 99v.1c0 2.3 1.8 4.1 4.1 4.1s4.1-1.8 4.1-4.1V99c24.1-1 46-10.6 62.7-25.9l.1.1c.8.8 1.9 1.2 2.9 1.2s2.1-.4 2.9-1.2c1.6-1.6 1.6-4.2 0-5.8l-.1-.1c15.4-16.7 25.2-38.7 26.2-63h.1c2.3 0 4.1-1.8 4.1-4.1 0-2.2-1.8-4-4.1-4m-103-90.6v5.6c0 .7.2 1.3.5 1.9-21.3.9-40.7 9.5-55.4 23-.2-.6-.5-1.2-1-1.8l-3.9-4c15.8-14.5 36.8-23.7 59.8-24.7M79.7-1.2L1.4-2c0-.1-.1-.1-.2-.2.6-21.8 9.4-41.6 23.5-56.5.7-.1 1.4-.4 2-.9L80.9-4c-.6.9-1 1.8-1.2 2.8m1.1 5.6L25.1 59.2c-.2-.1-.4-.1-.6-.1C10.5 44.2 1.8 24.5 1.2 2.8c.4-.6.7-1.2.8-2l77.7.8c.2 1 .6 2 1.1 2.8M17.2-63.8l3.9 3.9c.5.5 1.1.8 1.7 1C9.3-44.1.8-24.7-.1-3.3c-.6-.3-1.2-.5-2-.5h-5.6c1-23.1 10.3-44 24.9-60m3.7 124l-4 3.9C2.5 48.2-6.7 27.3-7.7 4.4h5.6c.7 0 1.4-.2 1.9-.5.9 21.2 9.4 40.6 22.8 55.3-.5.1-1.2.5-1.7 1m62 29.2V95c-23.1-1-44.1-10.3-60.1-25l4-3.9c.5-.5.8-1.1 1-1.8C42.5 77.9 62 86.6 83.4 87.4c-.3.6-.5 1.3-.5 2m2.1-3.6c-.2.1-.3.2-.5.3-21.9-.6-41.8-9.5-56.6-23.6-.1-.6-.3-1.1-.6-1.6L82.8 6.4c.8.6 1.8 1 2.8 1.2L85 85.8zM85.6-7c-1 .2-1.9.6-2.7 1.1L28.1-62v-.1c14.8-14 34.6-22.8 56.4-23.4.3.3.7.5 1.1.6V-7zm5.5-81.8v-5.6c23.1 1 44 10.3 60 24.9l-4 3.9c-.5.5-.8 1.1-1 1.8C131.4-77.4 112-86 90.6-86.9c.3-.5.5-1.2.5-1.9m81 88l-77.8-.3c-.2-1-.6-2-1.2-2.8l55.2-55c.4.2.7.3 1.1.3 14 14.8 22.7 34.6 23.4 56.4-.3.4-.5.9-.7 1.4m.7 3.6c-.6 21.9-9.5 41.7-23.6 56.6-.5.1-1 .2-1.4.5L93.1 4.5c.6-.8 1-1.8 1.2-2.8l78 .3c.2.2.3.5.5.8M88.4-84.9c.4-.1.8-.3 1.1-.6 21.9.6 41.7 9.4 56.5 23.5.1.4.2.8.4 1.2l-55.2 55c-.8-.6-1.8-1-2.8-1.2v-77.9zm1.1 171c-.5-.4-1.1-.6-1.7-.8l.5-77.7c1-.2 2-.6 2.8-1.2L146 61.9c-.1.3-.2.6-.2.9-14.8 13.9-34.6 22.7-56.3 23.3m1.6 8.9v-5.6c0-.7-.2-1.3-.5-1.9 21.3-.9 40.6-9.4 55.3-22.9.2.6.5 1.2 1 1.7l3.9 4C135 84.8 114.1 94 91.1 95m65.6-30.6l-3.9-4c-.5-.5-1.1-.8-1.8-1 13.6-14.7 22.2-34.2 23.1-55.6.6.3 1.2.5 1.9.5h5.6c-.9 23.2-10.2 44.2-24.9 60.1m19.4-68.2c-.7 0-1.3.2-1.9.5-.9-21.3-9.4-40.6-22.9-55.4.6-.2 1.2-.5 1.8-1l4-3.9c14.6 15.9 23.8 36.8 24.8 59.8h-5.8z"/><g class="st2"><path class="st3" d="M94.9-88.3h-4.3v-4.1c0-1-.8-1.7-1.7-1.7h-3.8c-1 0-1.7.8-1.7 1.7v4.1h-4.3c-1.7 0-3.1 1.4-3.1 3.1v11.1c0 1.7 1.4 3.1 3.1 3.1h15.8c1.7 0 3.1-1.4 3.1-3.1v-11.1c0-1.7-1.4-3.1-3.1-3.1"/><path class="st4" d="M79.1-82.4H86v4.9h-6.9zm8.9 0h6.9v4.9H88z"/></g><g class="st2"><path class="st3" d="M159.2-60.9h-4.3V-65c0-1-.8-1.7-1.7-1.7h-3.8c-1 0-1.7.8-1.7 1.7v4.1h-4.3c-1.7 0-3.1 1.4-3.1 3.1v11.1c0 1.7 1.4 3.1 3.1 3.1h15.8c1.7 0 3.1-1.4 3.1-3.1v-11.1c0-1.7-1.4-3.1-3.1-3.1"/><path class="st4" d="M143.4-55h6.9v4.9h-6.9zm8.9 0h6.9v4.9h-6.9z"/></g><g class="st2"><path class="st3" d="M185.9 4.6h-4.3V.4c0-1-.8-1.7-1.7-1.7h-3.8c-1 0-1.7.8-1.7 1.7v4.1h-4.3c-1.7 0-3.1 1.4-3.1 3.1v11.1c0 1.7 1.4 3.1 3.1 3.1h15.8c1.7 0 3.1-1.4 3.1-3.1v-11c0-1.7-1.4-3.1-3.1-3.1"/><path class="st4" d="M170.1 10.5h6.9v4.9h-6.9zm8.9 0h6.9v4.9H179z"/></g><g class="st2"><path class="st3" d="M159.4 69.2h-4.3v-4.1c0-1-.8-1.7-1.7-1.7h-3.8c-1 0-1.7.8-1.7 1.7v4.1h-4.3c-1.7 0-3.1 1.4-3.1 3.1v11.1c0 1.7 1.4 3.1 3.1 3.1h15.8c1.7 0 3.1-1.4 3.1-3.1V72.3c0-1.7-1.4-3.1-3.1-3.1"/><path class="st4" d="M143.6 75.2h6.9v4.9h-6.9zm8.9 0h6.9v4.9h-6.9z"/></g><g class="st2"><path class="st3" d="M14.8-60.9h4.3V-65c0-1 .8-1.7 1.7-1.7h3.8c1 0 1.7.8 1.7 1.7v4.1h4.3c1.7 0 3.1 1.4 3.1 3.1v11.1c0 1.7-1.4 3.1-3.1 3.1H14.8c-1.7 0-3.1-1.4-3.1-3.1v-11.1c0-1.7 1.4-3.1 3.1-3.1"/><path class="st4" d="M23.7-55h6.9v4.9h-6.9zm-8.9 0h6.9v4.9h-6.9z"/></g><g class="st2"><path class="st3" d="M-11.9 4.6h4.3V.4c0-1 .8-1.7 1.7-1.7h3.8c1 0 1.7.8 1.7 1.7v4.1h4.3C5.6 4.6 7 6 7 7.7v11.1c0 1.7-1.4 3.1-3.1 3.1h-15.8c-1.7 0-3.1-1.4-3.1-3.1V7.7c0-1.7 1.4-3.1 3.1-3.1"/><path class="st4" d="M-3 10.5h6.9v4.9H-3zm-8.9 0H-5v4.9h-6.9z"/></g><g class="st2"><path class="st3" d="M14.6 69.2h4.3v-4.1c0-1 .8-1.7 1.7-1.7h3.8c1 0 1.7.8 1.7 1.7v4.1h4.3c1.7 0 3.1 1.4 3.1 3.1v11.1c0 1.7-1.4 3.1-3.1 3.1H14.6c-1.7 0-3.1-1.4-3.1-3.1V72.3c0-1.7 1.4-3.1 3.1-3.1"/><path class="st4" d="M23.5 75.2h6.9v4.9h-6.9zm-8.9 0h6.9v4.9h-6.9z"/></g><g class="st2"><path class="st3" d="M94.9 96.4h-4.3v-4.1c0-1-.8-1.7-1.7-1.7h-3.8c-1 0-1.7.8-1.7 1.7v4.1h-4.3c-1.7 0-3.1 1.4-3.1 3.1v11.1c0 1.7 1.4 3.1 3.1 3.1h15.8c1.7 0 3.1-1.4 3.1-3.1V99.5c0-1.7-1.4-3.1-3.1-3.1"/><path class="st4" d="M79.1 102.4H86v4.9h-6.9zm8.9 0h6.9v4.9H88z"/></g></svg>