<svg id="Layer_1" xmlns="http://www.w3.org/2000/svg" viewBox="0 0 22 23.2"><style>.st0{display:none;fill:#bb374f}.st1{fill:#396586}.st1,.st2{display:none}.st3,.st4{display:inline;fill:#bb374f}.st4{fill:#92d4d8}.st5{fill:#bb374f}.st6{fill:#92d4d8}</style><path class="st0" d="M117.9 22.1L77.7-63.3h-4.5L12.5 65.9h-24v6.2h174v-6.2h-24l-20.6-43.8zM18 65.9L75.5-56.5 133 65.9H18z"/><path class="st1" d="M174.4-67.2h-.1c-1-24.1-10.7-46.1-26-62.7l.1-.1c1.6-1.6 1.6-4.2 0-5.8-1.6-1.6-4.2-1.6-5.8 0l-.1.1c-16.7-15.4-38.7-25.1-62.9-26.1v-.1c0-2.3-1.8-4.1-4.1-4.1s-4.1 1.8-4.1 4.1v.1c-24.2 1-46.1 10.7-62.8 26l-.1-.1c-1.6-1.6-4.2-1.6-5.8 0-1.6 1.6-1.6 4.2 0 5.8l.1.1c-15.4 16.7-25.1 38.7-26.1 62.8h-.1c-2.3 0-4.1 1.8-4.1 4.1s1.8 4.1 4.1 4.1h.1c1 24.1 10.6 46 25.9 62.6l-.1.2C.8 5.4.8 8 2.4 9.6c.8.8 1.9 1.2 2.9 1.2s2.1-.4 2.9-1.2l.1-.1C25 25 47 34.7 71.3 35.7v.1c0 2.3 1.8 4.1 4.1 4.1s4.1-1.8 4.1-4.1v-.1c24.1-1 46-10.6 62.7-25.9l.1.1c.8.8 1.9 1.2 2.9 1.2s2.1-.4 2.9-1.2c1.6-1.6 1.6-4.2 0-5.8V4c15.4-16.7 25.2-38.7 26.2-63h.1c2.3 0 4.1-1.8 4.1-4.1 0-2.2-1.8-4.1-4.1-4.1m-103-90.5v5.6c0 .7.2 1.3.5 1.9-21.3.9-40.7 9.4-55.4 23-.2-.6-.5-1.2-1-1.8l-3.9-4c15.8-14.5 36.7-23.8 59.8-24.7m-3.2 93.2l-78.4-.8c0-.1-.1-.1-.2-.2.6-21.8 9.4-41.6 23.5-56.5.7-.1 1.4-.4 2-.9l54.2 55.6c-.5.8-.9 1.8-1.1 2.8m1.1 5.6L13.6-4.2c-.2-.1-.4-.1-.6-.1C-1-19.1-9.7-38.9-10.3-60.6c.4-.6.7-1.2.8-2l77.7.8c.2 1.1.6 2 1.1 2.9M5.7-127.1l3.9 3.9c.5.5 1.1.8 1.7 1-13.6 14.7-22.1 34.1-23 55.5-.6-.3-1.2-.5-2-.5h-5.6c1.1-23 10.3-44 25-59.9M9.4-3.2L5.4.7C-9-15.1-18.2-36-19.2-58.9h5.6c.7 0 1.4-.2 1.9-.5.9 21.2 9.4 40.6 22.8 55.3-.6.1-1.2.4-1.7.9m62 29.2v5.6c-23.1-1-44.1-10.3-60.1-25l4-3.9c.5-.5.8-1.1 1-1.8C31 14.6 50.5 23.2 71.9 24.1c-.3.6-.5 1.2-.5 1.9m2.1-3.6c-.2.1-.3.2-.5.3-21.9-.6-41.8-9.5-56.6-23.6-.1-.6-.3-1.1-.6-1.6L71.2-57c.8.6 1.8 1 2.8 1.2l-.5 78.2zm.6-92.8c-1 .2-1.9.6-2.7 1.1l-54.8-56.2v-.1c14.8-14 34.6-22.8 56.4-23.4.3.3.7.5 1.1.6v78zm5.5-81.7v-5.6c23.1 1 44 10.3 60 24.9l-4 3.9c-.5.5-.8 1.1-1 1.8-14.7-13.6-34.1-22.2-55.5-23.1.3-.6.5-1.2.5-1.9m81 88l-77.8-.3c-.2-1-.6-2-1.2-2.8l55.2-55c.4.2.7.3 1.1.3 14 14.8 22.7 34.6 23.4 56.4-.3.4-.6.9-.7 1.4m.7 3.5c-.6 21.9-9.5 41.7-23.6 56.6-.5.1-1 .2-1.4.5L81.6-58.8c.6-.8 1-1.8 1.2-2.8l78 .3c.1.2.3.5.5.7m-84.4-87.7c.4-.1.8-.3 1.1-.6 21.9.6 41.7 9.4 56.5 23.5.1.4.2.8.4 1.2l-55.2 55c-.8-.6-1.8-1-2.8-1.2v-77.9zm1.1 171c-.5-.4-1.1-.6-1.7-.8l.5-77.7c1-.2 2-.6 2.8-1.2l54.9 55.5c-.1.3-.2.6-.2.9-14.8 14-34.6 22.7-56.3 23.3m1.6 8.9V26c0-.7-.2-1.3-.5-1.9 21.3-.9 40.6-9.4 55.3-22.9.2.6.5 1.2 1 1.7l3.9 4c-15.8 14.6-36.7 23.7-59.7 24.7m65.6-30.5l-3.9-4c-.5-.5-1.1-.8-1.8-1 13.6-14.7 22.2-34.2 23.1-55.6.6.3 1.2.5 1.9.5h5.6c-.9 23.2-10.2 44.1-24.9 60.1m19.4-68.3c-.7 0-1.3.2-1.9.5-.9-21.3-9.4-40.6-22.9-55.4.6-.2 1.2-.5 1.8-1l4-3.9c14.6 15.9 23.8 36.8 24.8 59.8h-5.8z"/><g class="st2"><path class="st3" d="M83.4-151.7h-4.3v-4.1c0-1-.8-1.7-1.7-1.7h-3.8c-1 0-1.7.8-1.7 1.7v4.1h-4.3c-1.7 0-3.1 1.4-3.1 3.1v11.1c0 1.7 1.4 3.1 3.1 3.1h15.8c1.7 0 3.1-1.4 3.1-3.1v-11.1c0-1.7-1.4-3.1-3.1-3.1"/><path class="st4" d="M67.6-145.7h6.9v4.9h-6.9zm8.9 0h6.9v4.9h-6.9z"/></g><g class="st2"><path class="st3" d="M147.7-124.3h-4.3v-4.1c0-1-.8-1.7-1.7-1.7h-3.8c-1 0-1.7.8-1.7 1.7v4.1h-4.3c-1.7 0-3.1 1.4-3.1 3.1v11.1c0 1.7 1.4 3.1 3.1 3.1h15.8c1.7 0 3.1-1.4 3.1-3.1v-11.1c0-1.7-1.4-3.1-3.1-3.1"/><path class="st4" d="M131.9-118.3h6.9v4.9h-6.9zm8.9 0h6.9v4.9h-6.9z"/></g><g class="st2"><path class="st3" d="M174.4-58.8h-4.3v-4.1c0-1-.8-1.7-1.7-1.7h-3.8c-1 0-1.7.8-1.7 1.7v4.1h-4.3c-1.7 0-3.1 1.4-3.1 3.1v11.1c0 1.7 1.4 3.1 3.1 3.1h15.8c1.7 0 3.1-1.4 3.1-3.1v-11.1c0-1.7-1.4-3.1-3.1-3.1"/><path class="st4" d="M158.6-52.8h6.9v4.9h-6.9zm8.9 0h6.9v4.9h-6.9z"/></g><g class="st2"><path class="st3" d="M147.9 5.9h-4.3V1.7c0-1-.8-1.7-1.7-1.7h-3.8c-1 0-1.7.8-1.7 1.7v4.1h-4.3c-1.7 0-3.1 1.4-3.1 3.1V20c0 1.7 1.4 3.1 3.1 3.1h15.8c1.7 0 3.1-1.4 3.1-3.1V9c0-1.7-1.4-3.1-3.1-3.1"/><path class="st4" d="M132.1 11.8h6.9v4.9h-6.9zm8.9 0h6.9v4.9H141z"/></g><g class="st2"><path class="st3" d="M3.3-124.3h4.3v-4.1c0-1 .8-1.7 1.7-1.7h3.8c1 0 1.7.8 1.7 1.7v4.1h4.3c1.7 0 3.1 1.4 3.1 3.1v11.1c0 1.7-1.4 3.1-3.1 3.1H3.3c-1.7 0-3.1-1.4-3.1-3.1v-11.1c0-1.7 1.4-3.1 3.1-3.1"/><path class="st4" d="M12.2-118.3h6.9v4.9h-6.9zm-8.9 0h6.9v4.9H3.3z"/></g><g class="st2"><path class="st3" d="M-23.4-58.8h4.3v-4.1c0-1 .8-1.7 1.7-1.7h3.8c1 0 1.7.8 1.7 1.7v4.1h4.3c1.7 0 3.1 1.4 3.1 3.1v11.1c0 1.7-1.4 3.1-3.1 3.1h-15.8c-1.7 0-3.1-1.4-3.1-3.1v-11.1c0-1.7 1.4-3.1 3.1-3.1"/><path class="st4" d="M-14.5-52.8h6.9v4.9h-6.9zm-8.9 0h6.9v4.9h-6.9z"/></g><path class="st5" d="M3.1 5.9h4.3V1.7C7.4.7 8.2 0 9.1 0h3.8c1 0 1.7.8 1.7 1.7v4.1h4.3C20.6 5.9 22 7.3 22 9v11.1c0 1.7-1.4 3.1-3.1 3.1H3.1c-1.7 0-3.1-1.4-3.1-3.1V9c0-1.7 1.4-3.1 3.1-3.1"/><path class="st6" d="M12 11.8h6.9v4.9H12zm-8.9 0H10v4.9H3.1z"/><g class="st2"><path class="st3" d="M83.4 33.1h-4.3V29c0-1-.8-1.7-1.7-1.7h-3.8c-1 0-1.7.8-1.7 1.7v4.1h-4.3c-1.7 0-3.1 1.4-3.1 3.1v11.1c0 1.7 1.4 3.1 3.1 3.1h15.8c1.7 0 3.1-1.4 3.1-3.1V36.2c0-1.7-1.4-3.1-3.1-3.1"/><path class="st4" d="M67.6 39h6.9v4.9h-6.9zm8.9 0h6.9v4.9h-6.9z"/></g></svg>