<svg id="Layer_1" xmlns="http://www.w3.org/2000/svg" viewBox="0 0 121.3 62.4"><style>.st0{fill:#f2b533}.st1{fill:#a9acac}.st2{fill:#e94f3d}.st3{fill:#55a7c8}.st4{fill:#450f27}.st5{fill:#fff}.st6{fill:#b73d65}.st7{fill:#fbba33}.st8{fill:#24345f}</style><path class="st0" d="M82.5 62.4h38.9V35.9L108 18.6c-1.3-1.7-3.3-2.7-5.5-2.7h-20v46.5z"/><path class="st1" d="M108.4 59h15.3v4.3h-15.3z"/><path class="st2" d="M82.5 56.6h38.9V59H82.5z"/><path class="st3" d="M116.7 36.2h-16.6V21.8h5.4z"/><path class="st4" d="M100.1 22.7v-.9h5.4l.6.9z"/><path class="st2" d="M100.1 36.2h16.6v1.5h-16.6z"/><path class="st5" d="M115.5 42.3h5.8v6.4h-5.8z"/><path class="st6" d="M115.5 48.7h5.8v.7h-5.8z"/><path class="st3" d="M88.1 21.8h8.2v14.4h-8.2z"/><path class="st4" d="M88.1 21.8h8.2v.9h-8.2z"/><path class="st2" d="M88.1 36.2h8.3v1.5h-8.3z"/><path class="st7" d="M0 0h79.7v62.4H0z"/><path class="st1" d="M0 54.8h79.7v7.6H0z"/><path class="st8" d="M0 2.7h79.7v2.9H0z"/><path class="st2" d="M0 21.8h63.1v17.3H0z"/></svg>