<svg id="Layer_1" xmlns="http://www.w3.org/2000/svg" xmlns:xlink="http://www.w3.org/1999/xlink" viewBox="0 0 97.2 44.3"><style>.st0{fill:#6dabe4}.st1{fill:#1d4f90}.st2{fill:#fff}.st3,.st4{clip-path:url(#SVGID_2_);fill:#ff671b}.st4{clip-path:url(#SVGID_4_)}.st5{fill:#333e48}.st6{fill:#52331e}</style><path class="st0" d="M95.1 25.5l-12.6-7.8L73.2.9c-.3-.6-.9-.9-1.5-.9h-64C3.4 0 0 3.4 0 7.7v36.6h92.8c2.4 0 4.4-2 4.4-4.4V29.2c0-1.5-.8-2.9-2.1-3.7"/><path class="st1" d="M96.9 27.6H0v1.7h97.2v-.1c0-.5-.1-1.1-.3-1.6zM97 41H0v3.3h92.8c2.1 0 3.7-1.4 4.2-3.3"/><path class="st2" d="M88.2 29.3h9v6.8h-9z"/><defs><path id="SVGID_1_" d="M88.2 36.1h9v1.3h-9z"/></defs><use xlink:href="#SVGID_1_" overflow="visible" fill="#1d4f90"/><clipPath id="SVGID_2_"><use xlink:href="#SVGID_1_" overflow="visible"/></clipPath><path class="st3" d="M88.2 36.1h9v1.3h-9z"/><path class="st2" d="M0 29.3h4.5v6.8H0z"/><defs><path id="SVGID_3_" d="M0 36.1h4.5v1.3H0z"/></defs><use xlink:href="#SVGID_3_" overflow="visible" fill="#1d4f90"/><clipPath id="SVGID_4_"><use xlink:href="#SVGID_3_" overflow="visible"/></clipPath><path class="st4" d="M0 36.1h4.5v1.3H0z"/><path class="st5" d="M9.7 4.1h26.9v15.7H9.7z"/><path class="st1" d="M9.7 19.8h26.9v1.3H9.7z"/><path class="st6" d="M9.7 4.1h26.9v1.2H9.7z"/><path class="st5" d="M39.6 4.1h15v15.7h-15z"/><path class="st1" d="M39.6 19.8h15v1.3h-15z"/><path class="st6" d="M39.6 4.1h15v1.2h-15z"/><path class="st5" d="M70.3 4.1l8.6 15.7H58.7V4.1z"/><path class="st1" d="M58.7 19.8h20.2v1.3H58.7z"/><path class="st6" d="M70.9 5.3l-.6-1.2H58.7v1.2z"/></svg>