<svg id="Layer_1" xmlns="http://www.w3.org/2000/svg" viewBox="0 0 77.7 30.8"><style>.st0{fill:#c3c6c8}.st1{fill:#b55a37}.st2{fill:#262e32}.st3{fill:#fff}.st4{fill:#009abf}.st5{fill:#2e5597}</style><path class="st0" d="M0 18.7L10.6.1c.1 0 .1-.1.2-.1h37.4c.1 0 .2 0 .2.1l11 11.8s.1 0 .1.1l18.1 8.4c.1 0 .2.1.2.3v8.7c0 .1-.1.2-.2.3L60 30.9H0V18.7"/><path class="st1" d="M77.5 29.7l-14.7 1H0V26h77.7v3.5c0 .1-.1.2-.2.2"/><path class="st2" d="M-2.7 20H0v9.5h-2.7z"/><path class="st3" d="M77.7 20.6v4H70V19h4.7l2.8 1.3c.1.1.2.2.2.3"/><path class="st4" d="M50 1.8l9.2 9.8h-7.9l-4.9-9.8z"/><path class="st5" d="M51.3 11.6h7.9l.2.2s.1 0 .1.1l.8.4v.5h-9v-1.2z"/><path class="st4" d="M48.1 11.6l-4.9-9.8H28.5v9.8z"/><path class="st5" d="M28.5 11.6h19.6v1.2H28.5z"/><path class="st4" d="M12.5 1.8l-5.6 9.8h18.6V1.8z"/><path class="st5" d="M6.9 11.6h18.6v1.2H6.9z"/><path class="st3" d="M0 20.8h2.5v4.4H0z"/></svg>