<svg id="Layer_1" xmlns="http://www.w3.org/2000/svg" viewBox="0 0 80.4 30.8"><style>.st0{fill:#cc6160}.st1{fill:#63c5bc}.st2{fill:#262e32}.st3{fill:#fff}.st4{fill:#c5e6e6}.st5{fill:#2e5597}.st6{display:none}.st7{display:inline;fill:#262e32}.st8{fill:#a9acac}.st8,.st9{display:inline}.st10{fill:#848687}</style><path class="st0" d="M77.7 18.7L67.1.1c-.1 0-.1-.1-.2-.1H29.5c-.1 0-.2 0-.2.1l-11 11.8s-.1 0-.1.1l-18 8.3c-.1 0-.2.1-.2.3v8.7c0 .1.1.2.2.3l17.6 1.2h59.9V18.7"/><path class="st1" d="M.2 29.7l14.7 1h62.7V26H0v3.5c0 .1.1.2.2.2"/><path class="st2" d="M77.7 20h2.7v9.5h-2.7z"/><path class="st3" d="M0 20.6v4h7.7V19H3L.2 20.3c-.1.1-.2.2-.2.3"/><path class="st4" d="M27.7 1.8l-9.2 9.8h7.9l4.9-9.8z"/><path class="st5" d="M26.4 11.6h-7.9l-.2.2s-.1 0-.1.1l-.8.4v.5h9v-1.2z"/><path class="st4" d="M29.6 11.6l4.9-9.8h14.7v9.8z"/><path class="st5" d="M29.6 11.6h19.6v1.2H29.6z"/><path class="st4" d="M65.2 1.8l5.6 9.8H52.3V1.8z"/><path class="st5" d="M52.3 11.6h18.6v1.2H52.3z"/><g class="st6"><path class="st7" d="M68.9 31.5c0-4-3.3-7.3-7.3-7.3s-7.3 3.3-7.3 7.3 3.3 7.3 7.3 7.3 7.3-3.2 7.3-7.3"/><path class="st8" d="M65.9 31.5c0-2.4-1.9-4.3-4.3-4.3s-4.3 1.9-4.3 4.3 1.9 4.3 4.3 4.3 4.3-1.9 4.3-4.3"/><g class="st9"><circle class="st10" cx="63.1" cy="30.2" r=".7"/><circle class="st10" cx="60.1" cy="30.2" r=".7"/><circle class="st10" cx="63.1" cy="32.9" r=".7"/><circle class="st10" cx="60.1" cy="32.9" r=".7"/></g></g><g class="st6"><path class="st7" d="M31 31.5c0-4-3.3-7.3-7.3-7.3s-7.3 3.3-7.3 7.3 3.3 7.3 7.3 7.3c4.1 0 7.3-3.2 7.3-7.3"/><path class="st8" d="M28 31.5c0-2.4-1.9-4.3-4.3-4.3s-4.3 1.9-4.3 4.3 1.9 4.3 4.3 4.3 4.3-1.9 4.3-4.3"/><g class="st9"><circle class="st10" cx="25.3" cy="30.2" r=".7"/><circle class="st10" cx="22.3" cy="30.2" r=".7"/><circle class="st10" cx="25.3" cy="32.9" r=".7"/><circle class="st10" cx="22.3" cy="32.9" r=".7"/></g></g><path class="st3" d="M75.2 20.7h2.5v4.4h-2.5z"/></svg>