<svg id="Layer_1" xmlns="http://www.w3.org/2000/svg" xmlns:xlink="http://www.w3.org/1999/xlink" viewBox="0 0 97.2 44.3"><style>.st0{fill:#485eaa}.st1{fill:#92c741}.st2{fill:#1d4f90}.st3{fill:#fff}.st4,.st5{clip-path:url(#SVGID_2_);fill:#ff671b}.st5{clip-path:url(#SVGID_4_)}.st6{fill:#333e48}.st7{fill:#457cbf}.st8{display:none}.st9{display:inline;fill:#262e32}.st10{fill:#a9acac}.st10,.st11{display:inline}.st12{fill:#848687}</style><path class="st0" d="M2.1 25.5l12.6-7.8L24 .9c.3-.6.9-.9 1.5-.9h64c4.3 0 7.7 3.4 7.7 7.7v36.6H4.4c-2.4 0-4.4-2-4.4-4.4V29.2c0-1.5.8-2.9 2.1-3.7"/><path class="st1" d="M.2 27.6h71.3v1.7H0v-.1c0-.5.1-1.1.2-1.6z"/><path class="st2" d="M.2 41h97v3.3H4.4C2.3 44.3.7 42.9.2 41"/><path class="st3" d="M0 29.3h9v6.8H0z"/><defs><path id="SVGID_1_" d="M0 36.1h9v1.3H0z"/></defs><use xlink:href="#SVGID_1_" overflow="visible" fill="#1d4f90"/><clipPath id="SVGID_2_"><use xlink:href="#SVGID_1_" overflow="visible"/></clipPath><path class="st4" d="M0 36.1h9v1.3H0z"/><path class="st3" d="M92.7 29.3h4.5v6.8h-4.5z"/><defs><path id="SVGID_3_" d="M92.7 36.1h4.5v1.3h-4.5z"/></defs><use xlink:href="#SVGID_3_" overflow="visible" fill="#1d4f90"/><clipPath id="SVGID_4_"><use xlink:href="#SVGID_3_" overflow="visible"/></clipPath><path class="st5" d="M92.7 36.1h4.5v1.3h-4.5z"/><path class="st6" d="M60.6 4.1h26.9v15.7H60.6z"/><path class="st7" d="M60.6 19.8h26.9v1.3H60.6zm0-15.8h26.9v1.2H60.6z"/><path class="st6" d="M42.6 4.1h15v15.7h-15z"/><path class="st7" d="M42.6 19.8h15v1.3h-15zm0-15.8h15v1.2h-15z"/><path class="st6" d="M26.9 4l-8.6 15.8h20.2V4z"/><path class="st7" d="M18.3 19.8h20.2v1.3H18.3zm8-14.5l.6-1.3h11.6v1.3z"/><g class="st8"><path class="st9" d="M35 44.8c0-5.2-4.2-9.4-9.4-9.4s-9.4 4.2-9.4 9.4 4.2 9.4 9.4 9.4c5.2-.1 9.4-4.3 9.4-9.4"/><path class="st10" d="M31.1 44.8c0-3-2.5-5.5-5.5-5.5s-5.5 2.5-5.5 5.5 2.5 5.5 5.5 5.5 5.5-2.5 5.5-5.5"/><g class="st11"><circle class="st12" cx="27.5" cy="43.1" r="1"/><circle class="st12" cx="23.6" cy="43.1" r="1"/><circle class="st12" cx="27.5" cy="46.5" r="1"/><circle class="st12" cx="23.6" cy="46.5" r="1"/></g></g><g class="st8"><path class="st9" d="M87.5 44.8c0-5.2-4.2-9.4-9.4-9.4s-9.4 4.2-9.4 9.4 4.2 9.4 9.4 9.4c5.2-.1 9.4-4.3 9.4-9.4"/><path class="st10" d="M83.6 44.8c0-3-2.5-5.5-5.5-5.5s-5.5 2.5-5.5 5.5 2.5 5.5 5.5 5.5c3.1 0 5.5-2.5 5.5-5.5"/><g class="st11"><circle class="st12" cx="80.1" cy="43.1" r="1"/><circle class="st12" cx="76.2" cy="43.1" r="1"/><circle class="st12" cx="80.1" cy="46.5" r="1"/><circle class="st12" cx="76.2" cy="46.5" r="1"/></g></g></svg>