<svg id="Layer_1" xmlns="http://www.w3.org/2000/svg" xmlns:xlink="http://www.w3.org/1999/xlink" viewBox="0 0 160.5 63.3"><style>.st0{fill:#b73d65}.st1{fill:#55a7c8}.st2{fill:#450f27}.st3{fill:#fff}.st4,.st5{fill:#a9acac}.st5{clip-path:url(#SVGID_2_)}.st6{fill:#24345f}.st7{display:none}.st8{display:inline;fill:#262e32}.st9{fill:#a9acac}.st10,.st9{display:inline}.st11{fill:#848687}</style><path class="st0" d="M41.3 62.4H2.5V35.9l15.4-20h23.4z"/><path class="st1" d="M7.1 36.2h16.5V21.8h-5.3z"/><path class="st2" d="M23.6 22.7v-.9h-5.3l-.6.9z"/><path class="st1" d="M27.5 21.8h8.2v14.4h-8.2z"/><path class="st2" d="M27.5 21.8h8.2v.9h-8.2z"/><path class="st3" d="M2.5 42.3h5.8v6.4H2.5z"/><path class="st4" d="M0 59h16.3v4.3H0z"/><path class="st3" d="M44 0h116.4v62.4H44z"/><path class="st0" d="M98.7 62.4h10.4L69.9 9.3H59.5zm23.6 0L83.1 9.3h-4.9l39.2 53.1zm-18.2-41.9l-4.8.1 30.9 41.8h4.9zm28.8 21.7h-4.8L143 62.4h4.8z"/><defs><path id="SVGID_1_" d="M44 54.8h116.4v7.6H44z"/></defs><clipPath id="SVGID_2_"><use xlink:href="#SVGID_1_" overflow="visible"/></clipPath><path class="st5" d="M44 54.8h116.4v7.6H44z"/><path class="st6" d="M44 .9h116.4v2.9H44z"/><g class="st7"><path class="st8" d="M20.6 64.2c0-4.8 3.9-8.7 8.7-8.7 4.8 0 8.7 3.9 8.7 8.7 0 4.8-3.9 8.7-8.7 8.7-4.8 0-8.7-3.9-8.7-8.7"/><path class="st9" d="M24.9 64.2c0-2.4 2-4.4 4.4-4.4 2.4 0 4.4 2 4.4 4.4 0 2.4-2 4.4-4.4 4.4-2.4 0-4.4-2-4.4-4.4"/><g class="st10"><circle class="st11" cx="27.8" cy="62.8" r=".8"/><circle class="st11" cx="30.9" cy="62.8" r=".8"/><circle class="st11" cx="27.8" cy="65.6" r=".8"/><circle class="st11" cx="30.9" cy="65.6" r=".8"/></g></g><g class="st7"><path class="st8" d="M48.5 64.2c0-4.8 3.9-8.7 8.7-8.7 4.8 0 8.7 3.9 8.7 8.7 0 4.8-3.9 8.7-8.7 8.7-4.8 0-8.7-3.9-8.7-8.7"/><path class="st9" d="M52.8 64.2c0-2.4 2-4.4 4.4-4.4 2.4 0 4.4 2 4.4 4.4 0 2.4-2 4.4-4.4 4.4-2.4 0-4.4-2-4.4-4.4"/><g class="st10"><circle class="st11" cx="55.7" cy="62.8" r=".8"/><circle class="st11" cx="58.8" cy="62.8" r=".8"/><circle class="st11" cx="55.7" cy="65.6" r=".8"/><circle class="st11" cx="58.8" cy="65.6" r=".8"/></g></g><g class="st7"><path class="st8" d="M67.5 64.2c0-4.8 3.9-8.7 8.7-8.7 4.8 0 8.7 3.9 8.7 8.7 0 4.8-3.9 8.7-8.7 8.7-4.8 0-8.7-3.9-8.7-8.7"/><path class="st9" d="M71.8 64.2c0-2.4 2-4.4 4.4-4.4 2.4 0 4.4 2 4.4 4.4 0 2.4-2 4.4-4.4 4.4-2.4 0-4.4-2-4.4-4.4"/><g class="st10"><circle class="st11" cx="74.7" cy="62.8" r=".8"/><circle class="st11" cx="77.8" cy="62.8" r=".8"/><circle class="st11" cx="74.7" cy="65.6" r=".8"/><circle class="st11" cx="77.8" cy="65.6" r=".8"/></g></g><g class="st7"><path class="st8" d="M139.2 64.2c0-4.8 3.9-8.7 8.7-8.7 4.8 0 8.7 3.9 8.7 8.7 0 4.8-3.9 8.7-8.7 8.7-4.8 0-8.7-3.9-8.7-8.7"/><path class="st9" d="M143.5 64.2c0-2.4 2-4.4 4.4-4.4 2.4 0 4.4 2 4.4 4.4 0 2.4-2 4.4-4.4 4.4-2.4 0-4.4-2-4.4-4.4"/><g class="st10"><circle class="st11" cx="146.3" cy="62.8" r=".8"/><circle class="st11" cx="149.4" cy="62.8" r=".8"/><circle class="st11" cx="146.3" cy="65.6" r=".8"/><circle class="st11" cx="149.4" cy="65.6" r=".8"/></g></g><g class="st7"><path class="st8" d="M119.3 64.2c0-4.8 3.9-8.7 8.7-8.7 4.8 0 8.7 3.9 8.7 8.7 0 4.8-3.9 8.7-8.7 8.7-4.8 0-8.7-3.9-8.7-8.7"/><path class="st9" d="M123.6 64.2c0-2.4 2-4.4 4.4-4.4 2.4 0 4.4 2 4.4 4.4 0 2.4-2 4.4-4.4 4.4-2.4 0-4.4-2-4.4-4.4"/><g class="st10"><circle class="st11" cx="126.5" cy="62.8" r=".8"/><circle class="st11" cx="129.6" cy="62.8" r=".8"/><circle class="st11" cx="126.5" cy="65.6" r=".8"/><circle class="st11" cx="129.6" cy="65.6" r=".8"/></g></g></svg>