<svg id="Layer_1" xmlns="http://www.w3.org/2000/svg" viewBox="0 0 172.6 58.2"><style>.st0{opacity:.6}.st1{fill:#fff}</style><g class="st0"><path class="st1" d="M168 41.9v-1c0-7-5.7-12.7-12.7-12.7h-1v-1.4c0-14.8-12-26.9-26.8-26.9-11.4 0-21.1 7.1-25 17.1h-.8c-6.4 0-12 3.7-14.7 9.2-.5-.1-1.1-.1-1.6-.1-2.7 0-5.2.7-7.4 1.8-1.1-7.9-7.9-14-16-14-4.2 0-8.1 1.6-10.9 4.3-4.8-6.5-12.4-10.8-21-10.8-14 0-25.4 11.4-25.4 25.4 0 3 .5 5.9 1.5 8.6-3.6 1-6.2 4.3-6.2 8.3 0 4.8 3.9 8.6 8.6 8.6H164c4.8 0 8.6-3.9 8.6-8.6 0-3.5-1.9-6.3-4.6-7.8"/></g></svg>