<svg xmlns="http://www.w3.org/2000/svg" viewBox="0 0 496.8 496.8"><path d="M326.4 226c0 8.8-7.2 16.8-16.8 16.8h-124c-8.8 0-16.8-7.2-16.8-16.8V102c0-8.8 7.2-16.8 16.8-16.8h124c8.8 0 16.8 7.2 16.8 16.8v124z" fill="#c0ccc7"/><g fill="#b2bfb9"><path d="M326.4 226c0 8.8-7.2 16.8-16.8 16.8h-124c-8.8 0-16.8-7.2-16.8-16.8"/><path d="M169.6 102c0-8.8 7.2-16.8 16.8-16.8h124c8.8 0 16.8 7.2 16.8 16.8v124c0 8.8-7.2 16.8-16.8 16.8"/></g><path d="M169.6 102c0-8.8 7.2-16.8 16.8-16.8h124c8.8 0 16.8 7.2 16.8 16.8" fill="#d3ddd9"/><path d="M274.4 196.4l-23.2-36c-1.6-2.4-5.6-2.4-7.2 0l-22.4 36.8c-.8 1.6-.8 3.2 0 4 .8 1.6 2.4 2.4 4 2.4h44.8c1.6 0 3.2-.8 4-2.4.8-1.6 0-3.2 0-4.8z" fill="#5c605f"/><path d="M251.2 174.8c-1.6-2.4-5.6-2.4-7.2 0l-16.8 28h41.6l-17.6-28z" fill="#464948"/><path d="M326.4 394.8c0 8.8-7.2 16.8-16.8 16.8h-124c-8.8 0-16.8-7.2-16.8-16.8v-124c0-8.8 7.2-16.8 16.8-16.8h124c8.8 0 16.8 7.2 16.8 16.8v124z" fill="#c0ccc7"/><g fill="#b2bfb9"><path d="M326.4 394.8c0 8.8-7.2 16.8-16.8 16.8h-124c-8.8 0-16.8-7.2-16.8-16.8"/><path d="M169.6 270.8c0-8.8 7.2-16.8 16.8-16.8h124c8.8 0 16.8 7.2 16.8 16.8v124c0 8.8-7.2 16.8-16.8 16.8"/></g><path d="M169.6 270.8c0-8.8 7.2-16.8 16.8-16.8h124c8.8 0 16.8 7.2 16.8 16.8" fill="#d3ddd9"/><path d="M221.6 332.4l22.4 36.8c1.6 2.4 5.6 2.4 7.2 0l22.4-36.8c.8-1.6.8-3.2 0-4-.8-1.6-2.4-2.4-4-2.4h-44.8c-1.6 0-3.2.8-4 2.4 0 1.6.8 3.2.8 4z" fill="#5c605f"/><path d="M244.8 354c1.6 2.4 5.6 2.4 7.2 0l16.8-28h-41.6l17.6 28z" fill="#464948"/></svg>