<svg height="32" viewBox="0 0 32 32.000001" width="32" xmlns="http://www.w3.org/2000/svg"><g stroke-linecap="round" stroke-linejoin="round"><path d="M8.585 15.87l3.37 4.075c.001 0 .002 0 .003.002l.004.004a.02.02 0 0 0 .006.004.035.035 0 0 0 .011.006c.01 0 .02-.001.028-.006.004-.001.007-.004.01-.006l.002-.002 3.47-3.965 3.47 3.965.001.002.002.002.004.004a.038.038 0 0 0 .041 0 .04.04 0 0 0 .01-.008l.002-.002 3.373-4.075 3.5 4c-.158 1.953-.747 3.627-1.672 4.994H6.755c-.925-1.366-1.557-2.992-1.715-4.945z" style="line-height:normal;text-indent:0;text-align:start;text-decoration-line:none;text-decoration-style:solid;text-decoration-color:#000;text-transform:none;isolation:auto;mix-blend-mode:normal" color="#000" font-weight="400" font-family="sans-serif" white-space="normal" overflow="visible" fill="#ffd158" stroke-width=".08"/><path d="M18.99 11.84l3.47 3.964-3.471 4.195-3.57-4.078z" style="line-height:normal;text-indent:0;text-align:start;text-decoration-line:none;text-decoration-style:solid;text-decoration-color:#000;text-transform:none;isolation:auto;mix-blend-mode:normal" color="#000" font-weight="400" font-family="sans-serif" white-space="normal" overflow="visible" fill="#43b6c2" stroke-width=".08"/><path d="M11.987 11.84l3.569 4.081L11.987 20l-3.469-4.193z" style="line-height:normal;text-indent:0;text-align:start;text-decoration-line:none;text-decoration-style:solid;text-decoration-color:#000;text-transform:none;isolation:auto;mix-blend-mode:normal" color="#000" font-weight="400" font-family="sans-serif" white-space="normal" overflow="visible" fill="#43b6c2" stroke-width=".08"/><path d="M6.019 12.544l2.678 3.239-3.653 4.177a14.487 14.487 0 0 1-.014-2.056 25.21 25.21 0 0 1 .989-5.36z" style="line-height:normal;text-indent:0;text-align:start;text-decoration-line:none;text-decoration-style:solid;text-decoration-color:#000;text-transform:none;isolation:auto;mix-blend-mode:normal" color="#000" font-weight="400" font-family="sans-serif" white-space="normal" overflow="visible" fill="#43b6c2" stroke-width=".08"/><path d="M15.487 2.773c2.777 0 5.084 1.725 6.833 4.234H8.654c1.749-2.509 4.056-4.234 6.833-4.234z" style="line-height:normal;text-indent:0;text-align:start;text-decoration-line:none;text-decoration-style:solid;text-decoration-color:#000;text-transform:none;isolation:auto;mix-blend-mode:normal" color="#000" font-weight="400" font-family="sans-serif" white-space="normal" overflow="visible" fill="#ff766c" stroke-width=".08"/><path d="M8.64 6.986h13.684c.174.253.35.505.513.773.896 1.474 1.614 3.157 2.137 4.889l-2.57 3.097-3.38-3.851a.04.04 0 0 0-.007-.006.04.04 0 0 0-.01-.006.04.04 0 0 0-.021-.002.04.04 0 0 0-.018.008.04.04 0 0 0-.006.006l-3.479 3.965-3.48-3.965a.04.04 0 0 0-.007-.006.04.04 0 0 0-.01-.006.04.04 0 0 0-.021-.002.04.04 0 0 0-.018.008.04.04 0 0 0-.006.006l-3.38 3.853-2.573-3.1c.523-1.731 1.241-3.414 2.137-4.888.163-.268.34-.52.514-.773z" style="line-height:normal;text-indent:0;text-align:start;text-decoration-line:none;text-decoration-style:solid;text-decoration-color:#000;text-transform:none;isolation:auto;mix-blend-mode:normal" color="#000" font-weight="400" font-family="sans-serif" white-space="normal" overflow="visible" fill="#ffd158" stroke-width=".08"/><path d="M24.966 12.616a24.86 24.86 0 0 1 .976 5.288c.049.707.032 1.376-.014 2.026l-3.605-4.119z" style="line-height:normal;text-indent:0;text-align:start;text-decoration-line:none;text-decoration-style:solid;text-decoration-color:#000;text-transform:none;isolation:auto;mix-blend-mode:normal" color="#000" font-weight="400" font-family="sans-serif" white-space="normal" overflow="visible" fill="#43b6c2" stroke-width=".08"/><path d="M6.766 24.864c.3.43.622.84.985 1.207.268.274.523.523.808.721 2.042 1.423 4.708 2.182 6.928 2.207 2.654.03 5.056-.77 6.916-2.199.297-.23.574-.503.823-.729a9.11 9.11 0 0 0 .982-1.207z" style="line-height:normal;text-indent:0;text-align:start;text-decoration-line:none;text-decoration-style:solid;text-decoration-color:#000;text-transform:none;isolation:auto;mix-blend-mode:normal" color="#000" font-weight="400" font-family="sans-serif" white-space="normal" overflow="visible" fill="#ff766c" stroke-width=".08"/><path d="M12.487 15.919a.5.5 0 0 1-.5.5.5.5 0 0 1-.5-.5.5.5 0 0 1 .5-.5.5.5 0 0 1 .5.5zm7 0a.5.5 0 0 1-.5.5.5.5 0 0 1-.5-.5.5.5 0 0 1 .5-.5.5.5 0 0 1 .5.5zm-13.75-.499a.5.5 0 0 0-.434.25c-.02.117-.036.234-.054.35a.5.5 0 0 0 .488.4.5.5 0 0 0 .5-.5.5.5 0 0 0-.5-.5zm19.5 0a.5.5 0 0 0-.5.5.5.5 0 0 0 .5.5.5.5 0 0 0 .486-.386c-.019-.125-.037-.25-.058-.375a.5.5 0 0 0-.428-.24zm-16.25-4.501a.5.5 0 0 0-.5-.5.5.5 0 0 0-.5.5.5.5 0 0 0 .5.5.5.5 0 0 0 .5-.5zm7-1.25a.5.5 0 0 0-.5-.5.5.5 0 0 0-.5.5.5.5 0 0 0 .5.5.5.5 0 0 0 .5-.5zm7 1.25a.5.5 0 0 0-.5-.5.5.5 0 0 0-.5.5.5.5 0 0 0 .5.5.5.5 0 0 0 .5-.5zm-14 10a.5.5 0 0 1-.5.5.5.5 0 0 1-.5-.5.5.5 0 0 1 .5-.5.5.5 0 0 1 .5.5zm7 1.25a.5.5 0 0 1-.5.5.5.5 0 0 1-.5-.5.5.5 0 0 1 .5-.5.5.5 0 0 1 .5.5zm7-1.25a.5.5 0 0 1-.5.5.5.5 0 0 1-.5-.5.5.5 0 0 1 .5-.5.5.5 0 0 1 .5.5z" fill="#fff"/></g></svg>