<svg id="Layer_1" xmlns="http://www.w3.org/2000/svg" viewBox="0 0 206 238.3"><style>.st0{fill:#bb374f}.st1{fill:#396586}.st2{fill:#92d4d8}</style><path class="st0" d="M145.4 188.2l-40.1-85.4h-4.5L40.1 232H16v6.2h174V232h-24l-20.6-43.8zM45.5 232L103 109.6 160.5 232h-115z"/><path class="st1" d="M201.9 98.9h-.1c-1-24.1-10.7-46.1-26-62.7l.1-.1c1.6-1.6 1.6-4.2 0-5.8-1.6-1.6-4.2-1.6-5.8 0l-.1.1C153.3 15 131.3 5.2 107.1 4.2v-.1c0-2.3-1.8-4.1-4.1-4.1s-4.1 1.8-4.1 4.1v.1c-24.2 1-46.1 10.7-62.8 26l-.1-.1c-1.6-1.6-4.2-1.6-5.8 0-1.6 1.6-1.6 4.2 0 5.8l.1.1C14.9 52.8 5.2 74.7 4.2 98.9h-.1c-2.3 0-4.1 1.8-4.1 4.1s1.8 4.1 4.1 4.1h.1c1 24.1 10.6 46 25.9 62.6l-.1.1c-1.6 1.6-1.6 4.2 0 5.8.8.8 1.9 1.2 2.9 1.2s2.1-.4 2.9-1.2l.1-.1c16.7 15.5 38.7 25.2 63 26.2v.1c0 2.3 1.8 4.1 4.1 4.1s4.1-1.8 4.1-4.1v-.1c24.1-1 46-10.6 62.7-25.9l.1.1c.8.8 1.9 1.2 2.9 1.2s2.1-.4 2.9-1.2c1.6-1.6 1.6-4.2 0-5.8l-.1-.1c15.4-16.7 25.2-38.7 26.2-63h.1c2.3 0 4.1-1.8 4.1-4.1 0-2.1-1.8-4-4.1-4M98.9 8.3V14c0 .7.2 1.3.5 1.9-21.3.9-40.7 9.4-55.4 23-.2-.6-.5-1.2-1-1.8l-3.9-4C55 18.6 75.9 9.3 98.9 8.3m-3.2 93.3l-78.4-.8c0-.1-.1-.1-.2-.2.6-21.8 9.4-41.6 23.5-56.5.7-.1 1.4-.4 2-.9l54.2 55.6c-.4.8-.9 1.7-1.1 2.8m1.2 5.6L41.2 162c-.2-.1-.4-.1-.6-.1-13.9-14.8-22.6-34.5-23.3-56.3.4-.6.7-1.2.8-2l77.7.8c.1 1 .5 1.9 1.1 2.8M33.2 39l3.9 3.9c.5.5 1.1.8 1.7 1-13.6 14.7-22.1 34.1-23 55.5-.6-.3-1.2-.5-2-.5H8.3c1-23 10.3-44 24.9-59.9M37 162.9l-4 3.9C18.5 150.9 9.3 130 8.3 107.1H14c.7 0 1.4-.2 1.9-.5.9 21.2 9.4 40.6 22.8 55.3-.6.2-1.2.5-1.7 1m61.9 29.2v5.6c-23.1-1-44.1-10.3-60.1-25l4-3.9c.5-.5.8-1.1 1-1.8 14.7 13.7 34.2 22.3 55.6 23.2-.3.5-.5 1.2-.5 1.9m2.2-3.6c-.2.1-.3.2-.5.3-21.9-.6-41.8-9.5-56.6-23.6-.1-.6-.3-1.1-.6-1.6l55.5-54.5c.8.6 1.8 1 2.8 1.2l-.6 78.2zm.6-92.8c-1 .2-1.9.6-2.7 1.1L44.1 40.7v-.1c14.8-14 34.6-22.8 56.4-23.4.3.3.7.5 1.1.6v77.9zm5.4-81.7V8.3c23.1 1 44 10.3 60 24.9l-4 3.9c-.5.5-.8 1.1-1 1.8-14.7-13.6-34.1-22.2-55.5-23.1.3-.5.5-1.1.5-1.8m81 87.9l-77.8-.3c-.2-1-.6-2-1.2-2.8l55.2-55c.4.2.7.3 1.1.3 14 14.8 22.7 34.6 23.4 56.4-.3.5-.5.9-.7 1.4m.7 3.6c-.6 21.9-9.5 41.7-23.6 56.6-.5.1-1 .2-1.4.5l-54.7-55.3c.6-.8 1-1.8 1.2-2.8l78 .3c.2.2.3.5.5.7m-84.4-87.7c.4-.1.8-.3 1.1-.6 21.9.6 41.7 9.4 56.5 23.5.1.4.2.8.4 1.2l-55.2 55c-.8-.6-1.8-1-2.8-1.2V17.8zm1.1 171c-.5-.4-1.1-.6-1.7-.8l.5-77.7c1-.2 2-.6 2.8-1.2l54.9 55.5c-.1.3-.2.6-.2.9-14.8 14-34.5 22.7-56.3 23.3m1.6 8.9v-5.6c0-.7-.2-1.3-.5-1.9 21.3-.9 40.6-9.4 55.3-22.9.2.6.5 1.2 1 1.7l3.9 4c-15.8 14.5-36.7 23.7-59.7 24.7m65.6-30.5l-3.9-4c-.5-.5-1.1-.8-1.8-1 13.6-14.7 22.2-34.2 23.1-55.6.6.3 1.2.5 1.9.5h5.6c-.9 23.1-10.2 44.1-24.9 60.1m19.4-68.3c-.7 0-1.3.2-1.9.5-.9-21.3-9.4-40.6-22.9-55.4.6-.2 1.2-.5 1.8-1l4-3.9c14.6 15.9 23.8 36.8 24.8 59.8h-5.8z"/><path class="st0" d="M110.9 14.4h-4.3v-4.1c0-1-.8-1.7-1.7-1.7h-3.8c-1 0-1.7.8-1.7 1.7v4.1h-4.3c-1.7 0-3.1 1.4-3.1 3.1v11.1c0 1.7 1.4 3.1 3.1 3.1h15.8c1.7 0 3.1-1.4 3.1-3.1V17.5c0-1.7-1.4-3.1-3.1-3.1"/><path class="st2" d="M95.1 20.4h6.9v4.9h-6.9zm8.9 0h6.9v4.9H104z"/><path class="st0" d="M175.2 41.8h-4.3v-4.1c0-1-.8-1.7-1.7-1.7h-3.8c-1 0-1.7.8-1.7 1.7v4.1h-4.3c-1.7 0-3.1 1.4-3.1 3.1V56c0 1.7 1.4 3.1 3.1 3.1h15.8c1.7 0 3.1-1.4 3.1-3.1V44.9c0-1.7-1.4-3.1-3.1-3.1"/><path class="st2" d="M159.4 47.8h6.9v4.9h-6.9zm8.9 0h6.9v4.9h-6.9z"/><path class="st0" d="M201.9 107.3h-4.3v-4.1c0-1-.8-1.7-1.7-1.7h-3.8c-1 0-1.7.8-1.7 1.7v4.1h-4.3c-1.7 0-3.1 1.4-3.1 3.1v11.1c0 1.7 1.4 3.1 3.1 3.1h15.8c1.7 0 3.1-1.4 3.1-3.1v-11.1c0-1.7-1.4-3.1-3.1-3.1"/><path class="st2" d="M186.1 113.3h6.9v4.9h-6.9zm8.9 0h6.9v4.9H195z"/><path class="st0" d="M175.4 172h-4.3v-4.1c0-1-.8-1.7-1.7-1.7h-3.8c-1 0-1.7.8-1.7 1.7v4.1h-4.3c-1.7 0-3.1 1.4-3.1 3.1v11.1c0 1.7 1.4 3.1 3.1 3.1h15.8c1.7 0 3.1-1.4 3.1-3.1v-11.1c0-1.7-1.4-3.1-3.1-3.1"/><path class="st2" d="M159.6 177.9h6.9v4.9h-6.9zm8.9 0h6.9v4.9h-6.9z"/><path class="st0" d="M30.9 41.8h4.3v-4.1c0-1 .8-1.7 1.7-1.7h3.8c1 0 1.7.8 1.7 1.7v4.1h4.3c1.7 0 3.1 1.4 3.1 3.1V56c0 1.7-1.4 3.1-3.1 3.1H30.9c-1.7 0-3.1-1.4-3.1-3.1V44.9c0-1.7 1.3-3.1 3.1-3.1"/><path class="st2" d="M39.7 47.8h6.9v4.9h-6.9zm-8.8 0h6.9v4.9h-6.9z"/><path class="st0" d="M4.1 107.3h4.3v-4.1c0-1 .8-1.7 1.7-1.7h3.8c1 0 1.7.8 1.7 1.7v4.1h4.3c1.7 0 3.1 1.4 3.1 3.1v11.1c0 1.7-1.4 3.1-3.1 3.1H4.1c-1.7 0-3.1-1.4-3.1-3.1v-11.1c0-1.7 1.4-3.1 3.1-3.1"/><path class="st2" d="M13 113.3h6.9v4.9H13zm-8.8 0h6.9v4.9H4.2z"/><path class="st0" d="M30.6 172h4.3v-4.1c0-1 .8-1.7 1.7-1.7h3.8c1 0 1.7.8 1.7 1.7v4.1h4.3c1.7 0 3.1 1.4 3.1 3.1v11.1c0 1.7-1.4 3.1-3.1 3.1H30.6c-1.7 0-3.1-1.4-3.1-3.1v-11.1c0-1.7 1.4-3.1 3.1-3.1"/><path class="st2" d="M39.5 177.9h6.9v4.9h-6.9zm-8.9 0h6.9v4.9h-6.9z"/><path class="st0" d="M110.9 199.2h-4.3V195c0-1-.8-1.7-1.7-1.7h-3.8c-1 0-1.7.8-1.7 1.7v4.1h-4.3c-1.7 0-3.1 1.4-3.1 3.1v11.1c0 1.7 1.4 3.1 3.1 3.1h15.8c1.7 0 3.1-1.4 3.1-3.1v-11.1c0-1.6-1.4-3-3.1-3"/><path class="st2" d="M95.1 205.1h6.9v4.9h-6.9zm8.9 0h6.9v4.9H104z"/></svg>