<svg id="Layer_1" xmlns="http://www.w3.org/2000/svg" viewBox="0 0 33.4 241.9"><style>.st0{fill:#cec465}.st1{fill:#c5e6e6}.st2{fill:#9f974c}</style><path class="st0" d="M0 37.5h33.4v204.4H0z"/><path class="st1" d="M6 48.2h8.6v8.6H6zm12.8 0h8.6v8.6h-8.6zM6 88.2h8.6v8.6H6zm12.8 0h8.6v8.6h-8.6zM6 100.4h8.6v8.6H6zm12.8 0h8.6v8.6h-8.6zM6 112.6h8.6v8.6H6zm12.8 0h8.6v8.6h-8.6zM6 124.8h8.6v8.6H6zm12.8 0h8.6v8.6h-8.6zM6 137h8.6v8.6H6zm12.8 0h8.6v8.6h-8.6zM6 149.2h8.6v8.6H6zm12.8 0h8.6v8.6h-8.6zM6 161.4h8.6v8.6H6zm12.8 0h8.6v8.6h-8.6zM6 173.6h8.6v8.6H6zm12.8 0h8.6v8.6h-8.6zM6 185.8h8.6v8.6H6zm12.8 0h8.6v8.6h-8.6zM6 198h8.6v8.6H6zm12.8 0h8.6v8.6h-8.6zM6 60.9h21.4v3.3H6zm0 6.7h21.4v3.3H6zm0 6.8h21.4v3.3H6zm0 6.7h21.4v3.3H6z"/><path class="st2" d="M0 34.2h33.4v5H0z"/><path class="st2" d="M10.3 30.5h12.8v5H10.3z"/><path class="st2" d="M18.3.3l-3.9 32.3c0 .2.1.4.4.4h3.8c.2 0 .4-.2.4-.4V.4c0-.5-.7-.5-.7-.1"/></svg>