<svg id="Layer_1" xmlns="http://www.w3.org/2000/svg" viewBox="0 0 68.2 252.3"><style>.st0{fill:#f05364}.st1{fill:#9f323e}.st2{fill:#83cecd}</style><path class="st0" d="M0 43.8h68.2v208.5H0z"/><path class="st1" d="M63.1 34v-5l-29-29-29 29v5H0v9.8h68.2V34z"/><path class="st2" d="M5.8 55.7h8.6v8.6H5.8zm16 0h8.6v8.6h-8.6zm16 0h8.6v8.6h-8.6zm15.9 0h8.6v8.6h-8.6zm-47.9 13h8.6v8.6H5.8zm16 0h8.6v8.6h-8.6zm16 0h8.6v8.6h-8.6zm15.9 0h8.6v8.6h-8.6zM5.8 81.6h8.6v8.6H5.8zm16 0h8.6v8.6h-8.6zm16 0h8.6v8.6h-8.6zm15.9 0h8.6v8.6h-8.6zm-47.9 13h8.6v8.6H5.8zm16 0h8.6v8.6h-8.6zm16 0h8.6v8.6h-8.6zm15.9 0h8.6v8.6h-8.6zM5.8 107.5h8.6v8.6H5.8zm16 0h8.6v8.6h-8.6zm16 0h8.6v8.6h-8.6zm15.9 0h8.6v8.6h-8.6zm-47.9 13h8.6v8.6H5.8zm16 0h8.6v8.6h-8.6zm16 0h8.6v8.6h-8.6zm15.9 0h8.6v8.6h-8.6zM5.8 133.4h8.6v8.6H5.8zm16 0h8.6v8.6h-8.6zm16 0h8.6v8.6h-8.6zm15.9 0h8.6v8.6h-8.6zm-47.9 13h8.6v8.6H5.8zm16 0h8.6v8.6h-8.6zm16 0h8.6v8.6h-8.6zm15.9 0h8.6v8.6h-8.6zM5.8 159.3h8.6v8.6H5.8zm16 0h8.6v8.6h-8.6zm16 0h8.6v8.6h-8.6zm15.9 0h8.6v8.6h-8.6zM5.8 172.2h8.6v8.6H5.8zm16 0h8.6v8.6h-8.6zm16 0h8.6v8.6h-8.6zm15.9 0h8.6v8.6h-8.6zm-47.9 13h8.6v8.6H5.8zm16 0h8.6v8.6h-8.6zm16 0h8.6v8.6h-8.6zm15.9 0h8.6v8.6h-8.6zM5.8 198.1h8.6v8.6H5.8zm16 0h8.6v8.6h-8.6zm16 0h8.6v8.6h-8.6zm15.9 0h8.6v8.6h-8.6zm-47.9 13h8.6v8.6H5.8zm16 0h8.6v8.6h-8.6zm16 0h8.6v8.6h-8.6zm15.9 0h8.6v8.6h-8.6z"/><path class="st1" d="M16.8 226h34.5v26.3H16.8z"/></svg>