<svg id="Layer_1" xmlns="http://www.w3.org/2000/svg" viewBox="0 0 93 132.9"><style>.st0{fill:#ce72ad}.st1{fill:#a44a93}.st2{fill:#c5e6e6}.st3{opacity:.3;fill:#231f20}</style><path class="st0" d="M0 12.5h93v120.2H0z"/><path class="st1" d="M80.3 8.4V0H68.1v8.4h-7V0H31.8v8.4h-17V0H2.6v8.4H0v8.4h93V8.4z"/><path class="st2" d="M10.5 22.5H20v8.6h-9.5zm15.6 0h9.5v8.6h-9.5zm15.6 0h9.5v8.6h-9.5zm15.6 0h9.5v8.6h-9.5zm15.7 0h9.5v8.6H73zM10.5 35.6H20v8.6h-9.5zm15.6 0h9.5v8.6h-9.5zm15.6 0h9.5v8.6h-9.5zm15.6 0h9.5v8.6h-9.5zm15.7 0h9.5v8.6H73zM10.5 48.7H20v8.6h-9.5zm15.6 0h9.5v8.6h-9.5zm15.6 0h9.5v8.6h-9.5zm15.6 0h9.5v8.6h-9.5zm15.7 0h9.5v8.6H73zM10.5 61.8H20v8.6h-9.5zm15.6 0h9.5v8.6h-9.5zm15.6 0h9.5v8.6h-9.5zm15.6 0h9.5v8.6h-9.5zm15.7 0h9.5v8.6H73zM10.5 74.9H20v8.6h-9.5zm15.6 0h9.5v8.6h-9.5zm15.6 0h9.5v8.6h-9.5zm15.6 0h9.5v8.6h-9.5zm15.7 0h9.5v8.6H73zM10.5 88H20v8.6h-9.5zm15.6 0h9.5v8.6h-9.5zm15.6 0h9.5v8.6h-9.5zm15.6 0h9.5v8.6h-9.5zM73 88h9.5v8.6H73zm-62.5 13.2H20v8.6h-9.5zm15.6 0h9.5v8.6h-9.5zm15.6 0h9.5v8.6h-9.5zm15.6 0h9.5v8.6h-9.5zm15.7 0h9.5v8.6H73z"/><path class="st1" d="M29.8 117h33.3v15.7H29.8z"/><path class="st3" d="M93 8.4H81.6l-29 124.5h10.6v-.2H93zM45.4 117h2.1v15.7h-2.1z"/></svg>