<svg id="Layer_1" xmlns="http://www.w3.org/2000/svg" viewBox="0 0 62.6 236.9"><style>.st0{fill:#5fbe7b}.st1{fill:#cee5e3}.st2{fill:#368350}</style><path class="st0" d="M0 14.8h62.6v222H0z"/><path class="st1" d="M10.6 43.3h48.1v6.5H10.6zm0-11.8h48.1V38H10.6zm0 23.5h48.1v6.5H10.6zm0 11.6h48.1v6.5H10.6zm0 11.6h48.1v6.5H10.6zm0 11.7h48.1v6.5H10.6zm0 11.6h48.1v6.5H10.6zm0 11.7h48.1v6.5H10.6zm0 11.6h48.1v6.5H10.6zm0 11.6h48.1v6.5H10.6zm0 11.7h48.1v6.5H10.6zm0 11.6h48.1v6.5H10.6zm0 11.6h48.1v6.5H10.6zm0 11.7h48.1v6.5H10.6zm0 11.6h48.1v6.5H10.6z"/><path class="st2" d="M0 13h62.6v4.6H0z"/><path class="st2" d="M14.1 0h34.5v17.6H14.1zm.7 214.2h33v22.7h-33z"/></svg>