<svg id="Layer_1" xmlns="http://www.w3.org/2000/svg" viewBox="0 0 146.7 113.1"><style>.st0{fill:#8165ac}.st1{opacity:.3;fill:#231f20}.st2{fill:#c5e6e6}.st3{fill:#554372}</style><path class="st0" d="M5.5 15.3h135.6v97.8H5.5z"/><path class="st1" d="M5.5 18.2h135.7V22H5.5z"/><path class="st2" d="M21.2 29h9.2v14.1h-9.2zm19 0h9.2v14.1h-9.2zm19 0h9.2v14.1h-9.2zm19 0h9.2v14.1h-9.2zm19 0h9.2v14.1h-9.2zm19 0h9.2v14.1h-9.2z"/><path class="st3" d="M50.7 91.3H96v21.8H50.7zM126.5 0H20.2L5.5 15.3h135.7z"/><path class="st1" d="M135.7 9.6H11l-5.5 5.7h135.7z"/><path class="st2" d="M21.2 50.6h9.2v30.2h-9.2z"/><path class="st3" d="M20.1 49.2h11.4v1.6H20.1z"/><path class="st2" d="M40.2 50.6h9.2v30.2h-9.2z"/><path class="st3" d="M39.1 49.2h11.4v1.6H39.1z"/><path class="st2" d="M59.2 50.6h9.2v30.2h-9.2z"/><path class="st3" d="M58.1 49.2h11.4v1.6H58.1z"/><path class="st2" d="M78.2 50.6h9.2v30.2h-9.2z"/><path class="st3" d="M77.1 49.2h11.4v1.6H77.1z"/><path class="st2" d="M97.2 50.6h9.2v30.2h-9.2z"/><path class="st3" d="M96.1 49.2h11.4v1.6H96.1z"/><path class="st2" d="M116.2 50.6h9.2v30.2h-9.2z"/><path class="st3" d="M115.1 49.2h11.4v1.6h-11.4zm-101 31.3h118.5v5.1H14.1zM0 12.7h146.7v5.5H0z"/><path class="st1" d="M71.3 91.3h4v21.8h-4z"/></svg>