<svg id="Layer_1" xmlns="http://www.w3.org/2000/svg" viewBox="0 0 155.4 198.8"><style>.st0{fill:#67c8cf}.st1{opacity:.3;fill:#231f20}.st2{fill:#438185}.st3{fill:#cee5e3}</style><path class="st0" d="M3.9 38.4h147.5v160.4H3.9z"/><path class="st1" d="M3.9 39h147.5v3.2H3.9z"/><path class="st2" d="M142.6 28.5V0h-25.3v28.5H38V18.1H12.7v10.4H0V39h155.4V28.5z"/><path class="st3" d="M27.5 51.8h38.4v9.4H27.5zm46.9 0h7.8v9.4h-7.8zm15.2 0h7.8v9.4h-7.8zm15.2 0h7.8v9.4h-7.8zm15.3 0h7.8v9.4h-7.8zm15.2 0h7.8v9.4h-7.8zm-123 0h7.8v9.4h-7.8zm15.2 19.3h38.4v9.4H27.5zm46.9 0h7.8v9.4h-7.8zm15.2 0h7.8v9.4h-7.8zm15.2 0h7.8v9.4h-7.8zm15.3 0h7.8v9.4h-7.8zm15.2 0h7.8v9.4h-7.8zm-123 0h7.8v9.4h-7.8zm15.2 19.2h38.4v9.4H27.5zm46.9 0h7.8v9.4h-7.8zm15.2 0h7.8v9.4h-7.8zm15.2 0h7.8v9.4h-7.8zm15.3 0h7.8v9.4h-7.8zm15.2 0h7.8v9.4h-7.8zm-123 0h7.8v9.4h-7.8zm15.2 19.3h38.4v9.4H27.5zm46.9 0h7.8v9.4h-7.8zm15.2 0h7.8v9.4h-7.8zm15.2 0h7.8v9.4h-7.8zm15.3 0h7.8v9.4h-7.8zm15.2 0h7.8v9.4h-7.8zm-123 0h7.8v9.4h-7.8zm15.2 19.2h38.4v9.4H27.5zm46.9 0h7.8v9.4h-7.8zm15.2 0h7.8v9.4h-7.8zm15.2 0h7.8v9.4h-7.8zm15.3 0h7.8v9.4h-7.8zm15.2 0h7.8v9.4h-7.8zm-123 0h7.8v9.4h-7.8zm15.2 19.3h38.4v9.4H27.5zm46.9 0h7.8v9.4h-7.8zm15.2 0h7.8v9.4h-7.8zm15.2 0h7.8v9.4h-7.8zm15.3 0h7.8v9.4h-7.8zm15.2 0h7.8v9.4h-7.8zm-123 0h7.8v9.4h-7.8z"/><path class="st2" d="M51.7 170.7h51.9v28.1H51.7z"/><path class="st1" d="M74.9 170.7h5v28.1h-5z"/></svg>