<svg id="Layer_1" xmlns="http://www.w3.org/2000/svg" viewBox="0 0 113.8 149.8"><style>.st0{fill:#f79655}.st1{opacity:.1;fill:#231f20}.st2{fill:#b76e37}.st3{fill:#c5e6e6}.st4{opacity:.3;fill:#231f20}</style><path class="st0" d="M3.8 27.4h106.1v122.4H3.8z"/><path class="st1" d="M3.8 33.9h106.1v2.8H3.8z"/><path class="st2" d="M2.2 31.3h109.4v2.6H2.2zm105.2-7.5L56.9 0 27.6 21l-10.3-8.6L5.9 23.8H0v5.3h113.8v-5.3z"/><path class="st3" d="M10.8 40.6h24.8v7.7H10.8zm33.7 0h24.8v7.7H44.5zm33.6 0h24.8v7.7H78.1zM10.8 54.8h24.8v7.7H10.8zm33.7 0h24.8v7.7H44.5zm33.6 0h24.8v7.7H78.1zM10.8 69.1h24.8v7.7H10.8zm33.7 0h24.8v7.7H44.5zm33.6 0h24.8v7.7H78.1zM10.8 83.3h24.8V91H10.8zm33.7 0h24.8V91H44.5zm33.6 0h24.8V91H78.1zM10.8 97.6h24.8v7.7H10.8zm33.7 0h24.8v7.7H44.5zm33.6 0h24.8v7.7H78.1zm-67.3 14.2h24.8v7.7H10.8zm33.7 0h24.8v7.7H44.5zm33.6 0h24.8v7.7H78.1z"/><path class="st2" d="M37.1 131.1h39.5v18.6H37.1z"/><path class="st4" d="M86.6 149.8h23.3V29.1h3.9v-5.3h-6.4zm-31.5-18.7h3.6v18.4h-3.6z"/></svg>