<svg viewBox="0 0 512 512" xmlns="http://www.w3.org/2000/svg"><linearGradient gradientUnits="userSpaceOnUse" id="a" x2="512" y1="256" y2="256"><stop offset="0" stop-color="#ffca05"/><stop offset="1" stop-color="#faac18"/></linearGradient><circle cx="256" cy="256" fill="url(#a)" r="256"/><linearGradient gradientUnits="userSpaceOnUse" id="b" x1="42.667" x2="469.333" y1="256.001" y2="256.001"><stop offset="0" stop-color="#faac18"/><stop offset="1" stop-color="#ffca05"/></linearGradient><path d="M256 469.334C138.369 469.334 42.667 373.63 42.667 256c0-117.632 95.702-213.334 213.333-213.334 117.636 0 213.333 95.702 213.333 213.334 0 117.63-95.697 213.333-213.333 213.333z" fill="url(#b)"/><path d="M264 144c-66.274 0-120 53.725-120 120 0 66.274 53.726 120 120 120 66.275 0 120-53.726 120-120 0-66.275-53.725-120-120-120zm5 201.913h-10V217.92h10v127.993zm0-146.045h-10v-17.779h10v17.779z" opacity=".3"/><path d="M256 136c-66.274 0-120 53.725-120 120 0 66.274 53.726 120 120 120 66.275 0 120-53.726 120-120 0-66.275-53.725-120-120-120zm5 201.913h-10V209.92h10v127.993zm0-146.045h-10v-17.779h10v17.779z" fill="#FFF"/></svg>