<svg id="Layer_1" viewBox="0 0 1000 1000" xmlns="http://www.w3.org/2000/svg"><style>.st0{stroke-linecap:round;stroke-linejoin:round}.st0,.st1{fill:none;stroke:#fff;stroke-width:12;stroke-miterlimit:10}</style><path class="st0" d="M386 403.8c1.3-11.5 4.3-22.7 9.4-33.4 9.3-19.4 23.6-34 43-43.6 15.5-7.6 31.9-11.1 48.9-12.2 1.1-.1 2.1-.4 3.2-.5h18.9c7.4 1 14.9 1.6 22.2 3 20.2 3.7 38.4 11.7 53.3 26 15.8 15.2 24.9 34 28.2 55.6 1.1 7 1.5 14.2 1.5 21.3.1 23.4.1 46.9.1 70.3m.1 18.3c0 .7 0-.6 0 0m0 18.4v55.1c0 16.7-3 32.7-10.2 47.8-9.3 19.3-23.4 33.9-42.8 43.3-22.1 10.8-45.7 13.5-70 12.6-18.4-.7-36.3-4.1-53-12.2-22.8-11.1-38.2-28.8-47.1-52.4-4.8-12.8-6.6-26.2-6.6-39.9V426"/><path class="st1" d="M484.8 411.8c0 5.3-.1 10.6 0 16 .2 9.1 6.5 15.7 15 15.8 8.7.1 15.3-6.5 15.4-15.8.1-10.4.1-20.8 0-31.2-.1-9.1-6.5-15.7-15-15.8-8.7-.1-15.2 6.6-15.4 15.8-.1 5.1 0 10.1 0 15.2z"/></svg>