<svg viewBox="0 0 512 512" xmlns="http://www.w3.org/2000/svg"><linearGradient gradientUnits="userSpaceOnUse" id="a" x2="512" y1="256" y2="256"><stop offset="0" stop-color="#e24263"/><stop offset="1" stop-color="#dd1e47"/></linearGradient><circle cx="256" cy="256" fill="url(#a)" r="256"/><linearGradient gradientUnits="userSpaceOnUse" id="b" x1="42.667" x2="469.333" y1="256.001" y2="256.001"><stop offset="0" stop-color="#dd1e47"/><stop offset="1" stop-color="#e24263"/></linearGradient><path d="M256 469.334c-117.631 0-213.333-95.702-213.333-213.333S138.369 42.667 256 42.667c117.636 0 213.333 95.702 213.333 213.334S373.636 469.334 256 469.334z" fill="url(#b)"/><path d="M144 224.694v78.616c0 5.522 4.477 10 10 10h50.496v-98.616H154c-5.523 0-10 4.478-10 10zm70.496 95.898l78.494 57.184V150.223l-78.494 57.184zm135.676-138.378l-7.07 7.07C363.025 209.21 374 235.744 374 264c0 28.257-10.974 54.79-30.899 74.716l7.07 7.07C371.987 323.977 384 294.929 384 264.002c0-30.928-12.014-59.976-33.828-81.787z" opacity=".3"/><path d="M321.898 209.982l-7.07 7.07c25.883 25.89 25.883 68.008 0 93.897l7.07 7.07c29.785-29.785 29.785-78.252 0-108.037z" opacity=".3"/><g fill="#FFF"><path d="M136 216.694v78.616c0 5.522 4.477 10 10 10h50.496v-98.616H146c-5.523 0-10 4.478-10 10zm70.496 95.898l78.494 57.184V142.223l-78.494 57.184zm135.676-138.378l-7.07 7.07C355.025 201.21 366 227.744 366 256c0 28.257-10.974 54.79-30.899 74.716l7.07 7.07C363.987 315.977 376 286.929 376 256.002c0-30.928-12.014-59.976-33.828-81.787z"/><path d="M313.898 201.982l-7.07 7.07c25.883 25.89 25.883 68.008 0 93.897l7.07 7.07c29.785-29.785 29.785-78.252 0-108.037z"/></g></svg>