<svg viewBox="0 0 512 512" xmlns="http://www.w3.org/2000/svg"><linearGradient gradientUnits="userSpaceOnUse" id="a" x2="512" y1="256" y2="256"><stop offset="0" stop-color="#e24263"/><stop offset="1" stop-color="#dd1e47"/></linearGradient><circle cx="256" cy="256" fill="url(#a)" r="256"/><linearGradient gradientUnits="userSpaceOnUse" id="b" x1="42.667" x2="469.333" y1="256.001" y2="256.001"><stop offset="0" stop-color="#dd1e47"/><stop offset="1" stop-color="#e24263"/></linearGradient><path d="M256 469.334C138.369 469.334 42.667 373.63 42.667 256c0-117.632 95.702-213.334 213.333-213.334 117.636 0 213.333 95.702 213.333 213.334 0 117.63-95.697 213.333-213.333 213.333z" fill="url(#b)"/><path d="M144 227.137v73.729c0 5.522 4.477 10 10 10h29.797v-93.73H154c-5.523 0-10 4.478-10 10zm122.972-60.275l-73.76 50.273v93.73l73.76 50.273c6.281 4.576 15.102.089 15.102-7.683V174.544c0-7.772-8.82-12.258-15.102-7.682zM384 231.58l-7.07-7.07-32.42 32.42-32.42-32.42-7.07 7.07L337.44 264l-32.42 32.419 7.07 7.07 32.42-32.42 32.42 32.42 7.07-7.07-32.42-32.42z" opacity=".3"/><path d="M136 219.137v73.729c0 5.522 4.477 10 10 10h29.797v-93.73H146c-5.523 0-10 4.478-10 10zm122.972-60.275l-73.76 50.273v93.73l73.76 50.273c6.281 4.576 15.102.089 15.102-7.683V166.544c0-7.772-8.82-12.258-15.102-7.682zM376 223.58l-7.07-7.07-32.42 32.42-32.42-32.42-7.07 7.07L329.44 256l-32.42 32.419 7.07 7.07 32.42-32.42 32.42 32.42 7.07-7.07-32.42-32.42z" fill="#FFF"/></svg>