<svg height="45" fill="#fff" viewBox="0 0 30 45" width="30" xmlns="http://www.w3.org/2000/svg"><path d="M10 4v2.562l4-3.202V10h2V3.361l4 3.201V4l-5.002-4zM1 31a1 1 0 0 1-1-1c0-8.271 6.729-15 15-15s15 6.729 15 14.999a1 1 0 1 1-2 0C28 22.831 22.168 17 15 17S2 22.831 2 30a1 1 0 0 1-1 1"/><path d="M14.98 34.989c-6.018 0-5.127-7.31-5.127-7.31s1.027-2.315 5.127-2.315c4.102 0 5.17 2.315 5.17 2.315s.846 7.31-5.17 7.31M15 23c-6.285 0-8.113 5.678-8.113 19.004v.6A14.906 14.906 0 0 0 15 45a14.92 14.92 0 0 0 8.113-2.396v-.6C23.113 28.678 21.283 23 15 23"/></svg>