<svg xmlns="http://www.w3.org/2000/svg" width="704" height="1024" viewBox="0 0 704 1024"><title/><path fill="#666" d="M512 0H192c-35.344 0-64 28.656-64 64v896c0 35.344 28.656 64 64 64h320c35.344 0 64-28.656 64-64V64c0-35.344-28.656-64-64-64z"/><path fill="#333" d="M0 128c47.008 0 96 160 96 160h32V96H0v32zm0 288c47.008 0 96 160 96 160h32V384H0v32zm0 288c47.008 0 96 159.984 96 159.984h32v-192H0V704zM576 96v192h32s49.008-160 96-160V96H576zm0 480h32s49.008-160 96-160v-32H576v192zm0 287.984h32S657.008 704 704 704v-32.016H576v192z"/><path fill="#88c057" d="M448 799.712c0 53.072-42.981 96.096-96 96.096s-96-43.024-96-96.096 42.981-96.096 96-96.096 96 43.024 96 96.096z"/><path fill="#fc6" d="M448 511.712c0 53.072-42.981 96.096-96 96.096s-96-43.024-96-96.096 42.981-96.096 96-96.096 96 43.024 96 96.096z"/><path fill="#ed7161" d="M448 223.712c0 53.072-42.981 96.096-96 96.096s-96-43.024-96-96.096 42.981-96.096 96-96.096 96 43.024 96 96.096z"/></svg>