<svg id="Layer_1" xmlns="http://www.w3.org/2000/svg" viewBox="0 0 63.2 62.8"><style>.st0{fill:#7c6343}.st1{fill:#629d4c}</style><path class="st0" d="M31.3 14.8h4.4v48h-4.4z"/><path class="st1" d="M62.6 10c-1.5-4-5.4-6.4-9.4-6.2 0-.1-.1-.3-.1-.4-1-2.7-4-4-6.6-3-1 .4-1.8 1-2.4 1.9-2.2-1-4.8-1.1-7.2-.2-3.2 1.2-5.4 4-6 7.1-1.9-4.8-7.3-7.3-12.2-5.4-3.6 1.2-5.8 4.2-6.3 7.6-1.3-1-3.1-1.3-4.8-.6-2.7 1-4 4-3 6.6.3.9.9 1.7 1.6 2.2-1.7 1.9-2.6 4.3-2.5 6.9-.1 0-.3.1-.4.1-2.7 1-4 4-3 6.6 1 2.7 4 4 6.6 3 .9-.3 1.7-.9 2.2-1.6 1.9.9 4.2 1.2 6.4.7v.1c1.9 5 7.4 7.5 12.3 5.6 4.9-1.8 7.4-7.2 5.7-12.1 2.4 3.5 7 5 11.2 3.5 4.2-1.6 6.6-5.7 6.2-9.9 1.9.6 4 .5 6-.2 5-1.8 7.5-7.4 5.7-12.3"/></svg>