<svg id="Layer_1" xmlns="http://www.w3.org/2000/svg" viewBox="0 0 29.9 65.5"><style>.st0{fill:#7c6343}.st1{fill:#73c15e}</style><path class="st0" d="M12.8 17.5h4.4v48h-4.4z"/><path class="st1" d="M29.9 23.4c0-3.2-1.9-5.9-4.6-7.1.5-1.1.9-2.3.9-3.5 0-3.6-2.5-6.6-5.8-7.5V5c0-2.8-2.2-5-5-5s-5 2.2-5 5v.1c-3.8.5-6.7 3.8-6.7 7.7 0 1.3.3 2.5.9 3.5-2.7 1.3-4.6 4-4.6 7.1 0 3 1.7 5.6 4.2 6.9-.9 1.3-1.4 2.8-1.4 4.4 0 4.3 3.5 7.8 7.8 7.8 1.6 0 3.1-.5 4.4-1.3 1.2.8 2.7 1.3 4.4 1.3 4.3 0 7.8-3.5 7.8-7.8 0-1.7-.5-3.2-1.4-4.4 2.4-1.3 4.1-3.9 4.1-6.9m-15-3.1c-.1-.1-.1-.3-.2-.4.1 0 .1-.1.2-.1s.1.1.2.1c0 .1-.1.3-.2.4"/></svg>