<svg id="Layer_1" xmlns="http://www.w3.org/2000/svg" viewBox="0 0 17.4 17.4"><style>.st0{fill:#262e32}.st1{fill:#a9acac}.st2{fill:#848687}</style><path class="st0" d="M0 8.7C0 3.9 3.9 0 8.7 0s8.7 3.9 8.7 8.7c0 4.8-3.9 8.7-8.7 8.7S0 13.5 0 8.7"/><path class="st1" d="M4.3 8.7c0-2.4 2-4.4 4.4-4.4 2.4 0 4.4 2 4.4 4.4 0 2.4-2 4.4-4.4 4.4-2.4 0-4.4-2-4.4-4.4"/><circle class="st2" cx="7.1" cy="7.3" r=".8"/><circle class="st2" cx="10.3" cy="7.3" r=".8"/><circle class="st2" cx="7.1" cy="10.1" r=".8"/><circle class="st2" cx="10.3" cy="10.1" r=".8"/></svg>