<?xml version="1.0" encoding="utf-8"?>
<!-- Generator: Adobe Illustrator 21.1.0, SVG Export Plug-In . SVG Version: 6.00 Build 0)  -->
<svg version="1.1" id="Layer_1" xmlns="http://www.w3.org/2000/svg" xmlns:xlink="http://www.w3.org/1999/xlink" x="0px" y="0px"
	 viewBox="0 0 174 135.5" style="enable-background:new 0 0 174 135.5;" xml:space="preserve">
<style type="text/css">
	.st0{fill:#BB374F;}
	.st1{display:none;fill:#396586;}
	.st2{display:none;}
	.st3{display:inline;fill:#BB374F;}
	.st4{display:inline;fill:#92D4D8;}
</style>
<g>
	<path class="st0" d="M129.4,85.4L89.2,0h-4.5L24,129.3H0v6.2h174v-6.2h-24L129.4,85.4z M29.5,129.3L87,6.9l57.5,122.4H29.5z"/>
	<path class="st1" d="M185.9-3.8h-0.1c-1-24.1-10.7-46.1-26-62.7l0.1-0.1c1.6-1.6,1.6-4.2,0-5.8c-1.6-1.6-4.2-1.6-5.8,0l-0.1,0.1
		c-16.7-15.4-38.7-25.1-62.9-26.1v-0.1c0-2.3-1.8-4.1-4.1-4.1c-2.3,0-4.1,1.8-4.1,4.1v0.1c-24.2,1-46.1,10.7-62.8,26L20-72.6
		c-1.6-1.6-4.2-1.6-5.8,0c-1.6,1.6-1.6,4.2,0,5.8l0.1,0.1C-1.1-50-10.8-28-11.8-3.8h-0.1C-14.2-3.8-16-2-16,0.3
		c0,2.3,1.8,4.1,4.1,4.1h0.1c1,24.1,10.6,46,25.9,62.6L14,67.1c-1.6,1.6-1.6,4.2,0,5.8c0.8,0.8,1.9,1.2,2.9,1.2c1,0,2.1-0.4,2.9-1.2
		l0.1-0.1c16.7,15.5,38.7,25.2,63,26.2v0.1c0,2.3,1.8,4.1,4.1,4.1c2.3,0,4.1-1.8,4.1-4.1v-0.1c24.1-1,46-10.6,62.7-25.9l0.1,0.1
		c0.8,0.8,1.9,1.2,2.9,1.2c1,0,2.1-0.4,2.9-1.2c1.6-1.6,1.6-4.2,0-5.8l-0.1-0.1c15.4-16.7,25.2-38.7,26.2-63h0.1
		c2.3,0,4.1-1.8,4.1-4.1C190-2,188.2-3.8,185.9-3.8 M82.9-94.4v5.6c0,0.7,0.2,1.3,0.5,1.9C62.1-86,42.7-77.4,28-63.9
		c-0.2-0.6-0.5-1.2-1-1.8l-3.9-4C38.9-84.2,59.9-93.4,82.9-94.4 M79.7-1.2L1.4-2c0-0.1-0.1-0.1-0.2-0.2C1.8-24,10.6-43.8,24.7-58.7
		c0.7-0.1,1.4-0.4,2-0.9L80.9-4C80.3-3.1,79.9-2.2,79.7-1.2 M80.8,4.4L25.1,59.2c-0.2-0.1-0.4-0.1-0.6-0.1
		C10.5,44.2,1.8,24.5,1.2,2.8c0.4-0.6,0.7-1.2,0.8-2l77.7,0.8C79.9,2.6,80.3,3.6,80.8,4.4 M17.2-63.8l3.9,3.9c0.5,0.5,1.1,0.8,1.7,1
		C9.3-44.1,0.8-24.7-0.1-3.3c-0.6-0.3-1.2-0.5-2-0.5h-5.6C-6.7-26.9,2.6-47.8,17.2-63.8 M20.9,60.2l-4,3.9
		C2.5,48.2-6.7,27.3-7.7,4.4h5.6c0.7,0,1.4-0.2,1.9-0.5c0.9,21.2,9.4,40.6,22.8,55.3C22.1,59.3,21.4,59.7,20.9,60.2 M82.9,89.4V95
		c-23.1-1-44.1-10.3-60.1-25l4-3.9c0.5-0.5,0.8-1.1,1-1.8C42.5,77.9,62,86.6,83.4,87.4C83.1,88,82.9,88.7,82.9,89.4 M85,85.8
		c-0.2,0.1-0.3,0.2-0.5,0.3c-21.9-0.6-41.8-9.5-56.6-23.6c-0.1-0.6-0.3-1.1-0.6-1.6L82.8,6.4c0.8,0.6,1.8,1,2.8,1.2L85,85.8z
		 M85.6-7c-1,0.2-1.9,0.6-2.7,1.1L28.1-62c0,0,0,0,0-0.1c14.8-14,34.6-22.8,56.4-23.4c0.3,0.3,0.7,0.5,1.1,0.6V-7z M91.1-88.8v-5.6
		c23.1,1,44,10.3,60,24.9l-4,3.9c-0.5,0.5-0.8,1.1-1,1.8C131.4-77.4,112-86,90.6-86.9C90.9-87.4,91.1-88.1,91.1-88.8 M172.1-0.8
		L94.3-1.1c-0.2-1-0.6-2-1.2-2.8l55.2-55c0.4,0.2,0.7,0.3,1.1,0.3c14,14.8,22.7,34.6,23.4,56.4C172.5-1.8,172.3-1.3,172.1-0.8
		 M172.8,2.8c-0.6,21.9-9.5,41.7-23.6,56.6c-0.5,0.1-1,0.2-1.4,0.5L93.1,4.5c0.6-0.8,1-1.8,1.2-2.8l78,0.3
		C172.5,2.2,172.6,2.5,172.8,2.8 M88.4-84.9c0.4-0.1,0.8-0.3,1.1-0.6c21.9,0.6,41.7,9.4,56.5,23.5c0.1,0.4,0.2,0.8,0.4,1.2l-55.2,55
		c-0.8-0.6-1.8-1-2.8-1.2V-84.9z M89.5,86.1c-0.5-0.4-1.1-0.6-1.7-0.8l0.5-77.7c1-0.2,2-0.6,2.8-1.2L146,61.9
		c-0.1,0.3-0.2,0.6-0.2,0.9C131,76.7,111.2,85.5,89.5,86.1 M91.1,95v-5.6c0-0.7-0.2-1.3-0.5-1.9c21.3-0.9,40.6-9.4,55.3-22.9
		c0.2,0.6,0.5,1.2,1,1.7l3.9,4C135,84.8,114.1,94,91.1,95 M156.7,64.4l-3.9-4c-0.5-0.5-1.1-0.8-1.8-1c13.6-14.7,22.2-34.2,23.1-55.6
		c0.6,0.3,1.2,0.5,1.9,0.5h5.6C180.7,27.5,171.4,48.5,156.7,64.4 M176.1-3.8c-0.7,0-1.3,0.2-1.9,0.5c-0.9-21.3-9.4-40.6-22.9-55.4
		c0.6-0.2,1.2-0.5,1.8-1l4-3.9c14.6,15.9,23.8,36.8,24.8,59.8H176.1z"/>
	<g class="st2">
		<path class="st3" d="M94.9-88.3h-4.3v-4.1c0-1-0.8-1.7-1.7-1.7h-3.8c-1,0-1.7,0.8-1.7,1.7v4.1h-4.3c-1.7,0-3.1,1.4-3.1,3.1v11.1
			c0,1.7,1.4,3.1,3.1,3.1h15.8c1.7,0,3.1-1.4,3.1-3.1v-11.1C98-86.9,96.6-88.3,94.9-88.3"/>
		<rect x="79.1" y="-82.4" class="st4" width="6.9" height="4.9"/>
		<rect x="88" y="-82.4" class="st4" width="6.9" height="4.9"/>
	</g>
	<g class="st2">
		<path class="st3" d="M159.2-60.9h-4.3V-65c0-1-0.8-1.7-1.7-1.7h-3.8c-1,0-1.7,0.8-1.7,1.7v4.1h-4.3c-1.7,0-3.1,1.4-3.1,3.1v11.1
			c0,1.7,1.4,3.1,3.1,3.1h15.8c1.7,0,3.1-1.4,3.1-3.1v-11.1C162.3-59.5,160.9-60.9,159.2-60.9"/>
		<rect x="143.4" y="-55" class="st4" width="6.9" height="4.9"/>
		<rect x="152.3" y="-55" class="st4" width="6.9" height="4.9"/>
	</g>
	<g class="st2">
		<path class="st3" d="M185.9,4.6h-4.3V0.4c0-1-0.8-1.7-1.7-1.7h-3.8c-1,0-1.7,0.8-1.7,1.7v4.1h-4.3c-1.7,0-3.1,1.4-3.1,3.1v11.1
			c0,1.7,1.4,3.1,3.1,3.1h15.8c1.7,0,3.1-1.4,3.1-3.1V7.7C189,6,187.6,4.6,185.9,4.6"/>
		<rect x="170.1" y="10.5" class="st4" width="6.9" height="4.9"/>
		<rect x="179" y="10.5" class="st4" width="6.9" height="4.9"/>
	</g>
	<g class="st2">
		<path class="st3" d="M159.4,69.2h-4.3v-4.1c0-1-0.8-1.7-1.7-1.7h-3.8c-1,0-1.7,0.8-1.7,1.7v4.1h-4.3c-1.7,0-3.1,1.4-3.1,3.1v11.1
			c0,1.7,1.4,3.1,3.1,3.1h15.8c1.7,0,3.1-1.4,3.1-3.1V72.3C162.5,70.6,161.1,69.2,159.4,69.2"/>
		<rect x="143.6" y="75.2" class="st4" width="6.9" height="4.9"/>
		<rect x="152.5" y="75.2" class="st4" width="6.9" height="4.9"/>
	</g>
	<g class="st2">
		<path class="st3" d="M14.8-60.9h4.3V-65c0-1,0.8-1.7,1.7-1.7h3.8c1,0,1.7,0.8,1.7,1.7v4.1h4.3c1.7,0,3.1,1.4,3.1,3.1v11.1
			c0,1.7-1.4,3.1-3.1,3.1H14.8c-1.7,0-3.1-1.4-3.1-3.1v-11.1C11.7-59.5,13.1-60.9,14.8-60.9"/>
		<rect x="23.7" y="-55" class="st4" width="6.9" height="4.9"/>
		<rect x="14.8" y="-55" class="st4" width="6.9" height="4.9"/>
	</g>
	<g class="st2">
		<path class="st3" d="M-11.9,4.6h4.3V0.4c0-1,0.8-1.7,1.7-1.7h3.8c1,0,1.7,0.8,1.7,1.7v4.1h4.3C5.6,4.6,7,6,7,7.7v11.1
			c0,1.7-1.4,3.1-3.1,3.1h-15.8c-1.7,0-3.1-1.4-3.1-3.1V7.7C-15,6-13.6,4.6-11.9,4.6"/>
		<rect x="-3" y="10.5" class="st4" width="6.9" height="4.9"/>
		<rect x="-11.9" y="10.5" class="st4" width="6.9" height="4.9"/>
	</g>
	<g class="st2">
		<path class="st3" d="M14.6,69.2h4.3v-4.1c0-1,0.8-1.7,1.7-1.7h3.8c1,0,1.7,0.8,1.7,1.7v4.1h4.3c1.7,0,3.1,1.4,3.1,3.1v11.1
			c0,1.7-1.4,3.1-3.1,3.1H14.6c-1.7,0-3.1-1.4-3.1-3.1V72.3C11.5,70.6,12.9,69.2,14.6,69.2"/>
		<rect x="23.5" y="75.2" class="st4" width="6.9" height="4.9"/>
		<rect x="14.6" y="75.2" class="st4" width="6.9" height="4.9"/>
	</g>
	<g class="st2">
		<path class="st3" d="M94.9,96.4h-4.3v-4.1c0-1-0.8-1.7-1.7-1.7h-3.8c-1,0-1.7,0.8-1.7,1.7v4.1h-4.3c-1.7,0-3.1,1.4-3.1,3.1v11.1
			c0,1.7,1.4,3.1,3.1,3.1h15.8c1.7,0,3.1-1.4,3.1-3.1V99.5C98,97.8,96.6,96.4,94.9,96.4"/>
		<rect x="79.1" y="102.4" class="st4" width="6.9" height="4.9"/>
		<rect x="88" y="102.4" class="st4" width="6.9" height="4.9"/>
	</g>
</g>
</svg>
