<?xml version="1.0" encoding="utf-8"?>
<!-- Generator: Adobe Illustrator 21.1.0, SVG Export Plug-In . SVG Version: 6.00 Build 0)  -->
<svg version="1.1" id="Layer_1" xmlns="http://www.w3.org/2000/svg" xmlns:xlink="http://www.w3.org/1999/xlink" x="0px" y="0px"
	 viewBox="0 0 22 23.2" style="enable-background:new 0 0 22 23.2;" xml:space="preserve">
<style type="text/css">
	.st0{display:none;fill:#BB374F;}
	.st1{display:none;fill:#396586;}
	.st2{display:none;}
	.st3{display:inline;fill:#BB374F;}
	.st4{display:inline;fill:#92D4D8;}
	.st5{fill:#BB374F;}
	.st6{fill:#92D4D8;}
</style>
<path class="st0" d="M117.9,22.1L77.7-63.3h-4.5L12.5,65.9h-24v6.2h174v-6.2h-24L117.9,22.1z M18,65.9L75.5-56.5L133,65.9H18z"/>
<path class="st1" d="M174.4-67.2h-0.1c-1-24.1-10.7-46.1-26-62.7l0.1-0.1c1.6-1.6,1.6-4.2,0-5.8c-1.6-1.6-4.2-1.6-5.8,0l-0.1,0.1
	c-16.7-15.4-38.7-25.1-62.9-26.1v-0.1c0-2.3-1.8-4.1-4.1-4.1c-2.3,0-4.1,1.8-4.1,4.1v0.1c-24.2,1-46.1,10.7-62.8,26l-0.1-0.1
	c-1.6-1.6-4.2-1.6-5.8,0c-1.6,1.6-1.6,4.2,0,5.8l0.1,0.1c-15.4,16.7-25.1,38.7-26.1,62.8h-0.1c-2.3,0-4.1,1.8-4.1,4.1
	c0,2.3,1.8,4.1,4.1,4.1h0.1c1,24.1,10.6,46,25.9,62.6L2.5,3.8C0.8,5.4,0.8,8,2.4,9.6c0.8,0.8,1.9,1.2,2.9,1.2c1,0,2.1-0.4,2.9-1.2
	l0.1-0.1c16.7,15.5,38.7,25.2,63,26.2v0.1c0,2.3,1.8,4.1,4.1,4.1c2.3,0,4.1-1.8,4.1-4.1v-0.1c24.1-1,46-10.6,62.7-25.9l0.1,0.1
	c0.8,0.8,1.9,1.2,2.9,1.2c1,0,2.1-0.4,2.9-1.2c1.6-1.6,1.6-4.2,0-5.8L148.1,4c15.4-16.7,25.2-38.7,26.2-63h0.1
	c2.3,0,4.1-1.8,4.1-4.1C178.5-65.3,176.7-67.2,174.4-67.2 M71.4-157.7v5.6c0,0.7,0.2,1.3,0.5,1.9c-21.3,0.9-40.7,9.4-55.4,23
	c-0.2-0.6-0.5-1.2-1-1.8l-3.9-4C27.4-147.5,48.3-156.8,71.4-157.7 M68.2-64.5l-78.4-0.8c0-0.1-0.1-0.1-0.2-0.2
	c0.6-21.8,9.4-41.6,23.5-56.5c0.7-0.1,1.4-0.4,2-0.9l54.2,55.6C68.8-66.5,68.4-65.5,68.2-64.5 M69.3-58.9L13.6-4.2
	c-0.2-0.1-0.4-0.1-0.6-0.1C-1-19.1-9.7-38.9-10.3-60.6c0.4-0.6,0.7-1.2,0.8-2l77.7,0.8C68.4-60.7,68.8-59.8,69.3-58.9 M5.7-127.1
	l3.9,3.9c0.5,0.5,1.1,0.8,1.7,1c-13.6,14.7-22.1,34.1-23,55.5c-0.6-0.3-1.2-0.5-2-0.5h-5.6C-18.2-90.2-9-111.2,5.7-127.1 M9.4-3.2
	l-4,3.9C-9-15.1-18.2-36-19.2-58.9h5.6c0.7,0,1.4-0.2,1.9-0.5c0.9,21.2,9.4,40.6,22.8,55.3C10.5-4,9.9-3.7,9.4-3.2 M71.4,26v5.6
	c-23.1-1-44.1-10.3-60.1-25l4-3.9c0.5-0.5,0.8-1.1,1-1.8C31,14.6,50.5,23.2,71.9,24.1C71.6,24.7,71.4,25.3,71.4,26 M73.5,22.4
	c-0.2,0.1-0.3,0.2-0.5,0.3c-21.9-0.6-41.8-9.5-56.6-23.6c-0.1-0.6-0.3-1.1-0.6-1.6L71.2-57c0.8,0.6,1.8,1,2.8,1.2L73.5,22.4z
	 M74.1-70.4c-1,0.2-1.9,0.6-2.7,1.1l-54.8-56.2c0,0,0,0,0-0.1c14.8-14,34.6-22.8,56.4-23.4c0.3,0.3,0.7,0.5,1.1,0.6V-70.4z
	 M79.6-152.1v-5.6c23.1,1,44,10.3,60,24.9l-4,3.9c-0.5,0.5-0.8,1.1-1,1.8c-14.7-13.6-34.1-22.2-55.5-23.1
	C79.4-150.8,79.6-151.4,79.6-152.1 M160.6-64.1l-77.8-0.3c-0.2-1-0.6-2-1.2-2.8l55.2-55c0.4,0.2,0.7,0.3,1.1,0.3
	c14,14.8,22.7,34.6,23.4,56.4C161-65.1,160.7-64.6,160.6-64.1 M161.3-60.6c-0.6,21.9-9.5,41.7-23.6,56.6c-0.5,0.1-1,0.2-1.4,0.5
	L81.6-58.8c0.6-0.8,1-1.8,1.2-2.8l78,0.3C160.9-61.1,161.1-60.8,161.3-60.6 M76.9-148.3c0.4-0.1,0.8-0.3,1.1-0.6
	c21.9,0.6,41.7,9.4,56.5,23.5c0.1,0.4,0.2,0.8,0.4,1.2l-55.2,55c-0.8-0.6-1.8-1-2.8-1.2V-148.3z M78,22.7c-0.5-0.4-1.1-0.6-1.7-0.8
	l0.5-77.7c1-0.2,2-0.6,2.8-1.2l54.9,55.5c-0.1,0.3-0.2,0.6-0.2,0.9C119.5,13.4,99.7,22.1,78,22.7 M79.6,31.6V26
	c0-0.7-0.2-1.3-0.5-1.9c21.3-0.9,40.6-9.4,55.3-22.9c0.2,0.6,0.5,1.2,1,1.7l3.9,4C123.5,21.5,102.6,30.6,79.6,31.6 M145.2,1.1
	l-3.9-4c-0.5-0.5-1.1-0.8-1.8-1c13.6-14.7,22.2-34.2,23.1-55.6c0.6,0.3,1.2,0.5,1.9,0.5h5.6C169.2-35.8,159.9-14.9,145.2,1.1
	 M164.6-67.2c-0.7,0-1.3,0.2-1.9,0.5c-0.9-21.3-9.4-40.6-22.9-55.4c0.6-0.2,1.2-0.5,1.8-1l4-3.9c14.6,15.9,23.8,36.8,24.8,59.8
	H164.6z"/>
<g class="st2">
	<path class="st3" d="M83.4-151.7h-4.3v-4.1c0-1-0.8-1.7-1.7-1.7h-3.8c-1,0-1.7,0.8-1.7,1.7v4.1h-4.3c-1.7,0-3.1,1.4-3.1,3.1v11.1
		c0,1.7,1.4,3.1,3.1,3.1h15.8c1.7,0,3.1-1.4,3.1-3.1v-11.1C86.5-150.3,85.1-151.7,83.4-151.7"/>
	<rect x="67.6" y="-145.7" class="st4" width="6.9" height="4.9"/>
	<rect x="76.5" y="-145.7" class="st4" width="6.9" height="4.9"/>
</g>
<g class="st2">
	<path class="st3" d="M147.7-124.3h-4.3v-4.1c0-1-0.8-1.7-1.7-1.7h-3.8c-1,0-1.7,0.8-1.7,1.7v4.1h-4.3c-1.7,0-3.1,1.4-3.1,3.1v11.1
		c0,1.7,1.4,3.1,3.1,3.1h15.8c1.7,0,3.1-1.4,3.1-3.1v-11.1C150.8-122.9,149.4-124.3,147.7-124.3"/>
	<rect x="131.9" y="-118.3" class="st4" width="6.9" height="4.9"/>
	<rect x="140.8" y="-118.3" class="st4" width="6.9" height="4.9"/>
</g>
<g class="st2">
	<path class="st3" d="M174.4-58.8h-4.3v-4.1c0-1-0.8-1.7-1.7-1.7h-3.8c-1,0-1.7,0.8-1.7,1.7v4.1h-4.3c-1.7,0-3.1,1.4-3.1,3.1v11.1
		c0,1.7,1.4,3.1,3.1,3.1h15.8c1.7,0,3.1-1.4,3.1-3.1v-11.1C177.5-57.4,176.1-58.8,174.4-58.8"/>
	<rect x="158.6" y="-52.8" class="st4" width="6.9" height="4.9"/>
	<rect x="167.5" y="-52.8" class="st4" width="6.9" height="4.9"/>
</g>
<g class="st2">
	<path class="st3" d="M147.9,5.9h-4.3V1.7c0-1-0.8-1.7-1.7-1.7h-3.8c-1,0-1.7,0.8-1.7,1.7v4.1h-4.3c-1.7,0-3.1,1.4-3.1,3.1v11.1
		c0,1.7,1.4,3.1,3.1,3.1h15.8c1.7,0,3.1-1.4,3.1-3.1V9C151,7.3,149.6,5.9,147.9,5.9"/>
	<rect x="132.1" y="11.8" class="st4" width="6.9" height="4.9"/>
	<rect x="141" y="11.8" class="st4" width="6.9" height="4.9"/>
</g>
<g class="st2">
	<path class="st3" d="M3.3-124.3h4.3v-4.1c0-1,0.8-1.7,1.7-1.7h3.8c1,0,1.7,0.8,1.7,1.7v4.1h4.3c1.7,0,3.1,1.4,3.1,3.1v11.1
		c0,1.7-1.4,3.1-3.1,3.1H3.3c-1.7,0-3.1-1.4-3.1-3.1v-11.1C0.2-122.9,1.6-124.3,3.3-124.3"/>
	<rect x="12.2" y="-118.3" class="st4" width="6.9" height="4.9"/>
	<rect x="3.3" y="-118.3" class="st4" width="6.9" height="4.9"/>
</g>
<g class="st2">
	<path class="st3" d="M-23.4-58.8h4.3v-4.1c0-1,0.8-1.7,1.7-1.7h3.8c1,0,1.7,0.8,1.7,1.7v4.1h4.3c1.7,0,3.1,1.4,3.1,3.1v11.1
		c0,1.7-1.4,3.1-3.1,3.1h-15.8c-1.7,0-3.1-1.4-3.1-3.1v-11.1C-26.5-57.4-25.1-58.8-23.4-58.8"/>
	<rect x="-14.5" y="-52.8" class="st4" width="6.9" height="4.9"/>
	<rect x="-23.4" y="-52.8" class="st4" width="6.9" height="4.9"/>
</g>
<g>
	<path class="st5" d="M3.1,5.9h4.3V1.7c0-1,0.8-1.7,1.7-1.7h3.8c1,0,1.7,0.8,1.7,1.7v4.1h4.3C20.6,5.9,22,7.3,22,9v11.1
		c0,1.7-1.4,3.1-3.1,3.1H3.1c-1.7,0-3.1-1.4-3.1-3.1V9C0,7.3,1.4,5.9,3.1,5.9"/>
	<rect x="12" y="11.8" class="st6" width="6.9" height="4.9"/>
	<rect x="3.1" y="11.8" class="st6" width="6.9" height="4.9"/>
</g>
<g class="st2">
	<path class="st3" d="M83.4,33.1h-4.3v-4.1c0-1-0.8-1.7-1.7-1.7h-3.8c-1,0-1.7,0.8-1.7,1.7v4.1h-4.3c-1.7,0-3.1,1.4-3.1,3.1v11.1
		c0,1.7,1.4,3.1,3.1,3.1h15.8c1.7,0,3.1-1.4,3.1-3.1V36.2C86.5,34.5,85.1,33.1,83.4,33.1"/>
	<rect x="67.6" y="39" class="st4" width="6.9" height="4.9"/>
	<rect x="76.5" y="39" class="st4" width="6.9" height="4.9"/>
</g>
</svg>
