<?xml version="1.0" encoding="utf-8"?>
<!-- Generator: Adobe Illustrator 21.1.0, SVG Export Plug-In . SVG Version: 6.00 Build 0)  -->
<svg version="1.1" id="Layer_1" xmlns="http://www.w3.org/2000/svg" xmlns:xlink="http://www.w3.org/1999/xlink" x="0px" y="0px"
	 viewBox="0 0 121.3 62.4" style="enable-background:new 0 0 121.3 62.4;" xml:space="preserve">
<style type="text/css">
	.st0{fill:#F2B533;}
	.st1{fill:#A9ACAC;}
	.st2{fill:#E94F3D;}
	.st3{fill:#55A7C8;}
	.st4{fill:#450F27;}
	.st5{fill:#FFFFFF;}
	.st6{fill:#B73D65;}
	.st7{fill:#FBBA33;}
	.st8{fill:#24345F;}
</style>
<path class="st0" d="M82.5,62.4h38.9V35.9L108,18.6c-1.3-1.7-3.3-2.7-5.5-2.7h-20V62.4z"/>
<rect x="108.4" y="59" class="st1" width="15.3" height="4.3"/>
<g>
	<rect x="82.5" y="56.6" class="st2" width="38.9" height="2.4"/>
</g>
<g>
	<polygon class="st3" points="116.7,36.2 100.1,36.2 100.1,21.8 105.5,21.8 	"/>
	<polygon class="st4" points="100.1,22.7 100.1,21.8 105.5,21.8 106.1,22.7 	"/>
	<g>
		<rect x="100.1" y="36.2" class="st2" width="16.6" height="1.5"/>
	</g>
</g>
<g>
	<rect x="115.5" y="42.3" class="st5" width="5.8" height="6.4"/>
	<g>
		<rect x="115.5" y="48.7" class="st6" width="5.8" height="0.7"/>
	</g>
</g>
<g>
	<rect x="88.1" y="21.8" class="st3" width="8.2" height="14.4"/>
	<rect x="88.1" y="21.8" class="st4" width="8.2" height="0.9"/>
	<g>
		<rect x="88.1" y="36.2" class="st2" width="8.3" height="1.5"/>
	</g>
</g>
<rect class="st7" width="79.7" height="62.4"/>
<g>
	<rect y="54.8" class="st1" width="79.7" height="7.6"/>
</g>
<rect y="2.7" class="st8" width="79.7" height="2.9"/>
<rect y="21.8" class="st2" width="63.1" height="17.3"/>
</svg>
