<?xml version="1.0" encoding="utf-8"?>
<!-- Generator: Adobe Illustrator 21.1.0, SVG Export Plug-In . SVG Version: 6.00 Build 0)  -->
<svg version="1.1" id="Layer_1" xmlns="http://www.w3.org/2000/svg" xmlns:xlink="http://www.w3.org/1999/xlink" x="0px" y="0px"
	 viewBox="0 0 97.2 44.3" style="enable-background:new 0 0 97.2 44.3;" xml:space="preserve">
<style type="text/css">
	.st0{fill:#6DABE4;}
	.st1{fill:#1D4F90;}
	.st2{fill:#FFFFFF;}
	.st3{clip-path:url(#SVGID_2_);fill:#FF671B;}
	.st4{clip-path:url(#SVGID_4_);fill:#FF671B;}
	.st5{fill:#333E48;}
	.st6{fill:#52331E;}
</style>
<path class="st0" d="M95.1,25.5l-12.6-7.8L73.2,0.9C72.9,0.3,72.3,0,71.7,0h-64C3.4,0,0,3.4,0,7.7v36.6h92.8c2.4,0,4.4-2,4.4-4.4
	V29.2C97.2,27.7,96.4,26.3,95.1,25.5"/>
<path class="st1" d="M96.9,27.6H0v1.7h97.2v-0.1C97.2,28.7,97.1,28.1,96.9,27.6z"/>
<g>
	<path class="st1" d="M97,41H0v3.3h92.8C94.9,44.3,96.5,42.9,97,41"/>
</g>
<g>
	<rect x="88.2" y="29.3" class="st2" width="9" height="6.8"/>
	<g>
		<defs>
			<rect id="SVGID_1_" x="88.2" y="36.1" width="9" height="1.3"/>
		</defs>
		<use xlink:href="#SVGID_1_"  style="overflow:visible;fill:#1D4F90;"/>
		<clipPath id="SVGID_2_">
			<use xlink:href="#SVGID_1_"  style="overflow:visible;"/>
		</clipPath>
		<rect x="88.2" y="36.1" class="st3" width="9" height="1.3"/>
	</g>
</g>
<g>
	<rect y="29.3" class="st2" width="4.5" height="6.8"/>
	<g>
		<defs>
			<rect id="SVGID_3_" y="36.1" width="4.5" height="1.3"/>
		</defs>
		<use xlink:href="#SVGID_3_"  style="overflow:visible;fill:#1D4F90;"/>
		<clipPath id="SVGID_4_">
			<use xlink:href="#SVGID_3_"  style="overflow:visible;"/>
		</clipPath>
		<rect y="36.1" class="st4" width="4.5" height="1.3"/>
	</g>
</g>
<g>
	<rect x="9.7" y="4.1" class="st5" width="26.9" height="15.7"/>
	<g>
		<rect x="9.7" y="19.8" class="st1" width="26.9" height="1.3"/>
	</g>
	<rect x="9.7" y="4.1" class="st6" width="26.9" height="1.2"/>
</g>
<g>
	<rect x="39.6" y="4.1" class="st5" width="15" height="15.7"/>
	<g>
		<rect x="39.6" y="19.8" class="st1" width="15" height="1.3"/>
	</g>
	<rect x="39.6" y="4.1" class="st6" width="15" height="1.2"/>
</g>
<g>
	<polygon class="st5" points="70.3,4.1 78.9,19.8 58.7,19.8 58.7,4.1 	"/>
	<g>
		<rect x="58.7" y="19.8" class="st1" width="20.2" height="1.3"/>
	</g>
	<polygon class="st6" points="70.9,5.3 70.3,4.1 58.7,4.1 58.7,5.3 	"/>
</g>
</svg>
