<?xml version="1.0" encoding="utf-8"?>
<!-- Generator: Adobe Illustrator 21.1.0, SVG Export Plug-In . SVG Version: 6.00 Build 0)  -->
<svg version="1.1" id="Layer_1" xmlns="http://www.w3.org/2000/svg" xmlns:xlink="http://www.w3.org/1999/xlink" x="0px" y="0px"
	 viewBox="0 0 80.4 30.8" style="enable-background:new 0 0 80.4 30.8;" xml:space="preserve">
<style type="text/css">
	.st0{fill:#4FBC85;}
	.st1{fill:#262E32;}
	.st2{fill:#FFFFFF;}
	.st3{fill:#C5E6E6;}
	.st4{fill:#92C741;}
	.st5{display:none;}
	.st6{display:inline;fill:#262E32;}
	.st7{display:inline;fill:#A9ACAC;}
	.st8{display:inline;}
	.st9{fill:#848687;}
</style>
<g>
	<path class="st0" d="M77.7,18.7L67.1,0.1C67,0.1,67,0,66.9,0H29.5c-0.1,0-0.2,0-0.2,0.1l-11,11.8c0,0-0.1,0-0.1,0.1L0.2,20.3
		c-0.1,0-0.2,0.1-0.2,0.3v8.7c0,0.1,0.1,0.2,0.2,0.3l17.6,1.2h59.9V18.9C77.7,18.8,77.7,18.8,77.7,18.7"/>
	<rect x="77.7" y="20" class="st1" width="2.7" height="9.5"/>
	<path class="st2" d="M0,20.6v4h7.7V19H3l-2.8,1.3C0.1,20.4,0,20.5,0,20.6"/>
	<g>
		<polygon class="st3" points="27.7,1.8 18.5,11.6 26.4,11.6 31.3,1.8 		"/>
		<g>
			<path class="st4" d="M26.4,11.6h-7.9l-0.2,0.2c0,0-0.1,0-0.1,0.1l-0.8,0.4v0.5h9V11.6z"/>
		</g>
	</g>
	<g>
		<polygon class="st3" points="29.6,11.6 34.5,1.8 49.2,1.8 49.2,11.6 		"/>
		<g>
			<rect x="29.6" y="11.6" class="st4" width="19.6" height="1.2"/>
		</g>
	</g>
	<g>
		<polygon class="st3" points="65.2,1.8 70.8,11.6 52.3,11.6 52.3,1.8 		"/>
		<g>
			<rect x="52.3" y="11.6" class="st4" width="18.6" height="1.2"/>
		</g>
	</g>
	<g class="st5">
		<path class="st6" d="M68.9,31.5c0-4-3.3-7.3-7.3-7.3c-4,0-7.3,3.3-7.3,7.3c0,4,3.3,7.3,7.3,7.3C65.6,38.8,68.9,35.6,68.9,31.5"/>
		<path class="st7" d="M65.9,31.5c0-2.4-1.9-4.3-4.3-4.3c-2.4,0-4.3,1.9-4.3,4.3c0,2.4,1.9,4.3,4.3,4.3C64,35.8,65.9,33.9,65.9,31.5
			"/>
		<g class="st8">
			<circle class="st9" cx="63.1" cy="30.2" r="0.7"/>
			<circle class="st9" cx="60.1" cy="30.2" r="0.7"/>
			<circle class="st9" cx="63.1" cy="32.9" r="0.7"/>
			<circle class="st9" cx="60.1" cy="32.9" r="0.7"/>
		</g>
	</g>
	<g class="st5">
		<path class="st6" d="M31.1,31.5c0-4-3.3-7.3-7.3-7.3c-4,0-7.3,3.3-7.3,7.3c0,4,3.3,7.3,7.3,7.3C27.8,38.8,31.1,35.6,31.1,31.5"/>
		<path class="st7" d="M28,31.5c0-2.4-1.9-4.3-4.3-4.3c-2.4,0-4.3,1.9-4.3,4.3c0,2.4,1.9,4.3,4.3,4.3C26.1,35.8,28,33.9,28,31.5"/>
		<g class="st8">
			<circle class="st9" cx="25.3" cy="30.2" r="0.7"/>
			<circle class="st9" cx="22.3" cy="30.2" r="0.7"/>
			<circle class="st9" cx="25.3" cy="32.9" r="0.7"/>
			<circle class="st9" cx="22.3" cy="32.9" r="0.7"/>
		</g>
	</g>
	<rect x="75.2" y="22" class="st2" width="2.5" height="4.4"/>
</g>
</svg>
