<?xml version="1.0" encoding="utf-8"?>
<!-- Generator: Adobe Illustrator 21.1.0, SVG Export Plug-In . SVG Version: 6.00 Build 0)  -->
<svg version="1.1" id="Layer_1" xmlns="http://www.w3.org/2000/svg" xmlns:xlink="http://www.w3.org/1999/xlink" x="0px" y="0px"
	 viewBox="0 0 97.2 44.3" style="enable-background:new 0 0 97.2 44.3;" xml:space="preserve">
<style type="text/css">
	.st0{fill:#485EAA;}
	.st1{fill:#92C741;}
	.st2{fill:#1D4F90;}
	.st3{fill:#FFFFFF;}
	.st4{clip-path:url(#SVGID_2_);fill:#FF671B;}
	.st5{clip-path:url(#SVGID_4_);fill:#FF671B;}
	.st6{fill:#333E48;}
	.st7{fill:#457CBF;}
	.st8{display:none;}
	.st9{display:inline;fill:#262E32;}
	.st10{display:inline;fill:#A9ACAC;}
	.st11{display:inline;}
	.st12{fill:#848687;}
</style>
<g>
	<path class="st0" d="M2.1,25.5l12.6-7.8L24,0.9C24.3,0.3,24.9,0,25.5,0h64c4.3,0,7.7,3.4,7.7,7.7v36.6H4.4c-2.4,0-4.4-2-4.4-4.4
		V29.2C0,27.7,0.8,26.3,2.1,25.5"/>
	<path class="st1" d="M0.2,27.6h71.3v1.7H0v-0.1C0,28.7,0.1,28.1,0.2,27.6z"/>
	<g>
		<path class="st2" d="M0.2,41h97v3.3H4.4C2.3,44.3,0.7,42.9,0.2,41"/>
	</g>
	<g>
		<rect y="29.3" class="st3" width="9" height="6.8"/>
		<g>
			<defs>
				<rect id="SVGID_1_" y="36.1" width="9" height="1.3"/>
			</defs>
			<use xlink:href="#SVGID_1_"  style="overflow:visible;fill:#1D4F90;"/>
			<clipPath id="SVGID_2_">
				<use xlink:href="#SVGID_1_"  style="overflow:visible;"/>
			</clipPath>
			<rect y="36.1" class="st4" width="9" height="1.3"/>
		</g>
	</g>
	<g>
		<rect x="92.7" y="29.3" class="st3" width="4.5" height="6.8"/>
		<g>
			<defs>
				<rect id="SVGID_3_" x="92.7" y="36.1" width="4.5" height="1.3"/>
			</defs>
			<use xlink:href="#SVGID_3_"  style="overflow:visible;fill:#1D4F90;"/>
			<clipPath id="SVGID_4_">
				<use xlink:href="#SVGID_3_"  style="overflow:visible;"/>
			</clipPath>
			<rect x="92.7" y="36.1" class="st5" width="4.5" height="1.3"/>
		</g>
	</g>
	<g>
		<rect x="60.6" y="4.1" class="st6" width="26.9" height="15.7"/>
		<g>
			<rect x="60.6" y="19.8" class="st7" width="26.9" height="1.3"/>
		</g>
		<rect x="60.6" y="4" class="st7" width="26.9" height="1.2"/>
	</g>
	<g>
		<rect x="42.6" y="4.1" class="st6" width="15" height="15.7"/>
		<g>
			<rect x="42.6" y="19.8" class="st7" width="15" height="1.3"/>
		</g>
		<rect x="42.6" y="4" class="st7" width="15" height="1.2"/>
	</g>
	<g>
		<polygon class="st6" points="26.9,4 18.3,19.8 38.5,19.8 38.5,4 		"/>
		<g>
			<rect x="18.3" y="19.8" class="st7" width="20.2" height="1.3"/>
		</g>
		<polygon class="st7" points="26.3,5.3 26.9,4 38.5,4 38.5,5.3 		"/>
	</g>
	<g class="st8">
		<path class="st9" d="M35,44.8c0-5.2-4.2-9.4-9.4-9.4c-5.2,0-9.4,4.2-9.4,9.4c0,5.2,4.2,9.4,9.4,9.4C30.8,54.1,35,49.9,35,44.8"/>
		<path class="st10" d="M31.1,44.8c0-3-2.5-5.5-5.5-5.5c-3,0-5.5,2.5-5.5,5.5c0,3,2.5,5.5,5.5,5.5C28.6,50.3,31.1,47.8,31.1,44.8"/>
		<g class="st11">
			<circle class="st12" cx="27.5" cy="43.1" r="1"/>
			<circle class="st12" cx="23.6" cy="43.1" r="1"/>
			<circle class="st12" cx="27.5" cy="46.5" r="1"/>
			<circle class="st12" cx="23.6" cy="46.5" r="1"/>
		</g>
	</g>
	<g class="st8">
		<path class="st9" d="M87.5,44.8c0-5.2-4.2-9.4-9.4-9.4c-5.2,0-9.4,4.2-9.4,9.4c0,5.2,4.2,9.4,9.4,9.4
			C83.3,54.1,87.5,49.9,87.5,44.8"/>
		<path class="st10" d="M83.6,44.8c0-3-2.5-5.5-5.5-5.5c-3,0-5.5,2.5-5.5,5.5c0,3,2.5,5.5,5.5,5.5C81.2,50.3,83.6,47.8,83.6,44.8"/>
		<g class="st11">
			<circle class="st12" cx="80.1" cy="43.1" r="1"/>
			<circle class="st12" cx="76.2" cy="43.1" r="1"/>
			<circle class="st12" cx="80.1" cy="46.5" r="1"/>
			<circle class="st12" cx="76.2" cy="46.5" r="1"/>
		</g>
	</g>
</g>
</svg>
