<?xml version="1.0" encoding="utf-8"?>
<!-- Generator: Adobe Illustrator 21.1.0, SVG Export Plug-In . SVG Version: 6.00 Build 0)  -->
<svg version="1.1" id="Layer_1" xmlns="http://www.w3.org/2000/svg" xmlns:xlink="http://www.w3.org/1999/xlink" x="0px" y="0px"
	 viewBox="0 0 160.5 63.3" style="enable-background:new 0 0 160.5 63.3;" xml:space="preserve">
<style type="text/css">
	.st0{fill:#B73D65;}
	.st1{fill:#55A7C8;}
	.st2{fill:#450F27;}
	.st3{fill:#FFFFFF;}
	.st4{fill:#A9ACAC;}
	.st5{clip-path:url(#SVGID_2_);fill:#A9ACAC;}
	.st6{fill:#24345F;}
	.st7{display:none;}
	.st8{display:inline;fill:#262E32;}
	.st9{display:inline;fill:#A9ACAC;}
	.st10{display:inline;}
	.st11{fill:#848687;}
</style>
<g>
	<g>
		<polygon class="st0" points="41.3,62.4 2.5,62.4 2.5,35.9 17.9,15.9 41.3,15.9 		"/>
		<g>
			<polygon class="st1" points="7.1,36.2 23.6,36.2 23.6,21.8 18.3,21.8 			"/>
			<polygon class="st2" points="23.6,22.7 23.6,21.8 18.3,21.8 17.7,22.7 			"/>
		</g>
		<g>
			<rect x="27.5" y="21.8" class="st1" width="8.2" height="14.4"/>
			<rect x="27.5" y="21.8" class="st2" width="8.2" height="0.9"/>
		</g>
		<rect x="2.5" y="42.3" class="st3" width="5.8" height="6.4"/>
		<rect y="59" class="st4" width="16.3" height="4.3"/>
	</g>
	<g>
		<rect x="44" class="st3" width="116.4" height="62.4"/>
		<polygon class="st0" points="98.7,62.4 109.1,62.4 69.9,9.3 59.5,9.3 		"/>
		<polygon class="st0" points="122.3,62.4 83.1,9.3 78.2,9.3 117.4,62.4 		"/>
		<polygon class="st0" points="104.1,20.5 99.3,20.6 130.2,62.4 135.1,62.4 		"/>
		<polygon class="st0" points="132.9,42.2 128.1,42.2 143,62.4 147.8,62.4 		"/>
		<g>
			<defs>
				<rect id="SVGID_1_" x="44" y="54.8" width="116.4" height="7.6"/>
			</defs>
			<clipPath id="SVGID_2_">
				<use xlink:href="#SVGID_1_"  style="overflow:visible;"/>
			</clipPath>
			<rect x="44" y="54.8" class="st5" width="116.4" height="7.6"/>
		</g>
		<rect x="44" y="0.9" class="st6" width="116.4" height="2.9"/>
	</g>
	<g class="st7">
		<path class="st8" d="M20.6,64.2c0-4.8,3.9-8.7,8.7-8.7c4.8,0,8.7,3.9,8.7,8.7c0,4.8-3.9,8.7-8.7,8.7C24.5,72.9,20.6,69,20.6,64.2"
			/>
		<path class="st9" d="M24.9,64.2c0-2.4,2-4.4,4.4-4.4c2.4,0,4.4,2,4.4,4.4c0,2.4-2,4.4-4.4,4.4C26.9,68.6,24.9,66.6,24.9,64.2"/>
		<g class="st10">
			<circle class="st11" cx="27.8" cy="62.8" r="0.8"/>
			<circle class="st11" cx="30.9" cy="62.8" r="0.8"/>
			<circle class="st11" cx="27.8" cy="65.6" r="0.8"/>
			<circle class="st11" cx="30.9" cy="65.6" r="0.8"/>
		</g>
	</g>
	<g class="st7">
		<path class="st8" d="M48.5,64.2c0-4.8,3.9-8.7,8.7-8.7c4.8,0,8.7,3.9,8.7,8.7c0,4.8-3.9,8.7-8.7,8.7C52.4,72.9,48.5,69,48.5,64.2"
			/>
		<path class="st9" d="M52.8,64.2c0-2.4,2-4.4,4.4-4.4c2.4,0,4.4,2,4.4,4.4c0,2.4-2,4.4-4.4,4.4C54.8,68.6,52.8,66.6,52.8,64.2"/>
		<g class="st10">
			<circle class="st11" cx="55.7" cy="62.8" r="0.8"/>
			<circle class="st11" cx="58.8" cy="62.8" r="0.8"/>
			<circle class="st11" cx="55.7" cy="65.6" r="0.8"/>
			<circle class="st11" cx="58.8" cy="65.6" r="0.8"/>
		</g>
	</g>
	<g class="st7">
		<path class="st8" d="M67.5,64.2c0-4.8,3.9-8.7,8.7-8.7c4.8,0,8.7,3.9,8.7,8.7c0,4.8-3.9,8.7-8.7,8.7C71.4,72.9,67.5,69,67.5,64.2"
			/>
		<path class="st9" d="M71.8,64.2c0-2.4,2-4.4,4.4-4.4c2.4,0,4.4,2,4.4,4.4c0,2.4-2,4.4-4.4,4.4C73.8,68.6,71.8,66.6,71.8,64.2"/>
		<g class="st10">
			<circle class="st11" cx="74.7" cy="62.8" r="0.8"/>
			<circle class="st11" cx="77.8" cy="62.8" r="0.8"/>
			<circle class="st11" cx="74.7" cy="65.6" r="0.8"/>
			<circle class="st11" cx="77.8" cy="65.6" r="0.8"/>
		</g>
	</g>
	<g class="st7">
		<path class="st8" d="M139.2,64.2c0-4.8,3.9-8.7,8.7-8.7c4.8,0,8.7,3.9,8.7,8.7c0,4.8-3.9,8.7-8.7,8.7
			C143.1,72.9,139.2,69,139.2,64.2"/>
		<path class="st9" d="M143.5,64.2c0-2.4,2-4.4,4.4-4.4c2.4,0,4.4,2,4.4,4.4c0,2.4-2,4.4-4.4,4.4C145.5,68.6,143.5,66.6,143.5,64.2"
			/>
		<g class="st10">
			<circle class="st11" cx="146.3" cy="62.8" r="0.8"/>
			<circle class="st11" cx="149.4" cy="62.8" r="0.8"/>
			<circle class="st11" cx="146.3" cy="65.6" r="0.8"/>
			<circle class="st11" cx="149.4" cy="65.6" r="0.8"/>
		</g>
	</g>
	<g class="st7">
		<path class="st8" d="M119.3,64.2c0-4.8,3.9-8.7,8.7-8.7c4.8,0,8.7,3.9,8.7,8.7c0,4.8-3.9,8.7-8.7,8.7
			C123.2,72.9,119.3,69,119.3,64.2"/>
		<path class="st9" d="M123.6,64.2c0-2.4,2-4.4,4.4-4.4c2.4,0,4.4,2,4.4,4.4c0,2.4-2,4.4-4.4,4.4C125.6,68.6,123.6,66.6,123.6,64.2"
			/>
		<g class="st10">
			<circle class="st11" cx="126.5" cy="62.8" r="0.8"/>
			<circle class="st11" cx="129.6" cy="62.8" r="0.8"/>
			<circle class="st11" cx="126.5" cy="65.6" r="0.8"/>
			<circle class="st11" cx="129.6" cy="65.6" r="0.8"/>
		</g>
	</g>
</g>
</svg>
