<?xml version="1.0" encoding="utf-8"?>
<!-- Generator: Adobe Illustrator 21.1.0, SVG Export Plug-In . SVG Version: 6.00 Build 0)  -->
<svg version="1.1" id="Layer_1" xmlns="http://www.w3.org/2000/svg" xmlns:xlink="http://www.w3.org/1999/xlink" x="0px" y="0px"
	 viewBox="0 0 57.1 28.7" style="enable-background:new 0 0 57.1 28.7;" xml:space="preserve">
<style type="text/css">
	.st0{opacity:0.4;}
	.st1{fill:#FFFFFF;}
</style>
<g class="st0">
	<path class="st1" d="M6.2,16.4h1.7c-0.3-0.8-0.4-1.6-0.4-2.5c0-4.4,3.6-8,8-8c0.8,0,1.6,0.1,2.3,0.3C20.2,2.5,24.5,0,29.3,0
		c6.4,0,11.8,4.4,13.4,10.3c3.3,0.4,5.9,2.9,6.7,6h1.5c3.4,0,6.2,2.8,6.2,6.2c0,3.4-2.8,6.2-6.2,6.2H6.2c-3.4,0-6.2-2.8-6.2-6.2
		C0,19.1,2.8,16.4,6.2,16.4"/>
</g>
</svg>
