<?xml version="1.0" encoding="utf-8"?>
<!-- Generator: Adobe Illustrator 21.1.0, SVG Export Plug-In . SVG Version: 6.00 Build 0)  -->
<svg version="1.1" id="Layer_1" xmlns="http://www.w3.org/2000/svg" xmlns:xlink="http://www.w3.org/1999/xlink" x="0px" y="0px"
	 viewBox="0 0 67.4 27.1" style="enable-background:new 0 0 67.4 27.1;" xml:space="preserve">
<style type="text/css">
	.st0{opacity:0.6;}
	.st1{fill:#FFFFFF;}
</style>
<g class="st0">
	<path class="st1" d="M61.1,14.5h-3.6c-1-4.1-4.7-7.2-9.1-7.2c-1.8,0-3.5,0.5-4.9,1.4C41.5,5.3,37.9,3,33.7,3
		c-2.6,0-4.9,0.9-6.8,2.4C24.9,2.1,21.4,0,17.4,0C11.2,0,6.3,5,6.3,11.1c0,1.2,0.2,2.3,0.5,3.4H6.3c-3.5,0-6.3,2.8-6.3,6.3
		c0,3.5,2.8,6.3,6.3,6.3h54.8c3.5,0,6.3-2.8,6.3-6.3C67.4,17.3,64.5,14.5,61.1,14.5"/>
</g>
</svg>
