<?xml version="1.0" encoding="utf-8"?>
<!-- Generator: Adobe Illustrator 21.1.0, SVG Export Plug-In . SVG Version: 6.00 Build 0)  -->
<svg version="1.1" id="Layer_1" xmlns="http://www.w3.org/2000/svg" xmlns:xlink="http://www.w3.org/1999/xlink" x="0px" y="0px"
	 viewBox="0 0 146.7 61.3" style="enable-background:new 0 0 146.7 61.3;" xml:space="preserve">
<style type="text/css">
	.st0{opacity:0.8;}
	.st1{fill:#FFFFFF;}
</style>
<g class="st0">
	<path class="st1" d="M133,34h-7.6c-1-7.9-7.7-14-15.9-14c-4.6,0-8.7,1.9-11.6,5C95.7,10.8,83.5,0,68.7,0c-13,0-24,8.4-28,20
		c-0.5,0-1.1-0.1-1.6-0.1c-8.9,0-16.4,5.9-18.8,14h-6.6C6.1,34,0,40.1,0,47.6c0,7.5,6.1,13.7,13.7,13.7H133
		c7.5,0,13.7-6.1,13.7-13.7C146.7,40.1,140.6,34,133,34"/>
</g>
</svg>
