<?xml version="1.0" encoding="utf-8"?>
<!-- Generator: Adobe Illustrator 21.1.0, SVG Export Plug-In . SVG Version: 6.00 Build 0)  -->
<svg version="1.1" id="Layer_1" xmlns="http://www.w3.org/2000/svg" xmlns:xlink="http://www.w3.org/1999/xlink" x="0px" y="0px"
	 viewBox="0 0 122.7 61.9" style="enable-background:new 0 0 122.7 61.9;" xml:space="preserve">
<style type="text/css">
	.st0{opacity:0.5;}
	.st1{fill:#FFFFFF;}
</style>
<g class="st0">
	<path class="st1" d="M109.4,35.4h-6.1c-2.1-9.7-10.8-17-21.2-17c0,0,0,0-0.1,0C79.7,7.8,70.3,0,59.1,0C48.4,0,39.4,7.2,36.6,17
		c-2.5-1.4-5.5-2.2-8.6-2.2c-9.7,0-17.5,7.8-17.5,17.5c0,1.2,0.1,2.3,0.3,3.4C4.7,36.7,0,42.1,0,48.6c0,7.3,5.9,13.2,13.2,13.2h96.2
		c7.3,0,13.3-5.9,13.3-13.2C122.7,41.3,116.7,35.4,109.4,35.4"/>
</g>
</svg>
