<?xml version="1.0" encoding="utf-8"?>
<!-- Generator: Adobe Illustrator 21.1.0, SVG Export Plug-In . SVG Version: 6.00 Build 0)  -->
<svg version="1.1" id="Layer_1" xmlns="http://www.w3.org/2000/svg" xmlns:xlink="http://www.w3.org/1999/xlink" x="0px" y="0px"
	 viewBox="0 0 76.6 25.8" style="enable-background:new 0 0 76.6 25.8;" xml:space="preserve">
<style type="text/css">
	.st0{fill:#FFFFFF;}
</style>
<g>
	<path class="st0" d="M74.5,18.6c0-0.1,0-0.3,0-0.4c0-3.1-2.5-5.6-5.6-5.6c-0.2,0-0.3,0-0.5,0c0-0.2,0-0.4,0-0.6
		C68.4,5.3,63.1,0,56.5,0c-5.1,0-9.4,3.1-11.1,7.6c-0.1,0-0.2,0-0.4,0c-2.9,0-5.3,1.7-6.5,4.1c-0.2,0-0.5,0-0.7,0
		c-1.2,0-2.3,0.3-3.3,0.8c-0.5-3.5-3.5-6.2-7.1-6.2c-1.9,0-3.6,0.7-4.9,1.9c-2-2.9-5.4-4.8-9.2-4.8c-6.2,0-11.2,5-11.2,11.2
		c0,1.3,0.2,2.6,0.7,3.8C1.2,18.8,0,20.2,0,22c0,2.1,1.7,3.8,3.8,3.8h68.9c2.1,0,3.8-1.7,3.8-3.8C76.6,20.5,75.7,19.2,74.5,18.6"/>
</g>
</svg>
