<?xml version="1.0" encoding="utf-8"?>
<!-- Generator: Adobe Illustrator 21.1.0, SVG Export Plug-In . SVG Version: 6.00 Build 0)  -->
<svg version="1.1" id="Layer_1" xmlns="http://www.w3.org/2000/svg" xmlns:xlink="http://www.w3.org/1999/xlink" x="0px" y="0px"
	 viewBox="0 0 62.1 31.3" style="enable-background:new 0 0 62.1 31.3;" xml:space="preserve">
<style type="text/css">
	.st0{opacity:0.7;}
	.st1{fill:#FFFFFF;}
</style>
<g class="st0">
	<path class="st1" d="M55.4,17.9h-3.1c-1.1-4.9-5.5-8.6-10.7-8.6c0,0,0,0,0,0C40.4,4,35.6,0,30,0c-5.4,0-10,3.6-11.4,8.6
		c-1.3-0.7-2.8-1.1-4.3-1.1c-4.9,0-8.9,4-8.9,8.9c0,0.6,0.1,1.2,0.2,1.7C2.4,18.6,0,21.3,0,24.6c0,3.7,3,6.7,6.7,6.7h48.7
		c3.7,0,6.7-3,6.7-6.7C62.1,20.9,59.1,17.9,55.4,17.9"/>
</g>
</svg>
