<?xml version="1.0" encoding="utf-8"?>
<!-- Generator: Adobe Illustrator 21.1.0, SVG Export Plug-In . SVG Version: 6.00 Build 0)  -->
<svg version="1.1" id="Layer_1" xmlns="http://www.w3.org/2000/svg" xmlns:xlink="http://www.w3.org/1999/xlink" x="0px" y="0px"
	 viewBox="0 0 83.5 38.6" style="enable-background:new 0 0 83.5 38.6;" xml:space="preserve">
<style type="text/css">
	.st0{opacity:0.7;}
	.st1{fill:#FFFFFF;}
</style>
<g class="st0">
	<path class="st1" d="M5.7,27.2H11c0.1-6.3,5.2-11.4,11.5-11.4c3.4,0,6.4,1.5,8.5,3.8c0.7-7.4,6.9-13.2,14.5-13.2
		c1.4,0,2.7,0.2,4,0.6c3.4-4.3,8.6-7,14.5-7c10.2,0,18.5,8.3,18.5,18.5c0,3.3-0.9,6.5-2.4,9.2c2,0.9,3.4,2.9,3.4,5.2
		c0,3.1-2.5,5.7-5.7,5.7H5.7C2.5,38.6,0,36,0,32.9S2.5,27.2,5.7,27.2"/>
</g>
</svg>
