<?xml version="1.0" encoding="utf-8"?>
<!-- Generator: Adobe Illustrator 21.1.0, SVG Export Plug-In . SVG Version: 6.00 Build 0)  -->
<svg version="1.1" id="Layer_1" xmlns="http://www.w3.org/2000/svg" xmlns:xlink="http://www.w3.org/1999/xlink" x="0px" y="0px"
	 viewBox="0 0 57.1 28.7" style="enable-background:new 0 0 57.1 28.7;" xml:space="preserve">
<style type="text/css">
	.st0{opacity:0.6;}
	.st1{fill:#FFFFFF;}
</style>
<g class="st0">
	<path class="st1" d="M50.9,16.4h-1.7c0.3-0.8,0.4-1.6,0.4-2.5c0-4.4-3.6-8-8-8c-0.8,0-1.6,0.1-2.3,0.3C36.9,2.5,32.6,0,27.8,0
		C21.4,0,16,4.4,14.4,10.3c-3.3,0.4-5.9,2.9-6.7,6H6.2c-3.4,0-6.2,2.8-6.2,6.2c0,3.4,2.8,6.2,6.2,6.2h44.8c3.4,0,6.2-2.8,6.2-6.2
		C57.1,19.1,54.3,16.4,50.9,16.4"/>
</g>
</svg>
