<?xml version="1.0" encoding="utf-8"?>
<!-- Generator: Adobe Illustrator 21.1.0, SVG Export Plug-In . SVG Version: 6.00 Build 0)  -->
<svg version="1.1" id="Layer_1" xmlns="http://www.w3.org/2000/svg" xmlns:xlink="http://www.w3.org/1999/xlink" x="0px" y="0px"
	 viewBox="0 0 94.8 47.7" style="enable-background:new 0 0 94.8 47.7;" xml:space="preserve">
<style type="text/css">
	.st0{opacity:0.7;}
	.st1{fill:#FFFFFF;}
</style>
<g class="st0">
	<path class="st1" d="M88.9,28.1c-0.7-8.6-7.8-15.3-16.6-15.3c-0.2,0-0.4,0-0.7,0c-2-6.9-8.4-12-16-12c-4.9,0-9.2,2.1-12.3,5.4
		C39.3,2.4,33.7,0,27.6,0c-12.7,0-23,10.3-23,23c0,1.9,0.2,3.7,0.7,5.5c-3.1,1.7-5.3,5.1-5.3,9c0,5.7,4.6,10.2,10.2,10.2h74.3
		c5.7,0,10.2-4.6,10.2-10.2C94.8,33.3,92.4,29.8,88.9,28.1"/>
</g>
</svg>
