<?xml version="1.0" encoding="utf-8"?>
<!-- Generator: Adobe Illustrator 21.1.0, SVG Export Plug-In . SVG Version: 6.00 Build 0)  -->
<svg version="1.1" id="Layer_1" xmlns="http://www.w3.org/2000/svg" xmlns:xlink="http://www.w3.org/1999/xlink" x="0px" y="0px"
	 viewBox="0 0 67.4 28.1" style="enable-background:new 0 0 67.4 28.1;" xml:space="preserve">
<style type="text/css">
	.st0{fill:#FFFFFF;}
</style>
<g>
	<path class="st0" d="M6.3,15.6h3.5c0.4-3.6,3.5-6.4,7.3-6.4c2.1,0,4,0.9,5.3,2.3C23.4,5,29,0,35.8,0c6,0,11,3.8,12.9,9.2
		c0.2,0,0.5,0,0.7,0c4.1,0,7.5,2.7,8.6,6.4h3c3.5,0,6.3,2.8,6.3,6.3c0,3.5-2.8,6.3-6.3,6.3H6.3c-3.5,0-6.3-2.8-6.3-6.3
		C0,18.4,2.8,15.6,6.3,15.6"/>
</g>
</svg>
