<?xml version="1.0" encoding="utf-8"?>
<!-- Generator: Adobe Illustrator 21.1.0, SVG Export Plug-In . SVG Version: 6.00 Build 0)  -->
<svg version="1.1" id="Layer_1" xmlns="http://www.w3.org/2000/svg" xmlns:xlink="http://www.w3.org/1999/xlink" x="0px" y="0px"
	 viewBox="0 0 118.2 59.4" style="enable-background:new 0 0 118.2 59.4;" xml:space="preserve">
<style type="text/css">
	.st0{opacity:0.6;}
	.st1{fill:#FFFFFF;}
</style>
<g class="st0">
	<path class="st1" d="M110.7,35.1C109.9,24.4,101,16,90.1,16c-0.3,0-0.5,0-0.8,0C86.8,7.4,78.8,1,69.4,1c-6.1,0-11.5,2.6-15.3,6.8
		C49,3,42,0,34.4,0C18.6,0,5.7,12.8,5.7,28.7c0,2.4,0.3,4.6,0.8,6.8C2.7,37.7,0,41.9,0,46.7c0,7.1,5.7,12.8,12.8,12.8h92.6
		c7.1,0,12.8-5.7,12.8-12.8C118.2,41.5,115.1,37.1,110.7,35.1"/>
</g>
</svg>
