<?xml version="1.0" encoding="utf-8"?>
<!-- Generator: Adobe Illustrator 21.1.0, SVG Export Plug-In . SVG Version: 6.00 Build 0)  -->
<svg version="1.1" id="Layer_1" xmlns="http://www.w3.org/2000/svg" xmlns:xlink="http://www.w3.org/1999/xlink" x="0px" y="0px"
	 viewBox="0 0 172.6 58.2" style="enable-background:new 0 0 172.6 58.2;" xml:space="preserve">
<style type="text/css">
	.st0{opacity:0.6;}
	.st1{fill:#FFFFFF;}
</style>
<g class="st0">
	<path class="st1" d="M168,41.9c0-0.3,0-0.6,0-1c0-7-5.7-12.7-12.7-12.7c-0.4,0-0.7,0-1,0c0-0.5,0-1,0-1.4c0-14.8-12-26.9-26.8-26.9
		c-11.4,0-21.1,7.1-25,17.1c-0.3,0-0.5,0-0.8,0c-6.4,0-12,3.7-14.7,9.2c-0.5-0.1-1.1-0.1-1.6-0.1c-2.7,0-5.2,0.7-7.4,1.8
		c-1.1-7.9-7.9-14-16-14c-4.2,0-8.1,1.6-10.9,4.3C46.3,11.7,38.7,7.4,30.1,7.4c-14,0-25.4,11.4-25.4,25.4c0,3,0.5,5.9,1.5,8.6
		c-3.6,1-6.2,4.3-6.2,8.3c0,4.8,3.9,8.6,8.6,8.6H164c4.8,0,8.6-3.9,8.6-8.6C172.6,46.2,170.7,43.4,168,41.9"/>
</g>
</svg>
