<?xml version="1.0" encoding="utf-8"?>
<!-- Generator: Adobe Illustrator 21.1.0, SVG Export Plug-In . SVG Version: 6.00 Build 0)  -->
<svg version="1.1" id="Layer_1" xmlns="http://www.w3.org/2000/svg" xmlns:xlink="http://www.w3.org/1999/xlink" x="0px" y="0px"
	 viewBox="0 0 142.5 71.6" style="enable-background:new 0 0 142.5 71.6;" xml:space="preserve">
<style type="text/css">
	.st0{opacity:0.7;}
	.st1{fill:#FFFFFF;}
</style>
<g class="st0">
	<path class="st1" d="M127.1,40.8h-4.2c0.6-2,1-4.1,1-6.2c0-11-8.9-20-20-20c-2,0-3.9,0.3-5.8,0.8C92,6.1,81.4,0,69.4,0
		C53.3,0,39.8,11,35.9,25.8c-8.2,1.1-14.8,7.1-16.8,15h-3.8C6.9,40.8,0,47.7,0,56.2c0,8.5,6.9,15.4,15.4,15.4h111.7
		c8.5,0,15.4-6.9,15.4-15.4C142.5,47.7,135.6,40.8,127.1,40.8"/>
</g>
</svg>
