<?xml version="1.0" encoding="utf-8"?>
<!-- Generator: Adobe Illustrator 21.1.0, SVG Export Plug-In . SVG Version: 6.00 Build 0)  -->
<svg version="1.1" id="Layer_1" xmlns="http://www.w3.org/2000/svg" xmlns:xlink="http://www.w3.org/1999/xlink" x="0px" y="0px"
	 viewBox="0 0 76.6 25.8" style="enable-background:new 0 0 76.6 25.8;" xml:space="preserve">
<style type="text/css">
	.st0{opacity:0.5;fill:#FFFFFF;}
</style>
<g>
	<path class="st0" d="M2.1,18.6c0-0.1,0-0.3,0-0.4c0-3.1,2.5-5.6,5.6-5.6c0.2,0,0.3,0,0.5,0c0-0.2,0-0.4,0-0.6C8.1,5.3,13.5,0,20,0
		c5.1,0,9.4,3.1,11.1,7.6c0.1,0,0.2,0,0.4,0c2.9,0,5.3,1.7,6.5,4.1c0.2,0,0.5,0,0.7,0c1.2,0,2.3,0.3,3.3,0.8
		c0.5-3.5,3.5-6.2,7.1-6.2c1.9,0,3.6,0.7,4.9,1.9c2-2.9,5.4-4.8,9.2-4.8c6.2,0,11.2,5,11.2,11.2c0,1.3-0.2,2.6-0.7,3.8
		c1.6,0.5,2.8,1.9,2.8,3.7c0,2.1-1.7,3.8-3.8,3.8H3.8C1.7,25.8,0,24.1,0,22C0,20.5,0.8,19.2,2.1,18.6"/>
</g>
</svg>
