<?xml version="1.0" encoding="utf-8"?>
<!-- Generator: Adobe Illustrator 21.1.0, SVG Export Plug-In . SVG Version: 6.00 Build 0)  -->
<svg version="1.1" id="Layer_1" xmlns="http://www.w3.org/2000/svg" xmlns:xlink="http://www.w3.org/1999/xlink" x="0px" y="0px"
	 viewBox="0 0 94.9 32" style="enable-background:new 0 0 94.9 32;" xml:space="preserve">
<style type="text/css">
	.st0{opacity:0.6;}
	.st1{fill:#FFFFFF;}
</style>
<g class="st0">
	<path class="st1" d="M92.3,23c0-0.2,0-0.3,0-0.5c0-3.9-3.1-7-7-7c-0.2,0-0.4,0-0.6,0c0-0.3,0-0.5,0-0.8C84.8,6.6,78.2,0,70,0
		c-6.3,0-11.6,3.9-13.8,9.4c-0.1,0-0.3,0-0.4,0c-3.5,0-6.6,2.1-8.1,5c-0.3,0-0.6,0-0.9,0c-1.5,0-2.9,0.4-4.1,1
		c-0.6-4.3-4.3-7.7-8.8-7.7c-2.3,0-4.4,0.9-6,2.3c-2.5-3.6-6.7-6-11.5-6C8.8,4.1,2.6,10.3,2.6,18c0,1.7,0.3,3.2,0.8,4.7
		c-2,0.6-3.4,2.4-3.4,4.5C0,29.9,2.1,32,4.7,32h85.4c2.6,0,4.7-2.1,4.7-4.7C94.9,25.4,93.9,23.8,92.3,23"/>
</g>
</svg>
