<?xml version="1.0" encoding="iso-8859-1"?>
<!-- Generator: Adobe Illustrator 19.0.0, SVG Export Plug-In . SVG Version: 6.00 Build 0)  -->
<svg version="1.1" id="Layer_1" xmlns="http://www.w3.org/2000/svg" xmlns:xlink="http://www.w3.org/1999/xlink" x="0px" y="0px"
	 viewBox="0 0 496.8 496.8" style="enable-background:new 0 0 496.8 496.8;" xml:space="preserve">
<path style="fill:#C0CCC7;" d="M326.4,226c0,8.8-7.2,16.8-16.8,16.8h-124c-8.8,0-16.8-7.2-16.8-16.8V102c0-8.8,7.2-16.8,16.8-16.8
	h124c8.8,0,16.8,7.2,16.8,16.8V226z"/>
<g>
	<path style="fill:#B2BFB9;" d="M326.4,226c0,8.8-7.2,16.8-16.8,16.8h-124c-8.8,0-16.8-7.2-16.8-16.8"/>
	<path style="fill:#B2BFB9;" d="M169.6,102c0-8.8,7.2-16.8,16.8-16.8h124c8.8,0,16.8,7.2,16.8,16.8v124c0,8.8-7.2,16.8-16.8,16.8"/>
</g>
<path style="fill:#D3DDD9;" d="M169.6,102c0-8.8,7.2-16.8,16.8-16.8h124c8.8,0,16.8,7.2,16.8,16.8"/>
<path style="fill:#5C605F;" d="M274.4,196.4l-23.2-36c-1.6-2.4-5.6-2.4-7.2,0l-22.4,36.8c-0.8,1.6-0.8,3.2,0,4
	c0.8,1.6,2.4,2.4,4,2.4h44.8c1.6,0,3.2-0.8,4-2.4C275.2,199.6,274.4,198,274.4,196.4z"/>
<path style="fill:#464948;" d="M251.2,174.8c-1.6-2.4-5.6-2.4-7.2,0l-16.8,28h41.6L251.2,174.8z"/>
<path style="fill:#C0CCC7;" d="M326.4,394.8c0,8.8-7.2,16.8-16.8,16.8h-124c-8.8,0-16.8-7.2-16.8-16.8v-124
	c0-8.8,7.2-16.8,16.8-16.8h124c8.8,0,16.8,7.2,16.8,16.8V394.8z"/>
<g>
	<path style="fill:#B2BFB9;" d="M326.4,394.8c0,8.8-7.2,16.8-16.8,16.8h-124c-8.8,0-16.8-7.2-16.8-16.8"/>
	<path style="fill:#B2BFB9;" d="M169.6,270.8c0-8.8,7.2-16.8,16.8-16.8h124c8.8,0,16.8,7.2,16.8,16.8v124c0,8.8-7.2,16.8-16.8,16.8"
		/>
</g>
<path style="fill:#D3DDD9;" d="M169.6,270.8c0-8.8,7.2-16.8,16.8-16.8h124c8.8,0,16.8,7.2,16.8,16.8"/>
<path style="fill:#5C605F;" d="M221.6,332.4l22.4,36.8c1.6,2.4,5.6,2.4,7.2,0l22.4-36.8c0.8-1.6,0.8-3.2,0-4c-0.8-1.6-2.4-2.4-4-2.4
	h-44.8c-1.6,0-3.2,0.8-4,2.4C220.8,330,221.6,331.6,221.6,332.4z"/>
<path style="fill:#464948;" d="M244.8,354c1.6,2.4,5.6,2.4,7.2,0l16.8-28h-41.6L244.8,354z"/>

</svg>
