<?xml version="1.0" ?><svg height="32" id="svg17515" version="1.1" viewBox="0 0 32 32.000001" width="32" xmlns="http://www.w3.org/2000/svg" xmlns:cc="http://creativecommons.org/ns#" xmlns:dc="http://purl.org/dc/elements/1.1/" xmlns:inkscape="http://www.inkscape.org/namespaces/inkscape" xmlns:rdf="http://www.w3.org/1999/02/22-rdf-syntax-ns#" xmlns:sodipodi="http://sodipodi.sourceforge.net/DTD/sodipodi-0.dtd" xmlns:svg="http://www.w3.org/2000/svg"><defs id="defs17517"><clipPath clipPathUnits="userSpaceOnUse" id="clipPath32617-9-8-8-9"><circle cx="-64.623535" cy="50.047192" id="path32619-2-3-5-1" r="38.553814" style="fill:#4bb7c0;fill-opacity:1;stroke:none" transform="matrix(9.3443438,0,0,9.3443438,-627.91229,-5859.5225)"/></clipPath><clipPath clipPathUnits="userSpaceOnUse" id="clipPath19550"><circle cx="-64.623535" cy="50.047192" id="circle19552" r="38.553814" style="fill:#4bb7c0;fill-opacity:1;stroke:none" transform="matrix(9.3443438,0,0,9.3443438,-627.91229,-5859.5225)"/></clipPath></defs><g id="layer1" transform="translate(0,-1020.3622)"><g id="g24639" style="display:inline" transform="translate(812.13357,41.932787)"><path d="m -803.54886,994.2997 3.37109,4.07422 c 6.4e-4,6.9e-4 10e-4,10e-4 0.002,0.002 0.001,0.001 0.003,0.003 0.004,0.004 0.002,0.002 0.004,0.003 0.006,0.004 0.004,0.003 0.008,0.005 0.0117,0.006 0.01,0.001 0.0192,-7.8e-4 0.0273,-0.006 0.004,-10e-4 0.007,-0.004 0.01,-0.006 6.9e-4,-6.4e-4 10e-4,-10e-4 0.002,-0.002 l 3.47071,-3.96484 3.46874,3.96484 c 6.4e-4,6.9e-4 0.001,0.001 0.002,0.002 6.4e-4,6.9e-4 10e-4,10e-4 0.002,0.002 0.001,10e-4 0.003,0.003 0.004,0.004 0.0126,0.008 0.0284,0.008 0.041,0 0.004,-0.002 0.007,-0.005 0.01,-0.008 6.9e-4,-6.4e-4 10e-4,-10e-4 0.002,-0.002 l 3.37305,-4.07422 3.5,4 c -0.15804,1.9532 -0.74712,3.627 -1.67188,4.9941 l -17.46579,0 c -0.92445,-1.3666 -1.55657,-2.9928 -1.71485,-4.94527 z" id="path24519" style="color:#000000;font-style:normal;font-variant:normal;font-weight:normal;font-stretch:normal;font-size:medium;line-height:normal;font-family:sans-serif;text-indent:0;text-align:start;text-decoration:none;text-decoration-line:none;text-decoration-style:solid;text-decoration-color:#000000;letter-spacing:normal;word-spacing:normal;text-transform:none;direction:ltr;writing-mode:lr-tb;baseline-shift:baseline;text-anchor:start;white-space:normal;clip-rule:nonzero;display:inline;overflow:visible;visibility:visible;opacity:1;isolation:auto;mix-blend-mode:normal;color-interpolation:sRGB;color-interpolation-filters:linearRGB;solid-color:#000000;solid-opacity:1;fill:#ffd158;fill-opacity:1;fill-rule:nonzero;stroke:none;stroke-width:0.08;stroke-linecap:round;stroke-linejoin:round;stroke-miterlimit:4;stroke-dasharray:none;stroke-dashoffset:0;stroke-opacity:1;color-rendering:auto;image-rendering:auto;shape-rendering:auto;text-rendering:auto;enable-background:accumulate"/><path d="m -793.14272,990.26875 3.46857,3.96438 -3.4706,4.19508 -3.56977,-4.0777 z" id="path24521" style="color:#000000;font-style:normal;font-variant:normal;font-weight:normal;font-stretch:normal;font-size:medium;line-height:normal;font-family:sans-serif;text-indent:0;text-align:start;text-decoration:none;text-decoration-line:none;text-decoration-style:solid;text-decoration-color:#000000;letter-spacing:normal;word-spacing:normal;text-transform:none;direction:ltr;writing-mode:lr-tb;baseline-shift:baseline;text-anchor:start;white-space:normal;clip-rule:nonzero;display:inline;overflow:visible;visibility:visible;opacity:1;isolation:auto;mix-blend-mode:normal;color-interpolation:sRGB;color-interpolation-filters:linearRGB;solid-color:#000000;solid-opacity:1;fill:#43b6c2;fill-opacity:1;fill-rule:nonzero;stroke:none;stroke-width:0.07999999;stroke-linecap:round;stroke-linejoin:round;stroke-miterlimit:4;stroke-dasharray:none;stroke-dashoffset:0;stroke-opacity:1;color-rendering:auto;image-rendering:auto;shape-rendering:auto;text-rendering:auto;enable-background:accumulate"/><path d="m -800.14623,990.27036 3.56832,4.08011 -3.56832,4.07809 -3.46921,-4.19339 z" id="path24523" style="color:#000000;font-style:normal;font-variant:normal;font-weight:normal;font-stretch:normal;font-size:medium;line-height:normal;font-family:sans-serif;text-indent:0;text-align:start;text-decoration:none;text-decoration-line:none;text-decoration-style:solid;text-decoration-color:#000000;letter-spacing:normal;word-spacing:normal;text-transform:none;direction:ltr;writing-mode:lr-tb;baseline-shift:baseline;text-anchor:start;white-space:normal;clip-rule:nonzero;display:inline;overflow:visible;visibility:visible;opacity:1;isolation:auto;mix-blend-mode:normal;color-interpolation:sRGB;color-interpolation-filters:linearRGB;solid-color:#000000;solid-opacity:1;fill:#43b6c2;fill-opacity:1;fill-rule:nonzero;stroke:none;stroke-width:0.08;stroke-linecap:round;stroke-linejoin:round;stroke-miterlimit:4;stroke-dasharray:none;stroke-dashoffset:0;stroke-opacity:1;color-rendering:auto;image-rendering:auto;shape-rendering:auto;text-rendering:auto;enable-background:accumulate"/><path d="m -806.11496,990.97384 2.67884,3.23814 -3.65297,4.17719 c -0.0476,-0.65928 -0.0638,-1.33813 -0.0145,-2.05558 0.11888,-1.72611 0.45654,-3.56577 0.98857,-5.35975 z" id="path24525" style="color:#000000;font-style:normal;font-variant:normal;font-weight:normal;font-stretch:normal;font-size:medium;line-height:normal;font-family:sans-serif;text-indent:0;text-align:start;text-decoration:none;text-decoration-line:none;text-decoration-style:solid;text-decoration-color:#000000;letter-spacing:normal;word-spacing:normal;text-transform:none;direction:ltr;writing-mode:lr-tb;baseline-shift:baseline;text-anchor:start;white-space:normal;clip-rule:nonzero;display:inline;overflow:visible;visibility:visible;opacity:1;isolation:auto;mix-blend-mode:normal;color-interpolation:sRGB;color-interpolation-filters:linearRGB;solid-color:#000000;solid-opacity:1;fill:#43b6c2;fill-opacity:1;fill-rule:nonzero;stroke:none;stroke-width:0.07999999;stroke-linecap:round;stroke-linejoin:round;stroke-miterlimit:4;stroke-dasharray:none;stroke-dashoffset:0;stroke-opacity:1;color-rendering:auto;image-rendering:auto;shape-rendering:auto;text-rendering:auto;enable-background:accumulate"/><path d="m -796.64654,981.20207 c 2.77673,0 5.08407,1.72571 6.83256,4.23438 l -13.66512,0 c 1.74849,-2.50867 4.05583,-4.23438 6.83256,-4.23438 z" id="path24527" style="color:#000000;font-style:normal;font-variant:normal;font-weight:normal;font-stretch:normal;font-size:medium;line-height:normal;font-family:sans-serif;text-indent:0;text-align:start;text-decoration:none;text-decoration-line:none;text-decoration-style:solid;text-decoration-color:#000000;letter-spacing:normal;word-spacing:normal;text-transform:none;direction:ltr;writing-mode:lr-tb;baseline-shift:baseline;text-anchor:start;white-space:normal;clip-rule:nonzero;display:inline;overflow:visible;visibility:visible;opacity:1;isolation:auto;mix-blend-mode:normal;color-interpolation:sRGB;color-interpolation-filters:linearRGB;solid-color:#000000;solid-opacity:1;fill:#ff766c;fill-opacity:1;fill-rule:nonzero;stroke:none;stroke-width:0.08000001;stroke-linecap:round;stroke-linejoin:round;stroke-miterlimit:4;stroke-dasharray:none;stroke-dashoffset:0;stroke-opacity:1;color-rendering:auto;image-rendering:auto;shape-rendering:auto;text-rendering:auto;enable-background:accumulate"/><path d="m -803.4942,985.41493 13.68435,0 c 0.17454,0.25304 0.35026,0.50555 0.51321,0.77344 0.89641,1.47381 1.61434,3.15695 2.13708,4.88867 l -2.56998,3.09766 -3.38094,-3.85156 a 0.04012073,0.040004 0 0 0 -0.006,-0.006 0.04012073,0.040004 0 0 0 -0.01,-0.006 0.04012073,0.040004 0 0 0 -0.0215,-0.002 0.04012073,0.040004 0 0 0 -0.0176,0.008 0.04012073,0.040004 0 0 0 -0.006,0.006 l -3.47886,3.96484 -3.48084,-3.96484 a 0.04012073,0.040004 0 0 0 -0.006,-0.006 0.04012073,0.040004 0 0 0 -0.01,-0.006 0.04012073,0.040004 0 0 0 -0.0215,-0.002 0.04012073,0.040004 0 0 0 -0.0176,0.008 0.04012073,0.040004 0 0 0 -0.006,0.006 l -3.38092,3.85351 -2.57194,-3.09961 c 0.52274,-1.73172 1.24067,-3.41486 2.13708,-4.88867 0.16294,-0.26789 0.33868,-0.5204 0.51322,-0.77344 z" id="path24529" style="color:#000000;font-style:normal;font-variant:normal;font-weight:normal;font-stretch:normal;font-size:medium;line-height:normal;font-family:sans-serif;text-indent:0;text-align:start;text-decoration:none;text-decoration-line:none;text-decoration-style:solid;text-decoration-color:#000000;letter-spacing:normal;word-spacing:normal;text-transform:none;direction:ltr;writing-mode:lr-tb;baseline-shift:baseline;text-anchor:start;white-space:normal;clip-rule:nonzero;display:inline;overflow:visible;visibility:visible;opacity:1;isolation:auto;mix-blend-mode:normal;color-interpolation:sRGB;color-interpolation-filters:linearRGB;solid-color:#000000;solid-opacity:1;fill:#ffd158;fill-opacity:1;fill-rule:nonzero;stroke:none;stroke-width:0.08;stroke-linecap:round;stroke-linejoin:round;stroke-miterlimit:4;stroke-dasharray:none;stroke-dashoffset:0;stroke-opacity:1;color-rendering:auto;image-rendering:auto;shape-rendering:auto;text-rendering:auto;enable-background:accumulate"/><path d="m -787.16708,991.04571 c 0.52488,1.76993 0.85802,3.58495 0.97532,5.28794 0.0487,0.7071 0.0326,1.37616 -0.0143,2.02599 l -3.60402,-4.11918 z" id="path24531" style="color:#000000;font-style:normal;font-variant:normal;font-weight:normal;font-stretch:normal;font-size:medium;line-height:normal;font-family:sans-serif;text-indent:0;text-align:start;text-decoration:none;text-decoration-line:none;text-decoration-style:solid;text-decoration-color:#000000;letter-spacing:normal;word-spacing:normal;text-transform:none;direction:ltr;writing-mode:lr-tb;baseline-shift:baseline;text-anchor:start;white-space:normal;clip-rule:nonzero;display:inline;overflow:visible;visibility:visible;opacity:1;isolation:auto;mix-blend-mode:normal;color-interpolation:sRGB;color-interpolation-filters:linearRGB;solid-color:#000000;solid-opacity:1;fill:#43b6c2;fill-opacity:1;fill-rule:nonzero;stroke:none;stroke-width:0.08000001;stroke-linecap:round;stroke-linejoin:round;stroke-miterlimit:4;stroke-dasharray:none;stroke-dashoffset:0;stroke-opacity:1;color-rendering:auto;image-rendering:auto;shape-rendering:auto;text-rendering:auto;enable-background:accumulate"/><path d="m -805.36719,1003.2938 c 0.29916,0.43 0.6221,0.8402 0.98438,1.2071 0.26798,0.2735 0.52353,0.5221 0.80845,0.7207 2.04178,1.4231 4.70796,2.1821 6.92802,2.207 2.65427,0.03 5.05606,-0.771 6.91601,-2.1992 0.29692,-0.2303 0.57375,-0.5028 0.82255,-0.7285 0.36227,-0.3669 0.68328,-0.7771 0.98242,-1.2071 z" id="path24533" style="color:#000000;font-style:normal;font-variant:normal;font-weight:normal;font-stretch:normal;font-size:medium;line-height:normal;font-family:sans-serif;text-indent:0;text-align:start;text-decoration:none;text-decoration-line:none;text-decoration-style:solid;text-decoration-color:#000000;letter-spacing:normal;word-spacing:normal;text-transform:none;direction:ltr;writing-mode:lr-tb;baseline-shift:baseline;text-anchor:start;white-space:normal;clip-rule:nonzero;display:inline;overflow:visible;visibility:visible;opacity:1;isolation:auto;mix-blend-mode:normal;color-interpolation:sRGB;color-interpolation-filters:linearRGB;solid-color:#000000;solid-opacity:1;fill:#ff766c;fill-opacity:1;fill-rule:nonzero;stroke:none;stroke-width:0.08;stroke-linecap:round;stroke-linejoin:round;stroke-miterlimit:4;stroke-dasharray:none;stroke-dashoffset:0;stroke-opacity:1;color-rendering:auto;image-rendering:auto;shape-rendering:auto;text-rendering:auto;enable-background:accumulate"/><path d="m -799.64622,994.34845 a 0.5,0.5 0 0 1 -0.5,0.5 0.5,0.5 0 0 1 -0.5,-0.5 0.5,0.5 0 0 1 0.5,-0.5 0.5,0.5 0 0 1 0.5,0.5 z" id="path24537" style="opacity:1;fill:#ffffff;fill-opacity:1;stroke:none;stroke-width:1;stroke-linecap:round;stroke-linejoin:round;stroke-miterlimit:4;stroke-dasharray:none;stroke-dashoffset:0;stroke-opacity:1"/><path d="m -792.64622,994.34845 a 0.5,0.5 0 0 1 -0.5,0.5 0.5,0.5 0 0 1 -0.5,-0.5 0.5,0.5 0 0 1 0.5,-0.5 0.5,0.5 0 0 1 0.5,0.5 z" id="path24539" style="opacity:1;fill:#ffffff;fill-opacity:1;stroke:none;stroke-width:1;stroke-linecap:round;stroke-linejoin:round;stroke-miterlimit:4;stroke-dasharray:none;stroke-dashoffset:0;stroke-opacity:1"/><path d="m -806.39652,993.84853 a 0.5,0.5 0 0 0 -0.43359,0.25 c -0.0196,0.11745 -0.0369,0.23455 -0.0547,0.35156 a 0.5,0.5 0 0 0 0.48828,0.39844 0.5,0.5 0 0 0 0.5,-0.5 0.5,0.5 0 0 0 -0.5,-0.5 z" id="path24541" style="opacity:1;fill:#ffffff;fill-opacity:1;stroke:none;stroke-width:1;stroke-linecap:round;stroke-linejoin:round;stroke-miterlimit:4;stroke-dasharray:none;stroke-dashoffset:0;stroke-opacity:1"/><path d="m -786.89652,993.84853 a 0.5,0.5 0 0 0 -0.5,0.5 0.5,0.5 0 0 0 0.5,0.5 0.5,0.5 0 0 0 0.48633,-0.38477 c -0.0191,-0.125 -0.0375,-0.24949 -0.0586,-0.375 a 0.5,0.5 0 0 0 -0.42774,-0.24023 z" id="path24543" style="opacity:1;fill:#ffffff;fill-opacity:1;stroke:none;stroke-width:1;stroke-linecap:round;stroke-linejoin:round;stroke-miterlimit:4;stroke-dasharray:none;stroke-dashoffset:0;stroke-opacity:1"/><path d="m -803.14622,989.3482 a 0.5,0.5 0 0 0 -0.5,-0.5 0.5,0.5 0 0 0 -0.5,0.5 0.5,0.5 0 0 0 0.5,0.5 0.5,0.5 0 0 0 0.5,-0.5 z" id="path24545" style="opacity:1;fill:#ffffff;fill-opacity:1;stroke:none;stroke-width:1;stroke-linecap:round;stroke-linejoin:round;stroke-miterlimit:4;stroke-dasharray:none;stroke-dashoffset:0;stroke-opacity:1"/><path d="m -796.14622,988.0982 a 0.5,0.5 0 0 0 -0.5,-0.5 0.5,0.5 0 0 0 -0.5,0.5 0.5,0.5 0 0 0 0.5,0.5 0.5,0.5 0 0 0 0.5,-0.5 z" id="path24547" style="opacity:1;fill:#ffffff;fill-opacity:1;stroke:none;stroke-width:1;stroke-linecap:round;stroke-linejoin:round;stroke-miterlimit:4;stroke-dasharray:none;stroke-dashoffset:0;stroke-opacity:1"/><path d="m -789.14622,989.3482 a 0.5,0.5 0 0 0 -0.5,-0.5 0.5,0.5 0 0 0 -0.5,0.5 0.5,0.5 0 0 0 0.5,0.5 0.5,0.5 0 0 0 0.5,-0.5 z" id="path24549" style="opacity:1;fill:#ffffff;fill-opacity:1;stroke:none;stroke-width:1;stroke-linecap:round;stroke-linejoin:round;stroke-miterlimit:4;stroke-dasharray:none;stroke-dashoffset:0;stroke-opacity:1"/><path d="m -803.14622,999.3484 a 0.5,0.5 0 0 1 -0.5,0.5 0.5,0.5 0 0 1 -0.5,-0.5 0.5,0.5 0 0 1 0.5,-0.5 0.5,0.5 0 0 1 0.5,0.5 z" id="path24551" style="opacity:1;fill:#ffffff;fill-opacity:1;stroke:none;stroke-width:1;stroke-linecap:round;stroke-linejoin:round;stroke-miterlimit:4;stroke-dasharray:none;stroke-dashoffset:0;stroke-opacity:1"/><path d="m -796.14622,1000.5984 a 0.5,0.5 0 0 1 -0.5,0.5 0.5,0.5 0 0 1 -0.5,-0.5 0.5,0.5 0 0 1 0.5,-0.5 0.5,0.5 0 0 1 0.5,0.5 z" id="path24553" style="opacity:1;fill:#ffffff;fill-opacity:1;stroke:none;stroke-width:1;stroke-linecap:round;stroke-linejoin:round;stroke-miterlimit:4;stroke-dasharray:none;stroke-dashoffset:0;stroke-opacity:1"/><path d="m -789.14622,999.3484 a 0.5,0.5 0 0 1 -0.5,0.5 0.5,0.5 0 0 1 -0.5,-0.5 0.5,0.5 0 0 1 0.5,-0.5 0.5,0.5 0 0 1 0.5,0.5 z" id="path24555" style="opacity:1;fill:#ffffff;fill-opacity:1;stroke:none;stroke-width:1;stroke-linecap:round;stroke-linejoin:round;stroke-miterlimit:4;stroke-dasharray:none;stroke-dashoffset:0;stroke-opacity:1"/></g></g></svg>