<?xml version="1.0" encoding="utf-8"?>
<!-- Generator: Adobe Illustrator 21.1.0, SVG Export Plug-In . SVG Version: 6.00 Build 0)  -->
<svg version="1.1" id="Layer_1" xmlns="http://www.w3.org/2000/svg" xmlns:xlink="http://www.w3.org/1999/xlink" x="0px" y="0px"
	 viewBox="0 0 206 238.3" style="enable-background:new 0 0 206 238.3;" xml:space="preserve">
<style type="text/css">
	.st0{fill:#BB374F;}
	.st1{fill:#396586;}
	.st2{fill:#92D4D8;}
</style>
<g>
	<path class="st0" d="M145.4,188.2l-40.1-85.4h-4.5L40.1,232H16v6.2h174V232h-24L145.4,188.2z M45.5,232L103,109.6L160.5,232H45.5z"
		/>
	<path class="st1" d="M201.9,98.9h-0.1c-1-24.1-10.7-46.1-26-62.7l0.1-0.1c1.6-1.6,1.6-4.2,0-5.8c-1.6-1.6-4.2-1.6-5.8,0l-0.1,0.1
		C153.3,15,131.3,5.2,107.1,4.2V4.1c0-2.3-1.8-4.1-4.1-4.1c-2.3,0-4.1,1.8-4.1,4.1v0.1c-24.2,1-46.1,10.7-62.8,26L36,30.1
		c-1.6-1.6-4.2-1.6-5.8,0c-1.6,1.6-1.6,4.2,0,5.8l0.1,0.1C14.9,52.8,5.2,74.7,4.2,98.9H4.1c-2.3,0-4.1,1.8-4.1,4.1
		c0,2.3,1.8,4.1,4.1,4.1h0.1c1,24.1,10.6,46,25.9,62.6l-0.1,0.1c-1.6,1.6-1.6,4.2,0,5.8c0.8,0.8,1.9,1.2,2.9,1.2
		c1,0,2.1-0.4,2.9-1.2l0.1-0.1c16.7,15.5,38.7,25.2,63,26.2v0.1c0,2.3,1.8,4.1,4.1,4.1c2.3,0,4.1-1.8,4.1-4.1v-0.1
		c24.1-1,46-10.6,62.7-25.9l0.1,0.1c0.8,0.8,1.9,1.2,2.9,1.2c1,0,2.1-0.4,2.9-1.2c1.6-1.6,1.6-4.2,0-5.8l-0.1-0.1
		c15.4-16.7,25.2-38.7,26.2-63h0.1c2.3,0,4.1-1.8,4.1-4.1C206,100.8,204.2,98.9,201.9,98.9 M98.9,8.3V14c0,0.7,0.2,1.3,0.5,1.9
		c-21.3,0.9-40.7,9.4-55.4,23c-0.2-0.6-0.5-1.2-1-1.8l-3.9-4C55,18.6,75.9,9.3,98.9,8.3 M95.7,101.6l-78.4-0.8
		c0-0.1-0.1-0.1-0.2-0.2c0.6-21.8,9.4-41.6,23.5-56.5c0.7-0.1,1.4-0.4,2-0.9l54.2,55.6C96.4,99.6,95.9,100.5,95.7,101.6 M96.9,107.2
		l-55.7,54.8c-0.2-0.1-0.4-0.1-0.6-0.1c-13.9-14.8-22.6-34.5-23.3-56.3c0.4-0.6,0.7-1.2,0.8-2l77.7,0.8
		C95.9,105.4,96.3,106.3,96.9,107.2 M33.2,39l3.9,3.9c0.5,0.5,1.1,0.8,1.7,1c-13.6,14.7-22.1,34.1-23,55.5c-0.6-0.3-1.2-0.5-2-0.5
		H8.3C9.3,75.9,18.6,54.9,33.2,39 M37,162.9l-4,3.9c-14.5-15.9-23.7-36.8-24.7-59.7H14c0.7,0,1.4-0.2,1.9-0.5
		c0.9,21.2,9.4,40.6,22.8,55.3C38.1,162.1,37.5,162.4,37,162.9 M98.9,192.1v5.6c-23.1-1-44.1-10.3-60.1-25l4-3.9
		c0.5-0.5,0.8-1.1,1-1.8c14.7,13.7,34.2,22.3,55.6,23.2C99.1,190.7,98.9,191.4,98.9,192.1 M101.1,188.5c-0.2,0.1-0.3,0.2-0.5,0.3
		c-21.9-0.6-41.8-9.5-56.6-23.6c-0.1-0.6-0.3-1.1-0.6-1.6l55.5-54.5c0.8,0.6,1.8,1,2.8,1.2L101.1,188.5z M101.7,95.7
		c-1,0.2-1.9,0.6-2.7,1.1L44.1,40.7c0,0,0,0,0-0.1c14.8-14,34.6-22.8,56.4-23.4c0.3,0.3,0.7,0.5,1.1,0.6V95.7z M107.1,14V8.3
		c23.1,1,44,10.3,60,24.9l-4,3.9c-0.5,0.5-0.8,1.1-1,1.8c-14.7-13.6-34.1-22.2-55.5-23.1C106.9,15.3,107.1,14.7,107.1,14
		 M188.1,101.9l-77.8-0.3c-0.2-1-0.6-2-1.2-2.8l55.2-55c0.4,0.2,0.7,0.3,1.1,0.3c14,14.8,22.7,34.6,23.4,56.4
		C188.5,101,188.3,101.4,188.1,101.9 M188.8,105.5c-0.6,21.9-9.5,41.7-23.6,56.6c-0.5,0.1-1,0.2-1.4,0.5l-54.7-55.3
		c0.6-0.8,1-1.8,1.2-2.8l78,0.3C188.5,105,188.6,105.3,188.8,105.5 M104.4,17.8c0.4-0.1,0.8-0.3,1.1-0.6
		c21.9,0.6,41.7,9.4,56.5,23.5c0.1,0.4,0.2,0.8,0.4,1.2l-55.2,55c-0.8-0.6-1.8-1-2.8-1.2V17.8z M105.5,188.8
		c-0.5-0.4-1.1-0.6-1.7-0.8l0.5-77.7c1-0.2,2-0.6,2.8-1.2l54.9,55.5c-0.1,0.3-0.2,0.6-0.2,0.9C147,179.5,127.3,188.2,105.5,188.8
		 M107.1,197.7v-5.6c0-0.7-0.2-1.3-0.5-1.9c21.3-0.9,40.6-9.4,55.3-22.9c0.2,0.6,0.5,1.2,1,1.7l3.9,4
		C151,187.5,130.1,196.7,107.1,197.7 M172.7,167.2l-3.9-4c-0.5-0.5-1.1-0.8-1.8-1c13.6-14.7,22.2-34.2,23.1-55.6
		c0.6,0.3,1.2,0.5,1.9,0.5h5.6C196.7,130.2,187.4,151.2,172.7,167.2 M192.1,98.9c-0.7,0-1.3,0.2-1.9,0.5
		c-0.9-21.3-9.4-40.6-22.9-55.4c0.6-0.2,1.2-0.5,1.8-1l4-3.9c14.6,15.9,23.8,36.8,24.8,59.8H192.1z"/>
	<g>
		<path class="st0" d="M110.9,14.4h-4.3v-4.1c0-1-0.8-1.7-1.7-1.7h-3.8c-1,0-1.7,0.8-1.7,1.7v4.1h-4.3c-1.7,0-3.1,1.4-3.1,3.1v11.1
			c0,1.7,1.4,3.1,3.1,3.1h15.8c1.7,0,3.1-1.4,3.1-3.1V17.5C114,15.8,112.6,14.4,110.9,14.4"/>
		<rect x="95.1" y="20.4" class="st2" width="6.9" height="4.9"/>
		<rect x="104" y="20.4" class="st2" width="6.9" height="4.9"/>
	</g>
	<g>
		<path class="st0" d="M175.2,41.8h-4.3v-4.1c0-1-0.8-1.7-1.7-1.7h-3.8c-1,0-1.7,0.8-1.7,1.7v4.1h-4.3c-1.7,0-3.1,1.4-3.1,3.1v11.1
			c0,1.7,1.4,3.1,3.1,3.1h15.8c1.7,0,3.1-1.4,3.1-3.1V44.9C178.3,43.2,176.9,41.8,175.2,41.8"/>
		<rect x="159.4" y="47.8" class="st2" width="6.9" height="4.9"/>
		<rect x="168.3" y="47.8" class="st2" width="6.9" height="4.9"/>
	</g>
	<g>
		<path class="st0" d="M201.9,107.3h-4.3v-4.1c0-1-0.8-1.7-1.7-1.7h-3.8c-1,0-1.7,0.8-1.7,1.7v4.1h-4.3c-1.7,0-3.1,1.4-3.1,3.1v11.1
			c0,1.7,1.4,3.1,3.1,3.1h15.8c1.7,0,3.1-1.4,3.1-3.1v-11.1C205,108.7,203.6,107.3,201.9,107.3"/>
		<rect x="186.1" y="113.3" class="st2" width="6.9" height="4.9"/>
		<rect x="195" y="113.3" class="st2" width="6.9" height="4.9"/>
	</g>
	<g>
		<path class="st0" d="M175.4,172h-4.3v-4.1c0-1-0.8-1.7-1.7-1.7h-3.8c-1,0-1.7,0.8-1.7,1.7v4.1h-4.3c-1.7,0-3.1,1.4-3.1,3.1v11.1
			c0,1.7,1.4,3.1,3.1,3.1h15.8c1.7,0,3.1-1.4,3.1-3.1v-11.1C178.5,173.4,177.1,172,175.4,172"/>
		<rect x="159.6" y="177.9" class="st2" width="6.9" height="4.9"/>
		<rect x="168.5" y="177.9" class="st2" width="6.9" height="4.9"/>
	</g>
	<g>
		<path class="st0" d="M30.9,41.8h4.3v-4.1c0-1,0.8-1.7,1.7-1.7h3.8c1,0,1.7,0.8,1.7,1.7v4.1h4.3c1.7,0,3.1,1.4,3.1,3.1v11.1
			c0,1.7-1.4,3.1-3.1,3.1H30.9c-1.7,0-3.1-1.4-3.1-3.1V44.9C27.8,43.2,29.1,41.8,30.9,41.8"/>
		<rect x="39.7" y="47.8" class="st2" width="6.9" height="4.9"/>
		<rect x="30.9" y="47.8" class="st2" width="6.9" height="4.9"/>
	</g>
	<g>
		<path class="st0" d="M4.1,107.3h4.3v-4.1c0-1,0.8-1.7,1.7-1.7h3.8c1,0,1.7,0.8,1.7,1.7v4.1h4.3c1.7,0,3.1,1.4,3.1,3.1v11.1
			c0,1.7-1.4,3.1-3.1,3.1H4.1c-1.7,0-3.1-1.4-3.1-3.1v-11.1C1,108.7,2.4,107.3,4.1,107.3"/>
		<rect x="13" y="113.3" class="st2" width="6.9" height="4.9"/>
		<rect x="4.2" y="113.3" class="st2" width="6.9" height="4.9"/>
	</g>
	<g>
		<path class="st0" d="M30.6,172h4.3v-4.1c0-1,0.8-1.7,1.7-1.7h3.8c1,0,1.7,0.8,1.7,1.7v4.1h4.3c1.7,0,3.1,1.4,3.1,3.1v11.1
			c0,1.7-1.4,3.1-3.1,3.1H30.6c-1.7,0-3.1-1.4-3.1-3.1v-11.1C27.5,173.4,28.9,172,30.6,172"/>
		<rect x="39.5" y="177.9" class="st2" width="6.9" height="4.9"/>
		<rect x="30.6" y="177.9" class="st2" width="6.9" height="4.9"/>
	</g>
	<g>
		<path class="st0" d="M110.9,199.2h-4.3V195c0-1-0.8-1.7-1.7-1.7h-3.8c-1,0-1.7,0.8-1.7,1.7v4.1h-4.3c-1.7,0-3.1,1.4-3.1,3.1v11.1
			c0,1.7,1.4,3.1,3.1,3.1h15.8c1.7,0,3.1-1.4,3.1-3.1v-11.1C114,200.6,112.6,199.2,110.9,199.2"/>
		<rect x="95.1" y="205.1" class="st2" width="6.9" height="4.9"/>
		<rect x="104" y="205.1" class="st2" width="6.9" height="4.9"/>
	</g>
</g>
</svg>
