<?xml version="1.0" encoding="utf-8"?>
<!-- Generator: Adobe Illustrator 21.1.0, SVG Export Plug-In . SVG Version: 6.00 Build 0)  -->
<svg version="1.1" id="Layer_1" xmlns="http://www.w3.org/2000/svg" xmlns:xlink="http://www.w3.org/1999/xlink" x="0px" y="0px"
	 viewBox="0 0 62.6 236.9" style="enable-background:new 0 0 62.6 236.9;" xml:space="preserve">
<style type="text/css">
	.st0{fill:#5FBE7B;}
	.st1{fill:#CEE5E3;}
	.st2{fill:#368350;}
</style>
<g>
	<rect y="14.8" class="st0" width="62.6" height="222"/>
	<g>
		<rect x="10.6" y="43.3" class="st1" width="48.1" height="6.5"/>
		<rect x="10.6" y="31.5" class="st1" width="48.1" height="6.5"/>
		<rect x="10.6" y="55" class="st1" width="48.1" height="6.5"/>
		<rect x="10.6" y="66.6" class="st1" width="48.1" height="6.5"/>
		<rect x="10.6" y="78.2" class="st1" width="48.1" height="6.5"/>
		<rect x="10.6" y="89.9" class="st1" width="48.1" height="6.5"/>
		<rect x="10.6" y="101.5" class="st1" width="48.1" height="6.5"/>
		<rect x="10.6" y="113.2" class="st1" width="48.1" height="6.5"/>
		<rect x="10.6" y="124.8" class="st1" width="48.1" height="6.5"/>
		<rect x="10.6" y="136.4" class="st1" width="48.1" height="6.5"/>
		<rect x="10.6" y="148.1" class="st1" width="48.1" height="6.5"/>
		<rect x="10.6" y="159.7" class="st1" width="48.1" height="6.5"/>
		<rect x="10.6" y="171.3" class="st1" width="48.1" height="6.5"/>
		<rect x="10.6" y="183" class="st1" width="48.1" height="6.5"/>
		<rect x="10.6" y="194.6" class="st1" width="48.1" height="6.5"/>
	</g>
	<rect y="13" class="st2" width="62.6" height="4.6"/>
	<rect x="14.1" class="st2" width="34.5" height="17.6"/>
	<rect x="14.8" y="214.2" class="st2" width="33" height="22.7"/>
</g>
</svg>
