<?xml version="1.0" encoding="utf-8"?>
<!-- Generator: Adobe Illustrator 21.1.0, SVG Export Plug-In . SVG Version: 6.00 Build 0)  -->
<svg version="1.1" id="Layer_1" xmlns="http://www.w3.org/2000/svg" xmlns:xlink="http://www.w3.org/1999/xlink" x="0px" y="0px"
	 viewBox="0 0 146.7 113.1" style="enable-background:new 0 0 146.7 113.1;" xml:space="preserve">
<style type="text/css">
	.st0{fill:#8165AC;}
	.st1{opacity:0.3;fill:#231F20;}
	.st2{fill:#C5E6E6;}
	.st3{fill:#554372;}
</style>
<g>
	<rect x="5.5" y="15.3" class="st0" width="135.6" height="97.8"/>
	<rect x="5.5" y="18.2" class="st1" width="135.7" height="3.8"/>
	<g>
		<rect x="21.2" y="29" class="st2" width="9.2" height="14.1"/>
		<rect x="40.2" y="29" class="st2" width="9.2" height="14.1"/>
		<rect x="59.2" y="29" class="st2" width="9.2" height="14.1"/>
		<rect x="78.2" y="29" class="st2" width="9.2" height="14.1"/>
		<rect x="97.2" y="29" class="st2" width="9.2" height="14.1"/>
		<rect x="116.2" y="29" class="st2" width="9.2" height="14.1"/>
	</g>
	<rect x="50.7" y="91.3" class="st3" width="45.3" height="21.8"/>
	<polygon class="st3" points="126.5,0 20.2,0 5.5,15.3 141.2,15.3 	"/>
	<polygon class="st1" points="135.7,9.6 11,9.6 5.5,15.3 141.2,15.3 	"/>
	<g>
		<rect x="21.2" y="50.6" class="st2" width="9.2" height="30.2"/>
		<rect x="20.1" y="49.2" class="st3" width="11.4" height="1.6"/>
	</g>
	<g>
		<rect x="40.2" y="50.6" class="st2" width="9.2" height="30.2"/>
		<rect x="39.1" y="49.2" class="st3" width="11.4" height="1.6"/>
	</g>
	<g>
		<rect x="59.2" y="50.6" class="st2" width="9.2" height="30.2"/>
		<rect x="58.1" y="49.2" class="st3" width="11.4" height="1.6"/>
	</g>
	<g>
		<rect x="78.2" y="50.6" class="st2" width="9.2" height="30.2"/>
		<rect x="77.1" y="49.2" class="st3" width="11.4" height="1.6"/>
	</g>
	<g>
		<rect x="97.2" y="50.6" class="st2" width="9.2" height="30.2"/>
		<rect x="96.1" y="49.2" class="st3" width="11.4" height="1.6"/>
	</g>
	<g>
		<rect x="116.2" y="50.6" class="st2" width="9.2" height="30.2"/>
		<rect x="115.1" y="49.2" class="st3" width="11.4" height="1.6"/>
	</g>
	<rect x="14.1" y="80.5" class="st3" width="118.5" height="5.1"/>
	<rect y="12.7" class="st3" width="146.7" height="5.5"/>
	<rect x="71.3" y="91.3" class="st1" width="4" height="21.8"/>
</g>
</svg>
