<?xml version="1.0" encoding="utf-8"?>
<!-- Generator: Adobe Illustrator 21.1.0, SVG Export Plug-In . SVG Version: 6.00 Build 0)  -->
<svg version="1.1" id="Layer_1" xmlns="http://www.w3.org/2000/svg" xmlns:xlink="http://www.w3.org/1999/xlink" x="0px" y="0px"
	 viewBox="0 0 113.8 149.8" style="enable-background:new 0 0 113.8 149.8;" xml:space="preserve">
<style type="text/css">
	.st0{fill:#F79655;}
	.st1{opacity:0.1;fill:#231F20;}
	.st2{fill:#B76E37;}
	.st3{fill:#C5E6E6;}
	.st4{opacity:0.3;fill:#231F20;}
</style>
<g>
	<rect x="3.8" y="27.4" class="st0" width="106.1" height="122.4"/>
	<rect x="3.8" y="33.9" class="st1" width="106.1" height="2.8"/>
	<rect x="2.2" y="31.3" class="st2" width="109.4" height="2.6"/>
	<polygon class="st2" points="107.4,23.8 56.9,0 27.6,21 17.3,12.4 5.9,23.8 0,23.8 0,29.1 113.8,29.1 113.8,23.8 	"/>
	<g>
		<g>
			<rect x="10.8" y="40.6" class="st3" width="24.8" height="7.7"/>
			<rect x="44.5" y="40.6" class="st3" width="24.8" height="7.7"/>
			<rect x="78.1" y="40.6" class="st3" width="24.8" height="7.7"/>
		</g>
		<g>
			<rect x="10.8" y="54.8" class="st3" width="24.8" height="7.7"/>
			<rect x="44.5" y="54.8" class="st3" width="24.8" height="7.7"/>
			<rect x="78.1" y="54.8" class="st3" width="24.8" height="7.7"/>
		</g>
		<g>
			<rect x="10.8" y="69.1" class="st3" width="24.8" height="7.7"/>
			<rect x="44.5" y="69.1" class="st3" width="24.8" height="7.7"/>
			<rect x="78.1" y="69.1" class="st3" width="24.8" height="7.7"/>
		</g>
		<g>
			<rect x="10.8" y="83.3" class="st3" width="24.8" height="7.7"/>
			<rect x="44.5" y="83.3" class="st3" width="24.8" height="7.7"/>
			<rect x="78.1" y="83.3" class="st3" width="24.8" height="7.7"/>
		</g>
		<g>
			<rect x="10.8" y="97.6" class="st3" width="24.8" height="7.7"/>
			<rect x="44.5" y="97.6" class="st3" width="24.8" height="7.7"/>
			<rect x="78.1" y="97.6" class="st3" width="24.8" height="7.7"/>
		</g>
		<g>
			<rect x="10.8" y="111.8" class="st3" width="24.8" height="7.7"/>
			<rect x="44.5" y="111.8" class="st3" width="24.8" height="7.7"/>
			<rect x="78.1" y="111.8" class="st3" width="24.8" height="7.7"/>
		</g>
	</g>
	<rect x="37.1" y="131.1" class="st2" width="39.5" height="18.6"/>
	<g>
		<polygon class="st4" points="86.6,149.8 109.9,149.8 109.9,29.1 113.8,29.1 113.8,23.8 107.4,23.8 		"/>
	</g>
	<rect x="55.1" y="131.1" class="st4" width="3.6" height="18.4"/>
</g>
</svg>
