<?xml version="1.0" encoding="utf-8"?>
<!-- Generator: Adobe Illustrator 21.1.0, SVG Export Plug-In . SVG Version: 6.00 Build 0)  -->
<svg version="1.1" id="Layer_1" xmlns="http://www.w3.org/2000/svg" xmlns:xlink="http://www.w3.org/1999/xlink" x="0px" y="0px"
	 viewBox="0 0 33.4 241.9" style="enable-background:new 0 0 33.4 241.9;" xml:space="preserve">
<style type="text/css">
	.st0{fill:#CEC465;}
	.st1{fill:#C5E6E6;}
	.st2{fill:#9F974C;}
</style>
<g>
	<rect y="37.5" class="st0" width="33.4" height="204.4"/>
	<g>
		<rect x="6" y="48.2" class="st1" width="8.6" height="8.6"/>
		<rect x="18.8" y="48.2" class="st1" width="8.6" height="8.6"/>
		<rect x="6" y="88.2" class="st1" width="8.6" height="8.6"/>
		<rect x="18.8" y="88.2" class="st1" width="8.6" height="8.6"/>
		<rect x="6" y="100.4" class="st1" width="8.6" height="8.6"/>
		<rect x="18.8" y="100.4" class="st1" width="8.6" height="8.6"/>
		<rect x="6" y="112.6" class="st1" width="8.6" height="8.6"/>
		<rect x="18.8" y="112.6" class="st1" width="8.6" height="8.6"/>
		<rect x="6" y="124.8" class="st1" width="8.6" height="8.6"/>
		<rect x="18.8" y="124.8" class="st1" width="8.6" height="8.6"/>
		<rect x="6" y="137" class="st1" width="8.6" height="8.6"/>
		<rect x="18.8" y="137" class="st1" width="8.6" height="8.6"/>
		<rect x="6" y="149.2" class="st1" width="8.6" height="8.6"/>
		<rect x="18.8" y="149.2" class="st1" width="8.6" height="8.6"/>
		<rect x="6" y="161.4" class="st1" width="8.6" height="8.6"/>
		<rect x="18.8" y="161.4" class="st1" width="8.6" height="8.6"/>
		<rect x="6" y="173.6" class="st1" width="8.6" height="8.6"/>
		<rect x="18.8" y="173.6" class="st1" width="8.6" height="8.6"/>
		<rect x="6" y="185.8" class="st1" width="8.6" height="8.6"/>
		<rect x="18.8" y="185.8" class="st1" width="8.6" height="8.6"/>
		<rect x="6" y="198" class="st1" width="8.6" height="8.6"/>
		<rect x="18.8" y="198" class="st1" width="8.6" height="8.6"/>
		<rect x="6" y="60.9" class="st1" width="21.4" height="3.3"/>
		<rect x="6" y="67.6" class="st1" width="21.4" height="3.3"/>
		<rect x="6" y="74.4" class="st1" width="21.4" height="3.3"/>
		<rect x="6" y="81.1" class="st1" width="21.4" height="3.3"/>
	</g>
	<rect y="34.2" class="st2" width="33.4" height="5"/>
	<rect x="10.3" y="30.5" class="st2" width="12.8" height="5"/>
	<path class="st2" d="M18.3,0.3l-3.9,32.3c0,0.2,0.1,0.4,0.4,0.4h3.8c0.2,0,0.4-0.2,0.4-0.4V0.4C19-0.1,18.3-0.1,18.3,0.3"/>
</g>
</svg>
