<?xml version="1.0" encoding="utf-8"?>
<!-- Generator: Adobe Illustrator 21.1.0, SVG Export Plug-In . SVG Version: 6.00 Build 0)  -->
<svg version="1.1" id="Layer_1" xmlns="http://www.w3.org/2000/svg" xmlns:xlink="http://www.w3.org/1999/xlink" x="0px" y="0px"
	 viewBox="0 0 93 132.9" style="enable-background:new 0 0 93 132.9;" xml:space="preserve">
<style type="text/css">
	.st0{fill:#CE72AD;}
	.st1{fill:#A44A93;}
	.st2{fill:#C5E6E6;}
	.st3{opacity:0.3;fill:#231F20;}
</style>
<g>
	<rect y="12.5" class="st0" width="93" height="120.2"/>
	<polygon class="st1" points="80.3,8.4 80.3,0 68.1,0 68.1,8.4 61.1,8.4 61.1,0 31.8,0 31.8,8.4 14.8,8.4 14.8,0 2.6,0 2.6,8.4 
		0,8.4 0,16.8 93,16.8 93,8.4 	"/>
	<g>
		<g>
			<rect x="10.5" y="22.5" class="st2" width="9.5" height="8.6"/>
			<rect x="26.1" y="22.5" class="st2" width="9.5" height="8.6"/>
			<rect x="41.7" y="22.5" class="st2" width="9.5" height="8.6"/>
			<rect x="57.3" y="22.5" class="st2" width="9.5" height="8.6"/>
			<rect x="73" y="22.5" class="st2" width="9.5" height="8.6"/>
		</g>
		<g>
			<rect x="10.5" y="35.6" class="st2" width="9.5" height="8.6"/>
			<rect x="26.1" y="35.6" class="st2" width="9.5" height="8.6"/>
			<rect x="41.7" y="35.6" class="st2" width="9.5" height="8.6"/>
			<rect x="57.3" y="35.6" class="st2" width="9.5" height="8.6"/>
			<rect x="73" y="35.6" class="st2" width="9.5" height="8.6"/>
		</g>
		<g>
			<rect x="10.5" y="48.7" class="st2" width="9.5" height="8.6"/>
			<rect x="26.1" y="48.7" class="st2" width="9.5" height="8.6"/>
			<rect x="41.7" y="48.7" class="st2" width="9.5" height="8.6"/>
			<rect x="57.3" y="48.7" class="st2" width="9.5" height="8.6"/>
			<rect x="73" y="48.7" class="st2" width="9.5" height="8.6"/>
		</g>
		<g>
			<rect x="10.5" y="61.8" class="st2" width="9.5" height="8.6"/>
			<rect x="26.1" y="61.8" class="st2" width="9.5" height="8.6"/>
			<rect x="41.7" y="61.8" class="st2" width="9.5" height="8.6"/>
			<rect x="57.3" y="61.8" class="st2" width="9.5" height="8.6"/>
			<rect x="73" y="61.8" class="st2" width="9.5" height="8.6"/>
		</g>
		<g>
			<rect x="10.5" y="74.9" class="st2" width="9.5" height="8.6"/>
			<rect x="26.1" y="74.9" class="st2" width="9.5" height="8.6"/>
			<rect x="41.7" y="74.9" class="st2" width="9.5" height="8.6"/>
			<rect x="57.3" y="74.9" class="st2" width="9.5" height="8.6"/>
			<rect x="73" y="74.9" class="st2" width="9.5" height="8.6"/>
		</g>
		<g>
			<rect x="10.5" y="88" class="st2" width="9.5" height="8.6"/>
			<rect x="26.1" y="88" class="st2" width="9.5" height="8.6"/>
			<rect x="41.7" y="88" class="st2" width="9.5" height="8.6"/>
			<rect x="57.3" y="88" class="st2" width="9.5" height="8.6"/>
			<rect x="73" y="88" class="st2" width="9.5" height="8.6"/>
		</g>
		<g>
			<rect x="10.5" y="101.2" class="st2" width="9.5" height="8.6"/>
			<rect x="26.1" y="101.2" class="st2" width="9.5" height="8.6"/>
			<rect x="41.7" y="101.2" class="st2" width="9.5" height="8.6"/>
			<rect x="57.3" y="101.2" class="st2" width="9.5" height="8.6"/>
			<rect x="73" y="101.2" class="st2" width="9.5" height="8.6"/>
		</g>
	</g>
	<rect x="29.8" y="117" class="st1" width="33.3" height="15.7"/>
	<g>
		<polygon class="st3" points="93,8.4 81.6,8.4 52.6,132.9 63.2,132.9 63.2,132.7 93,132.7 		"/>
	</g>
	<rect x="45.4" y="117" class="st3" width="2.1" height="15.7"/>
</g>
</svg>
