<?xml version="1.0" encoding="utf-8"?>
<!-- Generator: Adobe Illustrator 21.1.0, SVG Export Plug-In . SVG Version: 6.00 Build 0)  -->
<svg version="1.1" id="Layer_1" xmlns="http://www.w3.org/2000/svg" xmlns:xlink="http://www.w3.org/1999/xlink" x="0px" y="0px"
	 viewBox="0 0 68.2 252.3" style="enable-background:new 0 0 68.2 252.3;" xml:space="preserve">
<style type="text/css">
	.st0{fill:#F05364;}
	.st1{fill:#9F323E;}
	.st2{fill:#83CECD;}
</style>
<g>
	<rect y="43.8" class="st0" width="68.2" height="208.5"/>
	<polygon class="st1" points="63.1,34 63.1,29 63.1,29 34.1,0 5.1,29 5.1,29 5.1,34 0,34 0,43.8 68.2,43.8 68.2,34 	"/>
	<g>
		<rect x="5.8" y="55.7" class="st2" width="8.6" height="8.6"/>
		<rect x="21.8" y="55.7" class="st2" width="8.6" height="8.6"/>
		<rect x="37.8" y="55.7" class="st2" width="8.6" height="8.6"/>
		<rect x="53.7" y="55.7" class="st2" width="8.6" height="8.6"/>
		<rect x="5.8" y="68.7" class="st2" width="8.6" height="8.6"/>
		<rect x="21.8" y="68.7" class="st2" width="8.6" height="8.6"/>
		<rect x="37.8" y="68.7" class="st2" width="8.6" height="8.6"/>
		<rect x="53.7" y="68.7" class="st2" width="8.6" height="8.6"/>
		<rect x="5.8" y="81.6" class="st2" width="8.6" height="8.6"/>
		<rect x="21.8" y="81.6" class="st2" width="8.6" height="8.6"/>
		<rect x="37.8" y="81.6" class="st2" width="8.6" height="8.6"/>
		<rect x="53.7" y="81.6" class="st2" width="8.6" height="8.6"/>
		<rect x="5.8" y="94.6" class="st2" width="8.6" height="8.6"/>
		<rect x="21.8" y="94.6" class="st2" width="8.6" height="8.6"/>
		<rect x="37.8" y="94.6" class="st2" width="8.6" height="8.6"/>
		<rect x="53.7" y="94.6" class="st2" width="8.6" height="8.6"/>
		<rect x="5.8" y="107.5" class="st2" width="8.6" height="8.6"/>
		<rect x="21.8" y="107.5" class="st2" width="8.6" height="8.6"/>
		<rect x="37.8" y="107.5" class="st2" width="8.6" height="8.6"/>
		<rect x="53.7" y="107.5" class="st2" width="8.6" height="8.6"/>
		<rect x="5.8" y="120.5" class="st2" width="8.6" height="8.6"/>
		<rect x="21.8" y="120.5" class="st2" width="8.6" height="8.6"/>
		<rect x="37.8" y="120.5" class="st2" width="8.6" height="8.6"/>
		<rect x="53.7" y="120.5" class="st2" width="8.6" height="8.6"/>
		<rect x="5.8" y="133.4" class="st2" width="8.6" height="8.6"/>
		<rect x="21.8" y="133.4" class="st2" width="8.6" height="8.6"/>
		<rect x="37.8" y="133.4" class="st2" width="8.6" height="8.6"/>
		<rect x="53.7" y="133.4" class="st2" width="8.6" height="8.6"/>
		<rect x="5.8" y="146.4" class="st2" width="8.6" height="8.6"/>
		<rect x="21.8" y="146.4" class="st2" width="8.6" height="8.6"/>
		<rect x="37.8" y="146.4" class="st2" width="8.6" height="8.6"/>
		<rect x="53.7" y="146.4" class="st2" width="8.6" height="8.6"/>
		<rect x="5.8" y="159.3" class="st2" width="8.6" height="8.6"/>
		<rect x="21.8" y="159.3" class="st2" width="8.6" height="8.6"/>
		<rect x="37.8" y="159.3" class="st2" width="8.6" height="8.6"/>
		<rect x="53.7" y="159.3" class="st2" width="8.6" height="8.6"/>
		<rect x="5.8" y="172.2" class="st2" width="8.6" height="8.6"/>
		<rect x="21.8" y="172.2" class="st2" width="8.6" height="8.6"/>
		<rect x="37.8" y="172.2" class="st2" width="8.6" height="8.6"/>
		<rect x="53.7" y="172.2" class="st2" width="8.6" height="8.6"/>
		<rect x="5.8" y="185.2" class="st2" width="8.6" height="8.6"/>
		<rect x="21.8" y="185.2" class="st2" width="8.6" height="8.6"/>
		<rect x="37.8" y="185.2" class="st2" width="8.6" height="8.6"/>
		<rect x="53.7" y="185.2" class="st2" width="8.6" height="8.6"/>
		<rect x="5.8" y="198.1" class="st2" width="8.6" height="8.6"/>
		<rect x="21.8" y="198.1" class="st2" width="8.6" height="8.6"/>
		<rect x="37.8" y="198.1" class="st2" width="8.6" height="8.6"/>
		<rect x="53.7" y="198.1" class="st2" width="8.6" height="8.6"/>
		<rect x="5.8" y="211.1" class="st2" width="8.6" height="8.6"/>
		<rect x="21.8" y="211.1" class="st2" width="8.6" height="8.6"/>
		<rect x="37.8" y="211.1" class="st2" width="8.6" height="8.6"/>
		<rect x="53.7" y="211.1" class="st2" width="8.6" height="8.6"/>
	</g>
	<rect x="16.8" y="226" class="st1" width="34.5" height="26.3"/>
</g>
</svg>
