<?xml version="1.0" encoding="utf-8"?>
<!-- Generator: Adobe Illustrator 21.1.0, SVG Export Plug-In . SVG Version: 6.00 Build 0)  -->
<svg version="1.1" id="Layer_1" xmlns="http://www.w3.org/2000/svg" xmlns:xlink="http://www.w3.org/1999/xlink" x="0px" y="0px"
	 viewBox="0 0 155.4 198.8" style="enable-background:new 0 0 155.4 198.8;" xml:space="preserve">
<style type="text/css">
	.st0{fill:#67C8CF;}
	.st1{opacity:0.3;fill:#231F20;}
	.st2{fill:#438185;}
	.st3{fill:#CEE5E3;}
</style>
<g>
	<rect x="3.9" y="38.4" class="st0" width="147.5" height="160.4"/>
	<rect x="3.9" y="39" class="st1" width="147.5" height="3.2"/>
	<polygon class="st2" points="142.6,28.5 142.6,0 117.3,0 117.3,28.5 38,28.5 38,18.1 12.7,18.1 12.7,28.5 0,28.5 0,39 155.4,39 
		155.4,28.5 	"/>
	<g>
		<g>
			<rect x="27.5" y="51.8" class="st3" width="38.4" height="9.4"/>
			<rect x="74.4" y="51.8" class="st3" width="7.8" height="9.4"/>
			<rect x="89.6" y="51.8" class="st3" width="7.8" height="9.4"/>
			<rect x="104.8" y="51.8" class="st3" width="7.8" height="9.4"/>
			<rect x="120.1" y="51.8" class="st3" width="7.8" height="9.4"/>
			<rect x="135.3" y="51.8" class="st3" width="7.8" height="9.4"/>
			<rect x="12.3" y="51.8" class="st3" width="7.8" height="9.4"/>
		</g>
		<g>
			<rect x="27.5" y="71.1" class="st3" width="38.4" height="9.4"/>
			<rect x="74.4" y="71.1" class="st3" width="7.8" height="9.4"/>
			<rect x="89.6" y="71.1" class="st3" width="7.8" height="9.4"/>
			<rect x="104.8" y="71.1" class="st3" width="7.8" height="9.4"/>
			<rect x="120.1" y="71.1" class="st3" width="7.8" height="9.4"/>
			<rect x="135.3" y="71.1" class="st3" width="7.8" height="9.4"/>
			<rect x="12.3" y="71.1" class="st3" width="7.8" height="9.4"/>
		</g>
		<g>
			<rect x="27.5" y="90.3" class="st3" width="38.4" height="9.4"/>
			<rect x="74.4" y="90.3" class="st3" width="7.8" height="9.4"/>
			<rect x="89.6" y="90.3" class="st3" width="7.8" height="9.4"/>
			<rect x="104.8" y="90.3" class="st3" width="7.8" height="9.4"/>
			<rect x="120.1" y="90.3" class="st3" width="7.8" height="9.4"/>
			<rect x="135.3" y="90.3" class="st3" width="7.8" height="9.4"/>
			<rect x="12.3" y="90.3" class="st3" width="7.8" height="9.4"/>
		</g>
		<g>
			<rect x="27.5" y="109.6" class="st3" width="38.4" height="9.4"/>
			<rect x="74.4" y="109.6" class="st3" width="7.8" height="9.4"/>
			<rect x="89.6" y="109.6" class="st3" width="7.8" height="9.4"/>
			<rect x="104.8" y="109.6" class="st3" width="7.8" height="9.4"/>
			<rect x="120.1" y="109.6" class="st3" width="7.8" height="9.4"/>
			<rect x="135.3" y="109.6" class="st3" width="7.8" height="9.4"/>
			<rect x="12.3" y="109.6" class="st3" width="7.8" height="9.4"/>
		</g>
		<g>
			<rect x="27.5" y="128.8" class="st3" width="38.4" height="9.4"/>
			<rect x="74.4" y="128.8" class="st3" width="7.8" height="9.4"/>
			<rect x="89.6" y="128.8" class="st3" width="7.8" height="9.4"/>
			<rect x="104.8" y="128.8" class="st3" width="7.8" height="9.4"/>
			<rect x="120.1" y="128.8" class="st3" width="7.8" height="9.4"/>
			<rect x="135.3" y="128.8" class="st3" width="7.8" height="9.4"/>
			<rect x="12.3" y="128.8" class="st3" width="7.8" height="9.4"/>
		</g>
		<g>
			<rect x="27.5" y="148.1" class="st3" width="38.4" height="9.4"/>
			<rect x="74.4" y="148.1" class="st3" width="7.8" height="9.4"/>
			<rect x="89.6" y="148.1" class="st3" width="7.8" height="9.4"/>
			<rect x="104.8" y="148.1" class="st3" width="7.8" height="9.4"/>
			<rect x="120.1" y="148.1" class="st3" width="7.8" height="9.4"/>
			<rect x="135.3" y="148.1" class="st3" width="7.8" height="9.4"/>
			<rect x="12.3" y="148.1" class="st3" width="7.8" height="9.4"/>
		</g>
	</g>
	<rect x="51.7" y="170.7" class="st2" width="51.9" height="28.1"/>
	<rect x="74.9" y="170.7" class="st1" width="5" height="28.1"/>
</g>
</svg>
