<?xml version="1.0" ?><svg enable-background="new 0 0 512 512" id="Layer_1" version="1.1" viewBox="0 0 512 512" xml:space="preserve" xmlns="http://www.w3.org/2000/svg" xmlns:xlink="http://www.w3.org/1999/xlink"><g><g><linearGradient gradientUnits="userSpaceOnUse" id="SVGID_1_" x1="0.0000038" x2="512" y1="256" y2="256"><stop offset="0" style="stop-color:#FFCA05"/><stop offset="1" style="stop-color:#FAAC18"/></linearGradient><circle cx="256" cy="256" fill="url(#SVGID_1_)" r="256"/><linearGradient gradientUnits="userSpaceOnUse" id="SVGID_2_" x1="42.6666679" x2="469.3333435" y1="256.0005188" y2="256.0005188"><stop offset="0" style="stop-color:#FAAC18"/><stop offset="1" style="stop-color:#FFCA05"/></linearGradient><path d="M256,469.3338623c-117.6314697,0-213.3333282-95.7023926-213.3333282-213.3333435    c0-117.6314545,95.7018585-213.333313,213.3333282-213.333313c117.636261,0,213.3333435,95.7018661,213.3333435,213.333313    C469.3333435,373.6314697,373.636261,469.3338623,256,469.3338623z" fill="url(#SVGID_2_)"/></g><path d="M264,144c-66.2741394,0-120,53.7253265-120,120c0,66.2741394,53.7258606,120,120,120   c66.2746582,0,120-53.7258606,120-120C384,197.7253265,330.2746582,144,264,144z M268.9994812,345.9125366h-10V217.9199982h10   V345.9125366z M268.9994812,199.8677368h-10v-17.7786713h10V199.8677368z" opacity="0.3"/><path d="M256,136c-66.2741394,0-120,53.7253265-120,120c0,66.2741394,53.7258606,120,120,120   c66.2746582,0,120-53.7258606,120-120C376,189.7253265,322.2746582,136,256,136z M260.9994812,337.9125366h-10.0000153V209.9199982   h10.0000153V337.9125366z M260.9994812,191.8677368h-10.0000153v-17.7786713h10.0000153V191.8677368z" fill="#FFFFFF"/></g></svg>