<?xml version="1.0" ?><svg enable-background="new 0 0 512 512" id="Layer_1" version="1.1" viewBox="0 0 512 512" xml:space="preserve" xmlns="http://www.w3.org/2000/svg" xmlns:xlink="http://www.w3.org/1999/xlink"><g><g><linearGradient gradientUnits="userSpaceOnUse" id="SVGID_1_" x1="0.0000038" x2="512" y1="256" y2="256"><stop offset="0" style="stop-color:#E24263"/><stop offset="1" style="stop-color:#DD1E47"/></linearGradient><circle cx="256" cy="256" fill="url(#SVGID_1_)" r="256"/><linearGradient gradientUnits="userSpaceOnUse" id="SVGID_2_" x1="42.6666679" x2="469.3333435" y1="256.0005188" y2="256.0005188"><stop offset="0" style="stop-color:#DD1E47"/><stop offset="1" style="stop-color:#E24263"/></linearGradient><path d="M256,469.3338623c-117.6314697,0-213.3333282-95.7018738-213.3333282-213.3333435    S138.3685303,42.6671982,256,42.6671982c117.6357422,0,213.3333435,95.7018661,213.3333435,213.333313    S373.6357422,469.3338623,256,469.3338623z" fill="url(#SVGID_2_)"/></g><g><path d="M144,224.694397v78.6154785c0,5.5221252,4.4773407,10,10,10h50.4960022V214.694397H154    C148.4773407,214.694397,144,219.1717377,144,224.694397z" opacity="0.3"/><polygon opacity="0.3" points="214.4955597,320.5920105 292.9898682,377.776001 292.9898682,150.223465 214.4955597,207.4074707       "/><path d="M350.1717224,182.2138672l-7.0704041,7.06987    c19.9242859,19.9269257,30.8982544,46.4597321,30.8982544,74.7167816c0,28.2570801-10.9739685,54.7904053-30.8982544,74.7168274    l7.0704041,7.0703735c21.8138733-21.8117065,33.8278503-50.8597107,33.8278503-81.7872009    C383.9995728,233.0725403,371.9855957,204.0250702,350.1717224,182.2138672z" opacity="0.3"/><path d="M321.8976135,209.9824066l-7.0698853,7.0698547c25.8832092,25.8890686,25.8832092,68.0080109,0,93.8965302    l7.0698853,7.0704041C351.683197,288.2341309,351.683197,239.7674713,321.8976135,209.9824066z" opacity="0.3"/></g><g><path d="M136,216.694397v78.6154785c0,5.5221252,4.4773407,10,10,10h50.4960022V206.694397H146    C140.4773407,206.694397,136,211.1717377,136,216.694397z" fill="#FFFFFF"/><polygon fill="#FFFFFF" points="206.4955597,312.5920105 284.9898682,369.776001 284.9898682,142.223465 206.4955597,199.4074707       "/><path d="M342.1717224,174.2138672l-7.0704041,7.06987    c19.9242859,19.9269257,30.8982544,46.4597321,30.8982544,74.7167816c0,28.2570801-10.9739685,54.7904053-30.8982544,74.7168274    l7.0704041,7.0703735c21.8138733-21.8117065,33.8278503-50.8597107,33.8278503-81.7872009    C375.9995728,225.0725403,363.9855957,196.0250702,342.1717224,174.2138672z" fill="#FFFFFF"/><path d="M313.8976135,201.9824066l-7.0698853,7.0698547c25.8832092,25.8890686,25.8832092,68.0080109,0,93.8965302    l7.0698853,7.0704041C343.683197,280.2341309,343.683197,231.7674713,313.8976135,201.9824066z" fill="#FFFFFF"/></g></g></svg>