<!-- Generated by IcoMoon.io -->
<svg version="1.1" xmlns="http://www.w3.org/2000/svg" width="704" height="1024" viewBox="0 0 704 1024">
<title></title>
<g id="icomoon-ignore">
</g>
<path fill="#666" d="M512 0h-320c-35.344 0-64 28.656-64 64v896c0 35.344 28.656 64 64 64h320c35.344 0 64-28.656 64-64v-896c0-35.344-28.656-64-64-64z"></path>
<path fill="#333" d="M0 128c47.008 0 96 160 96 160h32v-192h-128v32zM0 416c47.008 0 96 160 96 160h32v-192h-128v32zM0 704c47.008 0 96 159.984 96 159.984h32v-192h-128v32.016zM576 96v192h32c0 0 49.008-160 96-160v-32h-128zM576 576h32c0 0 49.008-160 96-160v-32h-128v192zM576 863.984h32c0 0 49.008-159.984 96-159.984v-32.016h-128v192z"></path>
<path fill="#88c057" d="M448 799.712c0 53.072-42.981 96.096-96 96.096s-96-43.024-96-96.096c0-53.072 42.981-96.096 96-96.096s96 43.024 96 96.096z"></path>
<path fill="#fc6" d="M448 511.712c0 53.072-42.981 96.096-96 96.096s-96-43.024-96-96.096c0-53.072 42.981-96.096 96-96.096s96 43.024 96 96.096z"></path>
<path fill="#ed7161" d="M448 223.712c0 53.072-42.981 96.096-96 96.096s-96-43.024-96-96.096c0-53.072 42.981-96.096 96-96.096s96 43.024 96 96.096z"></path>
</svg>
