<?xml version="1.0" encoding="utf-8"?>
<!-- Generator: Adobe Illustrator 21.1.0, SVG Export Plug-In . SVG Version: 6.00 Build 0)  -->
<svg version="1.1" id="Layer_1" xmlns="http://www.w3.org/2000/svg" xmlns:xlink="http://www.w3.org/1999/xlink" x="0px" y="0px"
	 viewBox="0 0 29.9 65.5" style="enable-background:new 0 0 29.9 65.5;" xml:space="preserve">
<style type="text/css">
	.st0{fill:#7C6343;}
	.st1{fill:#73C15E;}
</style>
<g>
	<rect x="12.8" y="17.5" class="st0" width="4.4" height="48"/>
	<path class="st1" d="M29.9,23.4c0-3.2-1.9-5.9-4.6-7.1c0.5-1.1,0.9-2.3,0.9-3.5c0-3.6-2.5-6.6-5.8-7.5c0-0.1,0-0.2,0-0.3
		c0-2.8-2.2-5-5-5c-2.8,0-5,2.2-5,5c0,0,0,0.1,0,0.1c-3.8,0.5-6.7,3.8-6.7,7.7c0,1.3,0.3,2.5,0.9,3.5C1.9,17.6,0,20.3,0,23.4
		c0,3,1.7,5.6,4.2,6.9c-0.9,1.3-1.4,2.8-1.4,4.4c0,4.3,3.5,7.8,7.8,7.8c1.6,0,3.1-0.5,4.4-1.3c1.2,0.8,2.7,1.3,4.4,1.3
		c4.3,0,7.8-3.5,7.8-7.8c0-1.7-0.5-3.2-1.4-4.4C28.2,29,29.9,26.4,29.9,23.4 M14.9,20.3c-0.1-0.1-0.1-0.3-0.2-0.4
		c0.1,0,0.1-0.1,0.2-0.1c0.1,0,0.1,0.1,0.2,0.1C15.1,20,15,20.2,14.9,20.3"/>
</g>
</svg>
