<?xml version="1.0" encoding="utf-8"?>
<!-- Generator: Adobe Illustrator 21.1.0, SVG Export Plug-In . SVG Version: 6.00 Build 0)  -->
<svg version="1.1" id="Layer_1" xmlns="http://www.w3.org/2000/svg" xmlns:xlink="http://www.w3.org/1999/xlink" x="0px" y="0px"
	 viewBox="0 0 63.2 62.8" style="enable-background:new 0 0 63.2 62.8;" xml:space="preserve">
<style type="text/css">
	.st0{fill:#7C6343;}
	.st1{fill:#629D4C;}
</style>
<g>
	<rect x="31.3" y="14.8" class="st0" width="4.4" height="48"/>
	<path class="st1" d="M62.6,10c-1.5-4-5.4-6.4-9.4-6.2c0-0.1-0.1-0.3-0.1-0.4c-1-2.7-4-4-6.6-3c-1,0.4-1.8,1-2.4,1.9
		c-2.2-1-4.8-1.1-7.2-0.2c-3.2,1.2-5.4,4-6,7.1c-1.9-4.8-7.3-7.3-12.2-5.4C15.1,5,12.9,8,12.4,11.4c-1.3-1-3.1-1.3-4.8-0.6
		c-2.7,1-4,4-3,6.6c0.3,0.9,0.9,1.7,1.6,2.2c-1.7,1.9-2.6,4.3-2.5,6.9c-0.1,0-0.3,0.1-0.4,0.1c-2.7,1-4,4-3,6.6c1,2.7,4,4,6.6,3
		c0.9-0.3,1.7-0.9,2.2-1.6c1.9,0.9,4.2,1.2,6.4,0.7c0,0,0,0,0,0.1c1.9,5,7.4,7.5,12.3,5.6c4.9-1.8,7.4-7.2,5.7-12.1
		c2.4,3.5,7,5,11.2,3.5c4.2-1.6,6.6-5.7,6.2-9.9c1.9,0.6,4,0.5,6-0.2C61.9,20.5,64.4,14.9,62.6,10"/>
</g>
</svg>
