<?xml version="1.0" encoding="utf-8"?>
<!-- Generator: Adobe Illustrator 21.1.0, SVG Export Plug-In . SVG Version: 6.00 Build 0)  -->
<svg version="1.1" id="Layer_1" xmlns="http://www.w3.org/2000/svg" xmlns:xlink="http://www.w3.org/1999/xlink" x="0px" y="0px"
	 viewBox="0 0 17.4 17.4" style="enable-background:new 0 0 17.4 17.4;" xml:space="preserve">
<style type="text/css">
	.st0{fill:#262E32;}
	.st1{fill:#A9ACAC;}
	.st2{fill:#848687;}
</style>
<g>
	<path class="st0" d="M0,8.7C0,3.9,3.9,0,8.7,0c4.8,0,8.7,3.9,8.7,8.7c0,4.8-3.9,8.7-8.7,8.7C3.9,17.4,0,13.5,0,8.7"/>
	<path class="st1" d="M4.3,8.7c0-2.4,2-4.4,4.4-4.4c2.4,0,4.4,2,4.4,4.4c0,2.4-2,4.4-4.4,4.4C6.3,13.1,4.3,11.1,4.3,8.7"/>
	<g>
		<circle class="st2" cx="7.1" cy="7.3" r="0.8"/>
		<circle class="st2" cx="10.3" cy="7.3" r="0.8"/>
		<circle class="st2" cx="7.1" cy="10.1" r="0.8"/>
		<circle class="st2" cx="10.3" cy="10.1" r="0.8"/>
	</g>
</g>
</svg>
