<?xml version="1.0" encoding="utf-8"?>
<!-- Generator: Adobe Illustrator 21.1.0, SVG Export Plug-In . SVG Version: 6.00 Build 0)  -->
<svg version="1.1" id="Layer_1" xmlns="http://www.w3.org/2000/svg" xmlns:xlink="http://www.w3.org/1999/xlink" x="0px" y="0px"
	 viewBox="0 0 18.8 18.7" style="enable-background:new 0 0 18.8 18.7;" xml:space="preserve">
<style type="text/css">
	.st0{fill:#262E32;}
	.st1{fill:#A9ACAC;}
	.st2{fill:#848687;}
</style>
<g>
	<path class="st0" d="M18.8,9.4c0-5.2-4.2-9.4-9.4-9.4C4.2,0,0,4.2,0,9.4c0,5.2,4.2,9.4,9.4,9.4C14.6,18.7,18.8,14.6,18.8,9.4"/>
	<path class="st1" d="M14.9,9.4c0-3-2.5-5.5-5.5-5.5c-3,0-5.5,2.5-5.5,5.5c0,3,2.5,5.5,5.5,5.5C12.4,14.9,14.9,12.4,14.9,9.4"/>
	<g>
		<circle class="st2" cx="11.3" cy="7.7" r="1"/>
		<circle class="st2" cx="7.4" cy="7.7" r="1"/>
		<circle class="st2" cx="11.3" cy="11.1" r="1"/>
		<circle class="st2" cx="7.4" cy="11.1" r="1"/>
	</g>
</g>
</svg>
