<?xml version="1.0" encoding="utf-8"?>
<!-- Generator: Adobe Illustrator 21.1.0, SVG Export Plug-In . SVG Version: 6.00 Build 0)  -->
<svg version="1.1" id="Layer_1" xmlns="http://www.w3.org/2000/svg" xmlns:xlink="http://www.w3.org/1999/xlink" x="0px" y="0px"
	 viewBox="0 0 14.6 14.6" style="enable-background:new 0 0 14.6 14.6;" xml:space="preserve">
<style type="text/css">
	.st0{fill:#262E32;}
	.st1{fill:#A9ACAC;}
	.st2{fill:#848687;}
</style>
<g>
	<path class="st0" d="M0,7.3C0,3.3,3.3,0,7.3,0c4,0,7.3,3.3,7.3,7.3c0,4-3.3,7.3-7.3,7.3C3.3,14.6,0,11.3,0,7.3"/>
	<path class="st1" d="M3,7.3C3,4.9,4.9,3,7.3,3c2.4,0,4.3,1.9,4.3,4.3c0,2.4-1.9,4.3-4.3,4.3C4.9,11.6,3,9.6,3,7.3"/>
	<g>
		<circle class="st2" cx="5.8" cy="6" r="0.7"/>
		<circle class="st2" cx="8.8" cy="6" r="0.7"/>
		<circle class="st2" cx="5.8" cy="8.6" r="0.7"/>
		<circle class="st2" cx="8.8" cy="8.6" r="0.7"/>
	</g>
</g>
</svg>
