<?xml version="1.0" standalone="no"?>
<!DOCTYPE svg PUBLIC "-//W3C//DTD SVG 20010904//EN"
 "http://www.w3.org/TR/2001/REC-SVG-20010904/DTD/svg10.dtd">
<svg version="1.0" xmlns="http://www.w3.org/2000/svg"
 width="700.000000pt" height="700.000000pt" viewBox="0 0 700.000000 700.000000"
 preserveAspectRatio="xMidYMid meet">
<metadata>
Created by potrace 1.11, written by Peter Selinger 2001-2013
</metadata>
<g transform="translate(0.000000,700.000000) scale(0.100000,-0.100000)"
fill="#000000" stroke="none">
<path d="M3833 6665 c-60 -25 -63 -43 -63 -355 l0 -280 -222 -1 c-244 -1 -252
-1 -275 -21 -38 -32 -43 -68 -43 -350 l0 -273 -68 -1 c-75 -1 -104 -12 -129
-51 -15 -23 -17 -59 -18 -307 l0 -281 -180 -6 c-99 -3 -187 -8 -195 -12 -8 -5
-24 -20 -35 -35 -20 -27 -20 -44 -20 -1172 l0 -1145 -108 -3 -107 -3 0 225 c0
240 -4 263 -49 293 -24 17 -67 18 -536 20 -549 3 -539 4 -579 -50 -19 -26 -21
-41 -21 -255 l0 -227 -237 -5 -238 -5 -25 -26 c-15 -14 -29 -41 -33 -60 -4
-19 -7 -496 -7 -1061 1 -1120 -2 -1064 58 -1095 26 -13 365 -15 2901 -14 1777
0 2881 3 2896 9 14 5 34 20 45 32 20 22 20 38 23 1827 2 1591 0 1808 -13 1836
-31 65 5 62 -718 63 -361 0 -659 3 -662 5 -2 3 -5 178 -5 388 -1 421 -1 420
-62 456 -18 10 -34 18 -35 17 -2 -1 -77 -2 -167 -2 l-165 0 -3 290 -3 290 -25
25 c-31 30 -69 42 -132 40 -27 -1 -49 1 -49 4 -1 4 -3 134 -4 290 l-2 285 -36
33 -37 33 -230 0 c-126 0 -231 3 -231 8 -1 4 -2 131 -3 283 -1 242 -4 279 -19
302 -30 47 -83 63 -134 42z m469 -854 c3 0 6 -95 6 -211 0 -152 -3 -210 -11
-210 -114 -3 -838 0 -844 3 -6 4 -9 357 -4 412 1 7 145 10 424 9 232 -1 425
-2 429 -3z m219 -658 c1 -22 1 -383 0 -400 -1 -10 -137 -13 -646 -13 l-645 0
0 215 0 215 645 0 c607 0 645 -1 646 -17z m429 -640 c3 -7 4 -164 3 -350 0
-186 -1 -1126 -2 -2089 l-1 -1751 -1075 0 -1075 0 0 2098 c0 1389 3 2098 10
2101 5 2 488 3 1072 3 824 0 1064 -3 1068 -12z m1403 -2515 c0 -915 -2 -1666
-2 -1669 -1 -3 -266 -6 -591 -6 l-590 0 0 1669 0 1668 593 0 592 0 -2 -1662z
m-4204 683 c3 -5 6 -76 5 -158 l0 -148 -377 -3 -377 -2 0 160 0 159 108 3
c206 6 636 -2 641 -11z m428 -535 c4 -4 7 -1526 3 -1787 l0 -36 -212 1 -213 1
-1 775 c0 426 -3 787 -7 801 -9 34 -27 39 -164 39 -100 0 -115 -2 -133 -20
-20 -20 -20 -33 -20 -808 l0 -788 -105 -1 c-58 0 -106 2 -106 6 -1 3 -2 355
-3 781 -1 426 -5 785 -9 796 -10 29 -32 34 -164 34 -99 0 -115 -2 -132 -19
-19 -19 -20 -41 -20 -783 0 -420 0 -775 -1 -789 l0 -26 -212 1 -213 1 -2 912
-2 912 22 3 c38 5 1689 0 1694 -6z m-1069 -1066 c0 -412 -3 -750 -6 -751 -4 0
-27 -2 -52 -2 l-45 -2 -3 753 -2 752 54 0 54 0 0 -750z m538 0 c0 -412 -4
-751 -8 -751 -4 -1 -28 -2 -53 -3 l-45 -1 0 753 0 752 53 0 53 0 0 -750z"/>
<path d="M3350 4092 c-60 -2 -89 -7 -102 -19 -17 -15 -18 -47 -18 -463 0 -369
2 -450 14 -466 14 -18 29 -19 252 -20 219 -1 238 0 255 17 18 18 19 43 19 467
0 435 -1 449 -20 467 -17 15 -40 18 -167 19 -82 1 -186 0 -233 -2z m310 -484
l0 -378 -160 0 -160 0 0 378 0 377 160 0 160 0 0 -377z"/>
<path d="M4103 4092 c-69 -2 -94 -7 -105 -19 -10 -13 -13 -104 -14 -457 0
-425 3 -484 30 -488 6 -1 114 -2 239 -3 201 -2 231 0 250 15 20 17 20 23 20
461 1 480 0 489 -51 489 -15 1 -83 2 -152 3 -69 1 -166 1 -217 -1z m297 -111
c13 -1 15 -48 15 -373 l0 -373 -161 -3 -162 -2 0 372 c-1 217 3 375 8 378 8 5
241 5 300 1z"/>
<path d="M3250 2890 c-19 -19 -20 -36 -20 -468 0 -422 1 -450 18 -465 16 -15
49 -17 255 -17 232 0 236 0 251 22 14 20 16 81 16 465 0 430 -1 444 -20 463
-19 19 -33 20 -250 20 -216 -1 -232 -2 -250 -20z m408 -467 l-3 -377 -154 0
c-94 1 -156 5 -160 12 -3 5 -5 175 -3 376 l2 366 160 0 160 0 -2 -377z"/>
<path d="M4014 2900 c-12 -5 -23 -19 -26 -32 -2 -13 -4 -219 -3 -459 0 -353 3
-439 14 -453 12 -14 43 -16 250 -16 130 0 241 4 248 8 6 4 16 19 20 32 10 29
10 852 0 891 -5 19 -15 28 -37 33 -46 9 -442 6 -466 -4z m401 -475 c0 -328 -2
-375 -15 -376 -8 0 -80 -1 -160 -2 l-145 -1 -2 377 -2 377 162 0 162 0 0 -375z"/>
<path d="M3271 1718 c-18 -5 -31 -17 -35 -30 -3 -13 -6 -219 -6 -459 0 -360 2
-439 14 -455 14 -18 29 -19 252 -20 218 -1 239 1 256 18 17 17 18 44 18 466
-1 372 -3 450 -15 466 -13 17 -31 19 -235 20 -121 1 -233 -2 -249 -6z m387
-481 l2 -377 -160 0 -160 0 0 378 0 377 158 0 157 0 3 -378z"/>
<path d="M4006 1708 c-21 -16 -21 -24 -21 -468 0 -450 0 -452 22 -469 19 -16
47 -18 252 -17 202 1 232 3 247 18 16 15 17 56 16 455 0 241 -1 446 -1 455 -2
36 -38 42 -270 42 -196 1 -228 -1 -245 -16z m405 -108 c3 -8 5 -177 5 -375
l-1 -360 -161 -3 -162 -2 0 371 c-1 205 1 375 3 378 2 4 72 6 157 6 128 0 154
-2 159 -15z"/>
<path d="M5405 3216 c-18 -13 -20 -28 -20 -201 0 -173 2 -188 20 -201 15 -11
82 -14 360 -14 313 0 343 1 358 18 23 25 25 353 2 388 l-15 24 -343 0 c-279 0
-347 -3 -362 -14z m625 -198 l0 -107 -62 -3 c-35 -2 -156 -2 -269 0 l-206 3
-2 104 c-2 101 -1 104 21 107 13 2 134 3 270 3 l248 0 0 -107z"/>
<path d="M5420 2578 c-32 -12 -37 -42 -35 -222 1 -160 2 -169 22 -186 20 -16
52 -17 363 -16 326 1 342 2 356 20 20 28 20 363 0 391 -13 18 -31 19 -350 20
-185 0 -345 -3 -356 -7z m608 -210 l3 -107 -269 1 -269 0 -1 107 -1 108 267
-1 267 -1 3 -107z"/>
<path d="M5404 1926 c-18 -13 -19 -28 -19 -200 1 -154 3 -189 16 -201 14 -14
62 -16 358 -16 304 0 345 2 361 16 16 15 18 37 20 195 1 168 -1 181 -20 200
-19 19 -31 20 -358 20 -276 0 -342 -3 -358 -14z m626 -201 c0 -77 -3 -105 -12
-106 -7 -1 -129 -2 -270 -3 l-258 -1 0 108 0 107 270 0 270 0 0 -105z"/>
<path d="M5513 1292 c-78 -2 -104 -6 -114 -19 -19 -22 -19 -377 -1 -395 10
-10 96 -14 357 -16 335 -3 345 -2 365 18 19 19 20 32 20 194 0 151 -2 177 -17
195 -17 20 -27 21 -263 24 -135 1 -291 1 -347 -1z m515 -215 l3 -107 -271 0
-270 0 0 108 0 107 268 0 267 0 3 -108z"/>
</g>
</svg>
