<svg version="1" xmlns="http://www.w3.org/2000/svg" width="933.333" height="933.333" viewBox="0 0 700.000000 700.000000"><path d="M383.3 33.5c-6 2.5-6.3 4.3-6.3 35.5v28l-22.2.1c-24.4.1-25.2.1-27.5 2.1-3.8 3.2-4.3 6.8-4.3 35v27.3l-6.8.1c-7.5.1-10.4 1.2-12.9 5.1-1.5 2.3-1.7 5.9-1.8 30.7v28.1l-18 .6c-9.9.3-18.7.8-19.5 1.2-.8.5-2.4 2-3.5 3.5-2 2.7-2 4.4-2 117.2v114.5l-10.8.3-10.7.3v-22.5c0-24-.4-26.3-4.9-29.3-2.4-1.7-6.7-1.8-53.6-2-54.9-.3-53.9-.4-57.9 5-1.9 2.6-2.1 4.1-2.1 25.5v22.7l-23.7.5-23.8.5-2.5 2.6c-1.5 1.4-2.9 4.1-3.3 6-.4 1.9-.7 49.6-.7 106.1.1 112-.2 106.4 5.8 109.5 2.6 1.3 36.5 1.5 290.1 1.4 177.7 0 288.1-.3 289.6-.9 1.4-.5 3.4-2 4.5-3.2 2-2.2 2-3.8 2.3-182.7.2-159.1 0-180.8-1.3-183.6-3.1-6.5.5-6.2-71.8-6.3-36.1 0-65.9-.3-66.2-.5-.2-.3-.5-17.8-.5-38.8-.1-42.1-.1-42-6.2-45.6-1.8-1-3.4-1.8-3.5-1.7-.2.1-7.7.2-16.7.2h-16.5l-.3-29-.3-29-2.5-2.5c-3.1-3-6.9-4.2-13.2-4-2.7.1-4.9-.1-4.9-.4-.1-.4-.3-13.4-.4-29l-.2-28.5-3.6-3.3L445 97h-23c-12.6 0-23.1-.3-23.1-.8-.1-.4-.2-13.1-.3-28.3-.1-24.2-.4-27.9-1.9-30.2-3-4.7-8.3-6.3-13.4-4.2zm46.9 85.4c.3 0 .6 9.5.6 21.1 0 15.2-.3 21-1.1 21-11.4.3-83.8 0-84.4-.3-.6-.4-.9-35.7-.4-41.2.1-.7 14.5-1 42.4-.9 23.2.1 42.5.2 42.9.3zm21.9 65.8c.1 2.2.1 38.3 0 40-.1 1-13.7 1.3-64.6 1.3H323v-43h64.5c60.7 0 64.5.1 64.6 1.7zm42.9 64c.3.7.4 16.4.3 35 0 18.6-.1 112.6-.2 208.9l-.1 175.1H280V457.9c0-138.9.3-209.8 1-210.1.5-.2 48.8-.3 107.2-.3 82.4 0 106.4.3 106.8 1.2zm140.3 251.5c0 91.5-.2 166.6-.2 166.9-.1.3-26.6.6-59.1.6h-59V334h118.5l-.2 166.2zm-420.4-68.3c.3.5.6 7.6.5 15.8v14.8l-37.7.3-37.7.2v-31.9l10.8-.3c20.6-.6 63.6.2 64.1 1.1zm42.8 53.5c.4.4.7 152.6.3 178.7v3.6l-21.2-.1-21.3-.1-.1-77.5c0-42.6-.3-78.7-.7-80.1-.9-3.4-2.7-3.9-16.4-3.9-10 0-11.5.2-13.3 2-2 2-2 3.3-2 80.8v78.8l-10.5.1c-5.8 0-10.6-.2-10.6-.6-.1-.3-.2-35.5-.3-78.1-.1-42.6-.5-78.5-.9-79.6-1-2.9-3.2-3.4-16.4-3.4-9.9 0-11.5.2-13.2 1.9-1.9 1.9-2 4.1-2 78.3 0 42 0 77.5-.1 78.9v2.6l-21.2-.1-21.3-.1-.2-91.2-.2-91.2 2.2-.3c3.8-.5 168.9 0 169.4.6zM150.8 592c0 41.2-.3 75-.6 75.1-.4 0-2.7.2-5.2.2l-4.5.2-.3-75.3-.2-75.2h10.8v75zm53.8 0c0 41.2-.4 75.1-.8 75.1-.4.1-2.8.2-5.3.3l-4.5.1V517h10.6v75z"/><path d="M335 290.8c-6 .2-8.9.7-10.2 1.9-1.7 1.5-1.8 4.7-1.8 46.3 0 36.9.2 45 1.4 46.6 1.4 1.8 2.9 1.9 25.2 2 21.9.1 23.8 0 25.5-1.7 1.8-1.8 1.9-4.3 1.9-46.7 0-43.5-.1-44.9-2-46.7-1.7-1.5-4-1.8-16.7-1.9-8.2-.1-18.6 0-23.3.2zm31 48.4V377h-32v-75.5h32v37.7zm44.3-48.4c-6.9.2-9.4.7-10.5 1.9-1 1.3-1.3 10.4-1.4 45.7 0 42.5.3 48.4 3 48.8.6.1 11.4.2 23.9.3 20.1.2 23.1 0 25-1.5 2-1.7 2-2.3 2-46.1.1-48 0-48.9-5.1-48.9-1.5-.1-8.3-.2-15.2-.3-6.9-.1-16.6-.1-21.7.1zm29.7 11.1c1.3.1 1.5 4.8 1.5 37.3v37.3l-16.1.3-16.2.2v-37.2c-.1-21.7.3-37.5.8-37.8.8-.5 24.1-.5 30-.1zM325 411c-1.9 1.9-2 3.6-2 46.8 0 42.2.1 45 1.8 46.5 1.6 1.5 4.9 1.7 25.5 1.7 23.2 0 23.6 0 25.1-2.2 1.4-2 1.6-8.1 1.6-46.5 0-43-.1-44.4-2-46.3-1.9-1.9-3.3-2-25-2-21.6.1-23.2.2-25 2zm40.8 46.7l-.3 37.7h-15.4c-9.4-.1-15.6-.5-16-1.2-.3-.5-.5-17.5-.3-37.6l.2-36.6h32l-.2 37.7zm35.6-47.7c-1.2.5-2.3 1.9-2.6 3.2-.2 1.3-.4 21.9-.3 45.9 0 35.3.3 43.9 1.4 45.3 1.2 1.4 4.3 1.6 25 1.6 13 0 24.1-.4 24.8-.8.6-.4 1.6-1.9 2-3.2 1-2.9 1-85.2 0-89.1-.5-1.9-1.5-2.8-3.7-3.3-4.6-.9-44.2-.6-46.6.4zm40.1 47.5c0 32.8-.2 37.5-1.5 37.6-.8 0-8 .1-16 .2l-14.5.1-.2-37.7-.2-37.7h32.4v37.5zm-114.4 70.7c-1.8.5-3.1 1.7-3.5 3-.3 1.3-.6 21.9-.6 45.9 0 36 .2 43.9 1.4 45.5 1.4 1.8 2.9 1.9 25.2 2 21.8.1 23.9-.1 25.6-1.8 1.7-1.7 1.8-4.4 1.8-46.6-.1-37.2-.3-45-1.5-46.6-1.3-1.7-3.1-1.9-23.5-2-12.1-.1-23.3.2-24.9.6zm38.7 48.1l.2 37.7h-32v-75.5h31.5l.3 37.8zm34.8-47.1c-2.1 1.6-2.1 2.4-2.1 46.8 0 45 0 45.2 2.2 46.9 1.9 1.6 4.7 1.8 25.2 1.7 20.2-.1 23.2-.3 24.7-1.8 1.6-1.5 1.7-5.6 1.6-45.5 0-24.1-.1-44.6-.1-45.5-.2-3.6-3.8-4.2-27-4.2-19.6-.1-22.8.1-24.5 1.6zm40.5 10.8c.3.8.5 17.7.5 37.5l-.1 36-16.1.3-16.2.2v-37.1c-.1-20.5.1-37.5.3-37.8.2-.4 7.2-.6 15.7-.6 12.8 0 15.4.2 15.9 1.5zm99.4-161.6c-1.8 1.3-2 2.8-2 20.1s.2 18.8 2 20.1c1.5 1.1 8.2 1.4 36 1.4 31.3 0 34.3-.1 35.8-1.8 2.3-2.5 2.5-35.3.2-38.8L611 377h-34.3c-27.9 0-34.7.3-36.2 1.4zm62.5 19.8v10.7l-6.2.3c-3.5.2-15.6.2-26.9 0l-20.6-.3-.2-10.4c-.2-10.1-.1-10.4 2.1-10.7 1.3-.2 13.4-.3 27-.3H603v10.7zm-61 44c-3.2 1.2-3.7 4.2-3.5 22.2.1 16 .2 16.9 2.2 18.6 2 1.6 5.2 1.7 36.3 1.6 32.6-.1 34.2-.2 35.6-2 2-2.8 2-36.3 0-39.1-1.3-1.8-3.1-1.9-35-2-18.5 0-34.5.3-35.6.7zm60.8 21l.3 10.7-26.9-.1h-26.9l-.1-10.7-.1-10.8 26.7.1 26.7.1.3 10.7zm-62.4 44.2c-1.8 1.3-1.9 2.8-1.9 20 .1 15.4.3 18.9 1.6 20.1 1.4 1.4 6.2 1.6 35.8 1.6 30.4 0 34.5-.2 36.1-1.6 1.6-1.5 1.8-3.7 2-19.5.1-16.8-.1-18.1-2-20-1.9-1.9-3.1-2-35.8-2-27.6 0-34.2.3-35.8 1.4zm62.6 20.1c0 7.7-.3 10.5-1.2 10.6-.7.1-12.9.2-27 .3l-25.8.1V517h54v10.5zm-51.7 43.3c-7.8.2-10.4.6-11.4 1.9-1.9 2.2-1.9 37.7-.1 39.5 1 1 9.6 1.4 35.7 1.6 33.5.3 34.5.2 36.5-1.8 1.9-1.9 2-3.2 2-19.4 0-15.1-.2-17.7-1.7-19.5-1.7-2-2.7-2.1-26.3-2.4-13.5-.1-29.1-.1-34.7.1zm51.5 21.5l.3 10.7H549v-21.5h53.5l.3 10.8z"/></svg>